<svg width="118" height="125" viewBox="0 0 118 125" fill="none" xmlns="http://www.w3.org/2000/svg">
<path d="M19.6666 62.5V20.8333C19.6666 18.0707 20.7026 15.4211 22.5467 13.4676C24.3909 11.5141 26.892 10.4167 29.5 10.4167H68.8333C70.3913 10.4126 71.9347 10.7355 73.3744 11.3666C74.814 11.9977 76.1214 12.9246 77.2211 14.0937L94.8621 32.7812C95.9658 33.9462 96.8408 35.3312 97.4366 36.8562C98.0323 38.3813 98.3371 40.0162 98.3333 41.6667V104.167C98.3333 106.929 97.2973 109.579 95.4532 111.532C93.6091 113.486 91.1079 114.583 88.5 114.583" stroke="#4269A7" stroke-width="2" stroke-linecap="round" stroke-linejoin="round"/>
<path d="M68.8334 10.4166V36.4583C68.8334 37.8396 69.3514 39.1644 70.2734 40.1411C71.1955 41.1179 72.4461 41.6666 73.75 41.6666H98.3334" stroke="#4269A7" stroke-width="2" stroke-linecap="round" stroke-linejoin="round"/>
<path d="M49.1666 83.3334H59V114.583" stroke="#4269A7" stroke-width="2" stroke-linecap="round" stroke-linejoin="round"/>
<path d="M49.1666 114.583H68.8333" stroke="#4269A7" stroke-width="2" stroke-linecap="round" stroke-linejoin="round"/>
<path d="M29.5 93.75C29.5 87.9971 25.0975 83.3334 19.6667 83.3334C14.2359 83.3334 9.83337 87.9971 9.83337 93.75V104.167C9.83337 109.92 14.2359 114.583 19.6667 114.583C25.0975 114.583 29.5 109.92 29.5 104.167V93.75Z" stroke="#4269A7" stroke-width="2" stroke-linecap="round" stroke-linejoin="round"/>
</svg>
