<svg width="118" height="125" viewBox="0 0 118 125" fill="none" xmlns="http://www.w3.org/2000/svg">
<path d="M78.3766 114.583H88.5C91.108 114.583 93.6091 113.486 95.4532 111.532C97.2973 109.579 98.3334 106.929 98.3334 104.167V41.6668C98.3359 40.018 98.0305 38.3851 97.4347 36.8619C96.839 35.3388 95.9647 33.9555 94.8622 32.7918L77.2212 14.1043C76.1223 12.9332 74.8152 12.0044 73.3756 11.3715C71.9359 10.7386 70.3921 10.4141 68.8334 10.4168H29.5C26.8921 10.4168 24.3909 11.5142 22.5468 13.4677C20.7027 15.4212 19.6667 18.0708 19.6667 20.8334V39.1251" stroke="#4269A7" stroke-width="2" stroke-linecap="round" stroke-linejoin="round"/>
<path d="M68.8334 10.4167V36.4584C68.8334 37.8398 69.3514 39.1645 70.2734 40.1413C71.1955 41.118 72.4461 41.6667 73.75 41.6667H98.3334" stroke="#4269A7" stroke-width="2" stroke-linecap="round" stroke-linejoin="round"/>
<path d="M19.7502 59.9583C16.7431 62.7853 14.3132 66.2336 12.6097 70.0915C10.9063 73.9495 9.96528 78.1355 9.84449 82.3927C9.7237 86.6499 10.4257 90.8883 11.9073 94.8476C13.389 98.8069 15.619 102.404 18.4604 105.417C21.3019 108.43 24.6948 110.796 28.4309 112.37C32.1669 113.944 36.1672 114.692 40.1861 114.568C44.205 114.445 48.1576 113.453 51.8013 111.652C55.445 109.852 58.7029 107.281 61.3747 104.099" stroke="#4269A7" stroke-width="2" stroke-linecap="round" stroke-linejoin="round"/>
<path d="M44.25 83.3333C42.946 83.3333 41.6954 82.7846 40.7734 81.8079C39.8513 80.8311 39.3333 79.5063 39.3333 78.125V57.2917C39.3333 54.4167 41.5458 52.0417 44.2254 52.5156C50.2744 53.5931 55.8559 56.6413 60.1933 61.2359C64.5306 65.8306 67.4081 71.7432 68.4252 78.1511C68.8726 80.9844 66.6306 83.3333 63.9166 83.3333H44.25Z" stroke="#4269A7" stroke-width="2" stroke-linecap="round" stroke-linejoin="round"/>
</svg>
