<svg width="476" height="420" viewBox="0 0 476 420" fill="none" xmlns="http://www.w3.org/2000/svg">
<path d="M417.231 359.353C407.61 368.272 398.506 374.024 391.314 378.568C306.766 431.986 206.724 416.415 185.462 412.613C154.064 406.997 93.3745 396.143 49.4969 350.707C-16.8863 281.965 -6.54956 173.665 44.9418 102.175C54.3604 89.0977 104.112 16.5183 205.232 4.8789C266.429 -2.1651 337.764 12.0418 389.424 50.1529C497.861 130.152 490.142 291.762 417.231 359.353Z" fill="url(#paint0_linear_22_712)"/>
<path d="M378.096 17.6499C390.508 52.7921 453.255 259.897 243.127 346.655C243.127 346.655 161.959 219.673 372.11 16.4692C373.948 14.6914 377.285 15.354 378.096 17.6499Z" fill="#BDD0FB"/>
<path opacity="0.45" d="M362.849 52.4243C361.45 64.095 359.774 75.7553 357.986 87.3929C356.191 99.0318 354.244 110.652 352.143 122.251C347.941 145.447 343.151 168.561 337.558 191.519C331.946 214.469 325.573 237.285 317.806 259.72C313.964 270.947 309.661 282.047 304.889 292.973C300.1 303.891 294.818 314.646 288.607 324.954L288.603 324.96C288.138 325.732 288.471 326.69 289.348 327.1C290.225 327.509 291.312 327.215 291.777 326.444L291.783 326.435C298.01 315.937 303.259 305.049 308.004 294.022C312.732 282.986 316.975 271.8 320.751 260.502C328.386 237.925 334.605 215.014 340.06 191.984C345.496 168.948 350.122 145.775 354.158 122.528C356.177 110.904 358.04 99.26 359.752 87.5989C361.457 75.9356 363.047 64.2657 364.364 52.5543C364.406 52.1859 364.1 51.8579 363.682 51.8214C363.266 51.785 362.894 52.0517 362.85 52.4178L362.849 52.4243Z" fill="white"/>
<path d="M246.662 352.579C246.662 352.579 226.739 306.359 275.359 248.512C320.47 194.841 445.284 65.8823 465.265 2.01357C466.15 -0.815734 470.762 -0.608733 471.279 2.29047C476.827 33.3892 483.772 112.239 435.58 197.74C373.433 307.999 246.662 352.579 246.662 352.579Z" fill="#BDD0FB"/>
<path opacity="0.45" d="M453.809 60.4372C453.761 63.9093 453.278 67.3636 452.83 70.8063L451.972 75.9532C451.671 77.6657 451.26 79.3639 450.909 81.0689C450.723 81.9197 450.555 82.7734 450.352 83.621L449.687 86.1544L448.356 91.2173L446.784 96.2273C446.234 97.8899 445.802 99.5804 445.168 101.222C440.605 114.475 434.821 127.405 427.783 139.782C420.805 152.175 413.098 164.271 404.275 175.728L401.03 180.06L399.401 182.222L397.658 184.315L390.691 192.689C389.518 194.079 388.394 195.494 387.183 196.863L383.556 200.976L376.304 209.202C366.522 220.092 356.641 230.913 346.566 241.599C336.504 252.294 326.307 262.893 316.112 273.507C305.935 284.132 295.639 294.687 285.894 305.663C283.425 308.381 281.105 311.21 278.734 313.999C277.531 315.381 276.431 316.835 275.297 318.264C274.179 319.704 273.017 321.115 271.936 322.577C267.597 328.417 263.668 334.509 260.511 340.921C260.412 341.122 260.517 341.355 260.745 341.442C260.964 341.526 261.218 341.444 261.324 341.258L261.336 341.239L263.992 336.608L264.655 335.451C264.879 335.067 265.149 334.703 265.394 334.329L266.899 332.098C268.817 329.08 271.096 326.25 273.249 323.358C274.36 321.932 275.554 320.552 276.702 319.147C277.867 317.752 278.994 316.335 280.23 314.984C282.664 312.258 285.041 309.5 287.576 306.842C297.542 296.1 307.922 285.634 318.285 275.149L333.815 259.401C338.93 254.102 344.077 248.827 349.128 243.478C354.217 238.158 359.24 232.787 364.225 227.389C366.739 224.706 369.179 221.969 371.648 219.253L379.027 211.086L386.302 202.846L389.939 198.726C391.154 197.354 392.279 195.911 393.453 194.508L400.428 186.029L402.172 183.909L403.803 181.721L407.05 177.335L410.297 172.949C411.367 171.481 412.503 170.048 413.459 168.517L419.423 159.457C421.488 156.476 423.183 153.312 425.034 150.226C426.828 147.114 428.757 144.062 430.309 140.845C437.101 128.23 442.614 115.086 446.882 101.656C447.48 99.9932 447.881 98.281 448.361 96.5899L449.747 91.5052L450.892 86.3731L451.462 83.8088C451.633 82.9507 451.769 82.087 451.924 81.2266C453.207 74.3557 454.057 67.3986 453.92 60.4339C453.919 60.4069 453.894 60.3853 453.863 60.3857C453.833 60.3868 453.809 60.411 453.809 60.4372Z" fill="white"/>
<path d="M444.656 337.287C444.656 340.744 441.441 343.573 437.512 343.573H51.145C47.2153 343.573 44.0001 340.744 44.0001 337.287L40.7852 141.772C40.7852 138.315 45.4106 131.566 53.8874 132.074L431.487 123.47C436.418 123.358 441.185 125.029 444.677 128.093C448.168 131.158 450.079 135.348 449.962 139.686L444.656 337.287Z" fill="url(#paint1_linear_22_712)"/>
<path d="M437.603 331.257C437.603 334.531 434.561 337.209 430.843 337.209H60.4624C56.7446 337.209 53.7029 334.531 53.7029 331.257L50.669 153.767C51.0264 143.086 61.6607 139.247 68.1071 139.474L430.013 130.924C433.477 130.842 436.827 132.017 439.28 134.172C441.732 136.328 443.072 139.276 442.985 142.327L437.603 331.257Z" fill="#91B3FA"/>
<path d="M57.7054 246.626C57.3576 246.626 57.0729 246.38 57.0678 246.073L56.8276 231.678C56.8225 231.368 57.1039 231.113 57.4562 231.108C57.7967 231.092 58.0983 231.352 58.1034 231.662L58.3435 246.056C58.3487 246.366 58.0672 246.621 57.715 246.626C57.715 246.626 57.7087 246.626 57.7054 246.626Z" fill="white"/>
<path d="M57.1172 211.352C56.7694 211.352 56.4848 211.106 56.4795 210.799L55.5601 155.67C55.5792 151.963 56.8769 149.003 59.4173 146.859C64.0329 142.965 71.2495 143.161 71.5542 143.171L187.118 140.44C187.467 140.412 187.763 140.676 187.773 140.986C187.782 141.297 187.504 141.554 187.152 141.563L71.5511 144.294C71.2225 144.282 64.529 144.102 60.3 147.67C58.0189 149.595 56.8534 152.285 56.836 155.664L57.7554 210.782C57.7605 211.093 57.4791 211.348 57.127 211.352C57.1236 211.352 57.1203 211.352 57.1172 211.352Z" fill="#BDD0FB"/>
<path d="M79.9492 296.663C80.278 284.226 80.1555 174.092 79.3452 164.58C78.5348 155.068 95.3578 153.284 121.186 152.214C147.015 151.144 364.941 146.906 370.552 146.505C383.165 145.604 385.775 162.205 384.514 198.243C383.566 225.317 381.994 269.919 381.271 290.43C381.056 296.537 375.387 301.383 368.448 301.4C316.006 301.527 115.012 302.034 101.631 302.385C86.2336 302.788 79.8187 301.595 79.9492 296.663Z" fill="#7D97F4"/>
<path d="M466.246 359.803H30.2436C24.8787 359.803 20.4893 355.938 20.4893 351.214C20.4893 346.489 24.8787 342.624 30.2436 342.624H466.246C471.611 342.624 476 346.489 476 351.214C476 355.938 471.611 359.803 466.246 359.803Z" fill="url(#paint2_linear_22_712)"/>
<path d="M388.927 103.507L378.896 118.562C377.534 120.605 377.242 123.068 378.105 125.312C380.27 130.948 386.489 141.667 403.881 150.464C421.544 159.399 433.703 157.31 439.253 155.357C441.263 154.65 442.951 153.382 444.063 151.747L454.868 135.846L388.927 103.507Z" fill="url(#paint3_linear_22_712)"/>
<path d="M435.786 92.0799L378.556 92.745C375.609 92.7792 373.896 95.6929 375.569 97.8298C383.725 108.254 402.127 132.393 407.966 145.278C408.591 146.656 410.202 147.48 411.872 147.284L471.697 140.261C474.403 139.944 475.793 137.237 474.273 135.24C466.259 124.708 445.763 98.2383 438.145 92.7957C437.48 92.3199 436.644 92.07 435.786 92.0799Z" fill="url(#paint4_linear_22_712)"/>
<path d="M427.316 116.039C427.316 116.039 450.949 138.46 452.024 142.571C453.1 146.681 443.797 162.041 443.797 162.041C444.08 176.951 440.195 192.161 430.266 198.269C430.266 198.269 426.462 177.858 432.942 171.148C439.421 164.437 441.976 161.663 441.976 161.663C441.976 161.663 450.888 145.053 450.491 142.287C450.491 142.287 424.605 116.473 427.316 116.039Z" fill="url(#paint5_linear_22_712)"/>
<path d="M384.409 98.7735L404.517 128.835L409.544 136.35L410.801 138.229L411.429 139.164C411.625 139.456 411.866 139.723 412.13 139.969C413.192 140.954 414.761 141.496 416.313 141.39L436.084 140.286C436.24 140.277 436.374 140.382 436.384 140.519C436.394 140.656 436.276 140.774 436.122 140.784L416.361 142.019C414.613 142.151 412.809 141.549 411.587 140.43C411.283 140.15 411.005 139.846 410.777 139.513L410.137 138.576L408.864 136.706L403.772 129.224L383.406 99.2982C383.24 99.0548 383.33 98.7393 383.606 98.5934C383.883 98.4476 384.241 98.5266 384.407 98.7699L384.409 98.7735Z" fill="#BDD0FB"/>
<path d="M439.175 169.978L439.106 170.016L439.023 170.067L438.855 170.17L438.522 170.403C438.301 170.561 438.094 170.744 437.878 170.912L437.276 171.473C437.082 171.667 436.902 171.872 436.714 172.072C436.521 172.267 436.356 172.484 436.187 172.698C436.02 172.913 435.844 173.122 435.684 173.342L435.231 174.018C435.082 174.245 434.919 174.464 434.797 174.705L434.402 175.412C434.273 175.649 434.129 175.88 434.027 176.128C433.807 176.618 433.576 177.106 433.362 177.599L432.816 179.111C432.772 179.238 432.722 179.363 432.682 179.49L432.576 179.877L432.365 180.65C432.045 181.675 431.896 182.733 431.68 183.78C431.621 184.041 431.592 184.306 431.562 184.571L431.468 185.366C431.408 185.896 431.337 186.426 431.286 186.957C431.241 188.023 431.169 189.09 431.145 190.157L431.198 193.364L431.198 193.374C431.2 193.473 431.11 193.554 430.999 193.555C430.888 193.557 430.797 193.48 430.793 193.384L430.643 190.158C430.636 189.082 430.676 188.005 430.691 186.927C430.726 186.389 430.783 185.851 430.827 185.313L430.899 184.505C430.921 184.236 430.943 183.967 430.994 183.7C431.182 182.632 431.302 181.553 431.597 180.499L431.79 179.703L431.887 179.306C431.923 179.174 431.971 179.045 432.012 178.914L432.528 177.348C432.733 176.834 432.955 176.325 433.169 175.813C433.268 175.554 433.409 175.31 433.536 175.061L433.926 174.315C434.046 174.063 434.21 173.828 434.358 173.587L434.813 172.867C434.974 172.631 435.154 172.405 435.324 172.174C435.496 171.943 435.665 171.71 435.865 171.496C436.059 171.278 436.246 171.054 436.448 170.841L437.083 170.218C437.316 170.024 437.536 169.822 437.781 169.636L438.155 169.36L438.358 169.228L438.461 169.162L438.584 169.092C438.854 168.937 439.216 169.004 439.391 169.242C439.567 169.48 439.491 169.798 439.221 169.953C439.218 169.954 439.215 169.956 439.213 169.957L439.175 169.978Z" fill="url(#paint6_linear_22_712)"/>
<path d="M438.093 176.634L437.797 177.609L437.475 178.712L436.842 180.923L435.595 185.355L433.132 194.226C433.091 194.376 432.92 194.468 432.75 194.432C432.582 194.396 432.478 194.249 432.514 194.101L434.718 185.175L435.836 180.714L436.405 178.484L436.697 177.368L436.85 176.807L436.929 176.526C436.966 176.405 437.018 176.265 437.071 176.139C437.179 175.88 437.506 175.747 437.8 175.842C438.077 175.932 438.226 176.192 438.153 176.438L438.093 176.634Z" fill="url(#paint7_linear_22_712)"/>
<path d="M14.7626 347.939C13.0888 350.12 6.43628 399.5 5.39512 417.738C5.3246 418.972 6.44513 420 7.84742 420C9.0567 420 10.0859 419.224 10.2725 418.172L22.4402 349.51L14.7626 347.939Z" fill="#91B3FA"/>
<path d="M68.2486 347.939C69.9224 350.12 76.5749 399.5 77.6162 417.738C77.6866 418.972 76.5662 420 75.1639 420C73.9546 420 72.9252 419.224 72.7387 418.172L60.5709 349.51L68.2486 347.939Z" fill="#91B3FA"/>
<path d="M4.69936 344.086L4.69374 344.624C4.65354 348.498 8.44373 351.676 13.1894 351.747L69.4316 352.589C74.1089 352.659 78.0081 349.683 78.2349 345.869L78.2642 345.376C78.5009 341.398 74.6649 338.047 69.7871 337.97L13.5211 337.082C8.70521 337.006 4.74007 340.154 4.69936 344.086Z" fill="#91B3FA"/>
<path d="M100.03 309.719C100.03 309.719 109.311 310.986 119.745 317.129C121.388 318.095 122.288 319.78 122.041 321.506C120.792 330.221 115.654 358.428 98.7142 385.978C97.8211 387.431 97.5644 389.122 97.9584 390.737L100.901 402.798L106.359 407.304H92.301L82.9407 384.999L86.9433 383.884C90.0465 383.02 92.1757 380.507 92.232 377.641L92.7019 353.714C92.301 343.054 100.125 335.699 100.125 335.699L77.6733 334.737L100.03 309.719Z" fill="url(#paint8_linear_22_712)"/>
<path d="M111.848 409.48C113.129 410.955 98.0687 412.902 90.46 409.675C90.46 409.675 79.9127 393.516 79.9127 385.196C79.9127 385.196 80.7498 383.5 86.9431 383.884C86.9431 383.884 90.4844 403.018 94.2238 405.161C97.9632 407.304 104.686 405.378 104.686 405.378C104.686 405.378 109.959 407.303 111.848 409.48Z" fill="url(#paint9_linear_22_712)"/>
<path d="M80.5136 336.049C80.633 335.867 104.686 333.503 104.686 333.503C104.686 333.503 103.899 339.942 106.359 348.808C108.819 357.673 144.134 396.081 144.134 396.081L140.431 406.417C151.88 409.929 163.142 410.49 174.224 408.207L151.276 396.081C151.276 396.081 129.799 331.633 116.644 320.136L92.5337 312.791L80.5136 336.049Z" fill="url(#paint10_linear_22_712)"/>
<path d="M141.831 402.936C141.831 402.936 137.844 406.336 140.537 410.119C140.537 410.119 172.117 415.048 180.692 412.812C180.692 412.812 178.911 409.233 169.256 405.161L169.969 405.642C170.87 406.251 170.341 407.521 169.207 407.464C162.845 407.145 149.678 406.118 141.831 402.936Z" fill="url(#paint11_linear_22_712)"/>
<path d="M25.2857 297.842C25.2857 297.842 12.7135 316.7 11.5763 324.979C10.4391 333.259 15.3377 338.326 29.913 337.177C76.4969 336.881 87.2116 352.548 90.5601 372.14C90.7095 373.014 91.5561 373.659 92.5597 373.676C108.516 373.949 125.402 370.679 140.054 364.404C141.025 363.988 141.38 362.971 140.935 362.105C120.099 321.577 133.4 312.604 83.8981 300.849C77.2132 300.142 25.2857 297.842 25.2857 297.842Z" fill="url(#paint12_linear_22_712)"/>
<path d="M69.6893 296.889C69.6893 296.889 83.7423 283.346 91.686 274.384C95.9799 269.539 93.7729 262.431 91.787 256.54C88.1604 245.781 81.7152 234.637 81.1275 232.903C80.2265 230.244 62.1317 230.355 62.1317 230.355C62.1317 230.355 20.2677 246.913 11.9562 285.179C16.5167 287.339 22.0603 288.678 28.2469 289.48C28.2469 289.48 37.5439 275.746 46.7296 267.014C46.7296 267.014 29.671 285.219 29.1112 292.789L69.6893 296.889Z" fill="url(#paint13_linear_22_712)"/>
<path d="M95.8492 296.238L86.0299 287.904C85.447 287.409 84.5851 287.268 83.8393 287.546L68.6668 293.19C68.6668 293.19 52.3403 295.417 42.996 293.19C33.6517 290.962 33.6517 290.962 33.6517 290.962L12.5355 285.174L9.21903 293.427C8.37735 295.521 9.22278 297.848 11.2797 299.135C13.1068 300.278 15.2488 301.535 16.6139 302.061C19.3946 303.132 85.1637 301.32 85.1637 301.32L95.5386 297.643C96.1899 297.412 96.3546 296.667 95.8492 296.238Z" fill="url(#paint14_linear_22_712)"/>
<path d="M83.3157 218.046C83.1268 218.598 78.4038 232.385 78.0345 232.671C77.665 232.957 66.8329 233.184 62.1317 230.355L70.4005 215.371L83.3157 218.046Z" fill="url(#paint15_linear_22_712)"/>
<path d="M75.5578 189.088C75.5578 189.088 84.0838 192.258 89.881 203.107C95.6782 213.956 91.3489 218.965 85.9111 219.653C80.4732 220.341 72.3409 220.236 63.7389 213.228C55.137 206.22 64.4743 185.331 75.5578 189.088Z" fill="url(#paint16_linear_22_712)"/>
<path d="M67.9428 223.884C68.7821 222.342 69.8159 220.856 70.137 219.179C71.0227 214.552 67.0679 209.321 63.4581 206.287C61.2755 204.453 59.7143 201.669 61.0341 199.069C63.4743 194.263 71.5013 192.239 76.4688 190.217C78.2644 189.486 80.262 188.549 80.7426 186.859C80.964 186.081 80.8133 185.255 80.553 184.486C79.4417 181.201 76.2199 178.539 72.426 177.772C67.2435 176.724 59.6023 178.888 55.024 181.096C50.2148 183.416 46.188 187.04 43.8566 191.426C42.6926 193.616 41.9222 195.97 40.5401 198.059C35.819 205.196 22.706 211.232 30.7926 220.487C32.655 222.618 34.884 224.872 34.7608 227.559C34.6273 230.476 31.7513 232.725 30.8746 235.54C30.0877 238.067 31.1236 240.96 33.4137 242.633C35.7039 244.305 39.1247 244.666 41.799 243.518C43.3916 242.834 43.966 241.709 46.0496 241.98C47.3322 242.148 48.5197 242.666 49.7773 242.944C50.8202 243.174 51.9022 243.236 52.9773 243.235C56.0508 243.23 59.1813 242.682 61.8087 241.277C64.4361 239.873 66.5076 237.542 66.9899 234.869C67.5002 232.04 66.247 229.108 66.934 226.308C67.1412 225.464 67.5169 224.667 67.9428 223.884Z" fill="white"/>
<path d="M88.6359 191.98C89.2905 194.076 87.1523 196.023 84.7465 195.536C82.3246 195.045 79.3444 194.602 76.7638 194.691C59.3356 195.289 66.1257 205.254 66.1257 206.849C66.1257 210.11 62.4861 205.151 62.2779 206.251C61.8252 208.642 63.9441 215.899 63.9441 215.899C63.9441 215.899 52.7716 213.824 49.1502 209.041C45.5287 204.258 49.6029 193.495 50.9609 189.509C52.319 185.523 61.3726 181.537 66.3519 181.935C70.8039 182.292 85.025 180.418 88.6359 191.98Z" fill="white"/>
<path d="M67.2678 207.256C67.2678 207.256 62.4966 200.414 60.2518 204.167C58.0068 207.92 65.0431 210.391 67.7131 211.095L67.2678 207.256Z" fill="url(#paint17_linear_22_712)"/>
<path d="M131.259 290.984C131.308 290.986 131.358 290.987 131.408 290.987L196.341 290.93C197.946 290.929 199.246 289.784 199.244 288.373C199.242 286.961 197.935 285.796 196.334 285.821L131.401 285.878C129.796 285.879 128.496 287.024 128.498 288.435C128.5 289.802 129.723 290.917 131.259 290.984Z" fill="url(#paint18_linear_22_712)"/>
<path d="M221.488 234.989C221.464 235.028 221.442 235.067 221.421 235.107L194.101 286.977C193.425 288.259 194.056 289.78 195.509 290.373C196.963 290.967 198.715 290.414 199.364 289.126L226.685 237.256C227.361 235.974 226.73 234.453 225.277 233.86C223.868 233.285 222.204 233.791 221.488 234.989Z" fill="url(#paint19_linear_22_712)"/>
<path d="M160.171 293.854C159.887 294.888 132.794 384.366 125.925 407.05C125.133 409.665 127.344 412.232 130.382 412.232C132.501 412.232 134.348 410.946 134.861 409.114L164.937 301.737L160.171 293.854Z" fill="#BDD0FB"/>
<path d="M175.008 293.854C175.292 294.888 202.385 384.366 209.254 407.05C210.046 409.665 207.835 412.232 204.796 412.232C202.678 412.232 200.831 410.946 200.318 409.114L170.242 301.737L175.008 293.854Z" fill="#BDD0FB"/>
<path d="M176.137 290.927H159.263V302.86C159.263 304.575 160.822 305.965 162.747 305.965H165.062V332.768C165.062 334.067 166.243 335.119 167.699 335.119C169.156 335.119 170.337 334.067 170.337 332.768V305.965H171.512C174.066 305.965 176.137 304.12 176.137 301.844V290.927Z" fill="#BDD0FB"/>
<path d="M117.772 288.061H211.993C213.309 288.061 214.459 288.855 214.788 289.992L216.104 294.534C216.577 296.169 215.186 297.76 213.291 297.75L116.612 297.255C114.738 297.245 113.371 295.672 113.828 294.053L114.973 290.006C115.296 288.863 116.449 288.061 117.772 288.061Z" fill="#BDD0FB"/>
<path d="M175.756 111.145H7.88515C5.65447 111.145 3.84625 109.553 3.84625 107.589V15.388C3.84625 13.4238 5.65447 11.8315 7.88515 11.8315H175.756C177.986 11.8315 179.795 13.4238 179.795 15.388V107.589C179.795 109.553 177.986 111.145 175.756 111.145Z" fill="url(#paint20_linear_22_712)"/>
<path opacity="0.86" d="M166.678 81.3225H9.79401C8.9818 81.3225 8.32324 80.7427 8.32324 80.0275V69.1536C8.32324 68.4384 8.98163 67.8586 9.79401 67.8586H166.678C167.49 67.8586 168.148 68.4384 168.148 69.1536V80.0275C168.148 80.7427 167.49 81.3225 166.678 81.3225Z" fill="white"/>
<path opacity="0.86" d="M166.678 63.3599H9.79401C8.9818 63.3599 8.32324 62.7801 8.32324 62.0648V51.1908C8.32324 50.4756 8.98163 49.8958 9.79401 49.8958H166.678C167.49 49.8958 168.148 50.4755 168.148 51.1908V62.0648C168.148 62.7801 167.49 63.3599 166.678 63.3599Z" fill="white"/>
<path opacity="0.86" d="M96.2051 36.6321H13.3785C12.5663 36.6321 11.9077 36.0523 11.9077 35.3371V24.4632C11.9077 23.748 12.5661 23.1682 13.3785 23.1682H96.205C97.0172 23.1682 97.6756 23.748 97.6756 24.4632V35.3371C97.6757 36.0523 97.0173 36.6321 96.2051 36.6321Z" fill="white"/>
<path opacity="0.86" d="M166.678 99.6741H9.79401C8.9818 99.6741 8.32324 99.0943 8.32324 98.379V87.505C8.32324 86.7898 8.98163 86.21 9.79401 86.21H166.678C167.49 86.21 168.148 86.7897 168.148 87.505V98.379C168.148 99.0943 167.49 99.6741 166.678 99.6741Z" fill="white"/>
<mask id="mask0_22_712" style="mask-type:luminance" maskUnits="userSpaceOnUse" x="0" y="0" width="368" height="302">
<path d="M367.843 0.948486H0V301.429H367.843V0.948486Z" fill="white"/>
</mask>
<g mask="url(#mask0_22_712)">
<path d="M176.128 166.12C177.409 164.957 177.35 163.019 176.001 161.925L16.6123 29.0712C16.1653 28.6986 15.5223 28.6134 14.9821 28.8549C14.0336 29.279 13.844 30.464 14.6181 31.1285L171.937 166.176C173.128 167.199 174.968 167.174 176.128 166.12Z" fill="url(#paint21_linear_22_712)"/>
<path d="M325.698 269.521C329.843 273.654 335.945 277.224 340.239 279.451C333.826 286.856 325.149 294.271 313.662 301.529L310.374 308.421L299.841 296.627C299.841 296.627 318.742 287.84 325.698 269.521Z" fill="url(#paint22_linear_22_712)"/>
<path d="M258.126 294.17C258.126 294.17 237.2 368.463 237.579 461.952C237.585 463.657 238.867 465.128 240.652 465.479C243.283 465.997 247.151 466.612 250.353 466.528C252.062 466.483 253.491 465.299 253.778 463.724C256.712 447.65 273.551 357.094 283.145 342.393C283.145 342.393 289.457 423.046 287.439 464.889C287.389 465.929 288.204 466.832 289.312 466.951C290.992 467.133 293.679 467.271 297.1 466.931C298.398 466.802 299.446 465.886 299.631 464.678C301.721 451.074 313.75 370.096 313.239 311.763C313.21 308.474 303.927 294.17 303.927 294.17L258.126 294.17Z" fill="url(#paint23_linear_22_712)"/>
<path d="M226.035 194.109C229.7 185.359 235.881 179.368 242.097 172.447C265.393 176.393 303.577 179.914 319.5 181.788C324.471 182.373 329.018 184.662 332.294 188.204C345.285 202.249 373.794 240.703 340.239 279.451C335.944 277.224 329.842 273.653 325.698 269.521C329.411 259.745 329.715 247.251 321.935 231.931C321.669 233.146 321.34 234.348 320.94 235.531C310.217 267.267 309.645 293.677 309.669 299.764C309.672 300.59 309.141 301.335 308.32 301.642C294.207 306.925 267.04 303.781 257.92 302.511C256.248 302.278 255.123 300.824 255.355 299.259C259.83 268.968 236.86 219.136 230.793 206.655C229.906 204.829 228.342 203.362 226.386 202.536C225.404 202.121 224.443 201.698 223.492 201.271C224.216 198.855 225.049 196.464 226.035 194.109Z" fill="url(#paint24_linear_22_712)"/>
<path d="M295.107 152.645L296.768 179.727C296.817 180.525 296.26 181.246 295.43 181.441C291.751 182.309 281.582 184.034 272.732 179.329C271.586 178.72 271.055 177.435 271.415 176.249L278.816 151.916L295.107 152.645Z" fill="url(#paint25_linear_22_712)"/>
<path d="M276.967 123.056C276.591 123.387 261.087 151.828 261.087 151.828L278.659 159.752L297.64 134.835C297.64 134.835 283.266 117.517 276.967 123.056Z" fill="url(#paint26_linear_22_712)"/>
<path d="M289.865 135.526C290.179 136.283 290.102 137.129 289.654 137.825L280.89 151.473C280.757 151.679 280.599 151.867 280.41 152.031C279.367 152.938 275.797 155.577 273.038 151.985C270.686 148.923 268.479 146.139 266.115 144.991C264.734 144.321 263.035 144.856 262.333 146.154C260.89 148.828 258.093 154.278 256.336 159.445C255.895 160.741 256.611 162.131 257.959 162.641C261.517 163.988 268.549 166.423 274.79 167.228C275.814 167.36 276.829 166.956 277.439 166.175C280.124 162.739 287.691 153.138 290.273 150.734C292.673 148.501 297.101 149.343 299.096 149.879C299.854 150.082 300.66 149.984 301.335 149.604C303.36 148.465 306.893 145.629 303.661 140.826C302.857 139.632 303.267 138.041 304.528 137.266C306.788 135.877 309.241 133.27 306.904 129.048C304.539 124.774 300.315 124.39 297.438 124.719C296.165 124.864 294.872 124.24 294.384 123.132C294.167 122.64 293.737 122.22 292.938 122.068C291.43 121.783 290.44 120.494 290.736 119.084C291.243 116.665 290.861 113.523 286.728 111.4C279.146 107.506 272.505 113.851 270.816 119.207C269.128 124.564 277.605 128.349 282.937 128.981C286.854 129.445 289.001 133.438 289.865 135.526Z" fill="url(#paint27_linear_22_712)"/>
<path d="M286.982 155.746C286.982 155.746 290.353 146.531 294.669 146.869C298.984 147.207 302.381 151.224 297.033 155.738C290.38 161.354 286.982 155.746 286.982 155.746Z" fill="url(#paint28_linear_22_712)"/>
<path d="M323.358 229.558C329.046 215.015 326.982 197.455 326.96 197.279L325.393 197.447C325.414 197.619 327.434 214.843 321.875 229.052L323.358 229.558Z" fill="url(#paint29_linear_22_712)"/>
<path d="M172.745 180.85C194.896 188.412 242.097 172.447 242.097 172.447L245.345 208.474C207.547 219.639 182.95 216.388 166.955 207.019C165.961 196.369 169.387 187.101 172.745 180.85Z" fill="url(#paint30_linear_22_712)"/>
<path d="M137.478 143.668L146.748 141.953C146.748 141.953 149.276 169.506 169.923 179.692C170.808 180.129 171.753 180.511 172.745 180.85C169.387 187.101 165.961 196.369 166.955 207.018C134.453 187.979 137.478 143.668 137.478 143.668Z" fill="url(#paint31_linear_22_712)"/>
<path d="M146.278 144.354L146.748 141.953C146.748 141.953 148.682 136.086 143.567 130.311C136.174 121.963 130.763 125.033 130.763 125.033C130.763 125.033 131.147 126.819 131.121 128.402C131.1 129.679 129.46 130.326 128.453 129.461L116.387 119.104C116.387 119.104 113.009 135.554 138.885 146.861L146.278 144.354Z" fill="url(#paint32_linear_22_712)"/>
</g>
<path d="M460.966 338.888L284.542 338.889V308.936L460.966 308.936C457.19 308.936 457.19 338.888 460.966 338.888Z" fill="#BDD0FB"/>
<path d="M284.542 331.393V317.686C284.542 312.853 288.029 308.936 292.33 308.936H460.222C463.604 308.936 466.346 306.611 466.346 303.742C466.346 302.87 465.513 302.164 464.485 302.164H280.992C276.784 302.164 270.103 307.776 270.103 314.698V333.843C270.103 340.37 276.589 345.661 280.557 345.661H463.52C465.081 345.661 466.346 344.588 466.346 343.264C466.346 340.847 464.037 338.889 461.188 338.889H291.214C287.529 338.889 284.542 335.533 284.542 331.393Z" fill="url(#paint33_linear_22_712)"/>
<path d="M454.856 315.586H289.435C289.119 315.586 288.862 315.36 288.862 315.082C288.862 314.803 289.119 314.577 289.435 314.577H454.856C455.173 314.577 455.43 314.803 455.43 315.082C455.43 315.36 455.173 315.586 454.856 315.586Z" fill="white"/>
<path d="M454.856 320.032H289.435C289.119 320.032 288.862 319.806 288.862 319.528C288.862 319.249 289.119 319.023 289.435 319.023H454.856C455.173 319.023 455.43 319.249 455.43 319.528C455.43 319.806 455.173 320.032 454.856 320.032Z" fill="white"/>
<path d="M454.856 324.478H289.435C289.119 324.478 288.862 324.252 288.862 323.974C288.862 323.695 289.119 323.469 289.435 323.469H454.856C455.173 323.469 455.43 323.695 455.43 323.974C455.43 324.252 455.173 324.478 454.856 324.478Z" fill="white"/>
<path d="M454.856 328.924H289.435C289.119 328.924 288.862 328.698 288.862 328.42C288.862 328.141 289.119 327.915 289.435 327.915H454.856C455.173 327.915 455.43 328.141 455.43 328.42C455.43 328.698 455.173 328.924 454.856 328.924Z" fill="white"/>
<path d="M454.856 333.37H289.435C289.119 333.37 288.862 333.144 288.862 332.866C288.862 332.587 289.119 332.361 289.435 332.361H454.856C455.173 332.361 455.43 332.587 455.43 332.866C455.43 333.144 455.173 333.37 454.856 333.37Z" fill="white"/>
<path d="M473.793 391.248H261.893C260.729 391.248 259.786 390.417 259.786 389.392V347.167C259.786 346.142 260.729 345.312 261.893 345.312H473.793C474.956 345.312 475.9 346.142 475.9 347.167V389.392C475.9 390.417 474.956 391.248 473.793 391.248Z" fill="url(#paint34_linear_22_712)"/>
<path d="M305.447 385.968H288.36C286.068 385.968 284.21 384.332 284.21 382.313V354.246C284.21 352.227 286.068 350.591 288.36 350.591H305.447C307.74 350.591 309.598 352.227 309.598 354.246V382.313C309.598 384.332 307.74 385.968 305.447 385.968Z" fill="#7D97F4"/>
<path d="M319.483 385.968H316.709C314.844 385.968 313.333 384.637 313.333 382.995V353.564C313.333 351.922 314.844 350.591 316.709 350.591H319.483C321.347 350.591 322.859 351.922 322.859 353.564V382.995C322.859 384.637 321.347 385.968 319.483 385.968Z" fill="#7D97F4"/>
<defs>
<linearGradient id="paint0_linear_22_712" x1="532.466" y1="540.003" x2="176.201" y2="37.5305" gradientUnits="userSpaceOnUse">
<stop stop-color="#DAE3FE"/>
<stop offset="1" stop-color="#E9EFFD"/>
</linearGradient>
<linearGradient id="paint1_linear_22_712" x1="209.038" y1="328.542" x2="281.419" y2="81.9453" gradientUnits="userSpaceOnUse">
<stop stop-color="#09005D"/>
<stop offset="1" stop-color="#1A0F91"/>
</linearGradient>
<linearGradient id="paint2_linear_22_712" x1="295.537" y1="55.0789" x2="277.46" y2="201.061" gradientUnits="userSpaceOnUse">
<stop stop-color="#09005D"/>
<stop offset="1" stop-color="#1A0F91"/>
</linearGradient>
<linearGradient id="paint3_linear_22_712" x1="457.86" y1="-51.3173" x2="441.718" y2="38.8146" gradientUnits="userSpaceOnUse">
<stop stop-color="#4F52FF"/>
<stop offset="1" stop-color="#4042E2"/>
</linearGradient>
<linearGradient id="paint4_linear_22_712" x1="453.175" y1="139.661" x2="326.62" y2="29.446" gradientUnits="userSpaceOnUse">
<stop stop-color="#4F52FF"/>
<stop offset="1" stop-color="#4042E2"/>
</linearGradient>
<linearGradient id="paint5_linear_22_712" x1="597.78" y1="57.4267" x2="521.259" y2="115.659" gradientUnits="userSpaceOnUse">
<stop stop-color="#4F52FF"/>
<stop offset="1" stop-color="#4042E2"/>
</linearGradient>
<linearGradient id="paint6_linear_22_712" x1="430.643" y1="181.282" x2="439.486" y2="181.282" gradientUnits="userSpaceOnUse">
<stop stop-color="#DAE3FE"/>
<stop offset="1" stop-color="#E9EFFD"/>
</linearGradient>
<linearGradient id="paint7_linear_22_712" x1="432.507" y1="185.125" x2="438.171" y2="185.125" gradientUnits="userSpaceOnUse">
<stop stop-color="#DAE3FE"/>
<stop offset="1" stop-color="#E9EFFD"/>
</linearGradient>
<linearGradient id="paint8_linear_22_712" x1="122.081" y1="358.512" x2="77.6732" y2="358.512" gradientUnits="userSpaceOnUse">
<stop stop-color="#FEBBBA"/>
<stop offset="1" stop-color="#FF928E"/>
</linearGradient>
<linearGradient id="paint9_linear_22_712" x1="3103.55" y1="-970.574" x2="2980.9" y2="-898.626" gradientUnits="userSpaceOnUse">
<stop stop-color="#09005D"/>
<stop offset="1" stop-color="#1A0F91"/>
</linearGradient>
<linearGradient id="paint10_linear_22_712" x1="174.224" y1="361.183" x2="80.5136" y2="361.183" gradientUnits="userSpaceOnUse">
<stop stop-color="#FEBBBA"/>
<stop offset="1" stop-color="#FF928E"/>
</linearGradient>
<linearGradient id="paint11_linear_22_712" x1="3122.15" y1="-938.867" x2="2999.5" y2="-866.919" gradientUnits="userSpaceOnUse">
<stop stop-color="#09005D"/>
<stop offset="1" stop-color="#1A0F91"/>
</linearGradient>
<linearGradient id="paint12_linear_22_712" x1="138.454" y1="358.179" x2="-21.4179" y2="266.018" gradientUnits="userSpaceOnUse">
<stop stop-color="#4F52FF"/>
<stop offset="1" stop-color="#4042E2"/>
</linearGradient>
<linearGradient id="paint13_linear_22_712" x1="156.193" y1="222.379" x2="24.9568" y2="299.657" gradientUnits="userSpaceOnUse">
<stop stop-color="#FF928E"/>
<stop offset="1" stop-color="#FE7062"/>
</linearGradient>
<linearGradient id="paint14_linear_22_712" x1="104.483" y1="273.408" x2="-16.0169" y2="328.861" gradientUnits="userSpaceOnUse">
<stop stop-color="#FEBBBA"/>
<stop offset="1" stop-color="#FF928E"/>
</linearGradient>
<linearGradient id="paint15_linear_22_712" x1="68.4927" y1="248.107" x2="72.2252" y2="220.909" gradientUnits="userSpaceOnUse">
<stop stop-color="#FEBBBA"/>
<stop offset="1" stop-color="#FF928E"/>
</linearGradient>
<linearGradient id="paint16_linear_22_712" x1="89.2268" y1="198.018" x2="51.2926" y2="227.28" gradientUnits="userSpaceOnUse">
<stop stop-color="#FEBBBA"/>
<stop offset="1" stop-color="#FF928E"/>
</linearGradient>
<linearGradient id="paint17_linear_22_712" x1="78.9564" y1="191.905" x2="56.3363" y2="222.429" gradientUnits="userSpaceOnUse">
<stop stop-color="#FEBBBA"/>
<stop offset="1" stop-color="#FF928E"/>
</linearGradient>
<linearGradient id="paint18_linear_22_712" x1="-6826.32" y1="-6268.93" x2="-6726.93" y2="-6148.26" gradientUnits="userSpaceOnUse">
<stop stop-color="#09005D"/>
<stop offset="1" stop-color="#1A0F91"/>
</linearGradient>
<linearGradient id="paint19_linear_22_712" x1="9907.64" y1="-2553.81" x2="9752.38" y2="-2496.03" gradientUnits="userSpaceOnUse">
<stop stop-color="#09005D"/>
<stop offset="1" stop-color="#1A0F91"/>
</linearGradient>
<linearGradient id="paint20_linear_22_712" x1="113.56" y1="14.1854" x2="27.3106" y2="256.222" gradientUnits="userSpaceOnUse">
<stop stop-color="#FF928E"/>
<stop offset="1" stop-color="#FE7062"/>
</linearGradient>
<linearGradient id="paint21_linear_22_712" x1="76.1444" y1="60.7835" x2="241.612" y2="457.242" gradientUnits="userSpaceOnUse">
<stop stop-color="#09005D"/>
<stop offset="1" stop-color="#1A0F91"/>
</linearGradient>
<linearGradient id="paint22_linear_22_712" x1="340.239" y1="288.971" x2="299.841" y2="288.971" gradientUnits="userSpaceOnUse">
<stop stop-color="#FEBBBA"/>
<stop offset="1" stop-color="#FF928E"/>
</linearGradient>
<linearGradient id="paint23_linear_22_712" x1="170.09" y1="241.07" x2="331.917" y2="526.241" gradientUnits="userSpaceOnUse">
<stop stop-color="#09005D"/>
<stop offset="1" stop-color="#1A0F91"/>
</linearGradient>
<linearGradient id="paint24_linear_22_712" x1="434.973" y1="-78.32" x2="394.962" y2="29.7935" gradientUnits="userSpaceOnUse">
<stop stop-color="#E1473D"/>
<stop offset="1" stop-color="#E9605A"/>
</linearGradient>
<linearGradient id="paint25_linear_22_712" x1="278.042" y1="145.341" x2="297.677" y2="241.702" gradientUnits="userSpaceOnUse">
<stop stop-color="#FEBBBA"/>
<stop offset="1" stop-color="#FF928E"/>
</linearGradient>
<linearGradient id="paint26_linear_22_712" x1="282.237" y1="128.444" x2="273.227" y2="188.652" gradientUnits="userSpaceOnUse">
<stop stop-color="#FEBBBA"/>
<stop offset="1" stop-color="#FF928E"/>
</linearGradient>
<linearGradient id="paint27_linear_22_712" x1="293.656" y1="156.186" x2="264.834" y2="121.416" gradientUnits="userSpaceOnUse">
<stop stop-color="#09005D"/>
<stop offset="1" stop-color="#1A0F91"/>
</linearGradient>
<linearGradient id="paint28_linear_22_712" x1="291.41" y1="193.744" x2="293.003" y2="151.718" gradientUnits="userSpaceOnUse">
<stop stop-color="#FEBBBA"/>
<stop offset="1" stop-color="#FF928E"/>
</linearGradient>
<linearGradient id="paint29_linear_22_712" x1="459.354" y1="-69.2963" x2="419.342" y2="38.817" gradientUnits="userSpaceOnUse">
<stop stop-color="#FF928E"/>
<stop offset="1" stop-color="#FE7062"/>
</linearGradient>
<linearGradient id="paint30_linear_22_712" x1="353.666" y1="-108.411" x2="313.654" y2="-0.29744" gradientUnits="userSpaceOnUse">
<stop stop-color="#E1473D"/>
<stop offset="1" stop-color="#E9605A"/>
</linearGradient>
<linearGradient id="paint31_linear_22_712" x1="134.31" y1="111.542" x2="154.224" y2="185.45" gradientUnits="userSpaceOnUse">
<stop stop-color="#FEBBBA"/>
<stop offset="1" stop-color="#FF928E"/>
</linearGradient>
<linearGradient id="paint32_linear_22_712" x1="125.902" y1="113.958" x2="145.735" y2="187.564" gradientUnits="userSpaceOnUse">
<stop stop-color="#FEBBBA"/>
<stop offset="1" stop-color="#FF928E"/>
</linearGradient>
<linearGradient id="paint33_linear_22_712" x1="513.046" y1="159.557" x2="462.197" y2="235.452" gradientUnits="userSpaceOnUse">
<stop stop-color="#09005D"/>
<stop offset="1" stop-color="#1A0F91"/>
</linearGradient>
<linearGradient id="paint34_linear_22_712" x1="370.895" y1="323.669" x2="366.67" y2="403.31" gradientUnits="userSpaceOnUse">
<stop stop-color="#4F52FF"/>
<stop offset="1" stop-color="#4042E2"/>
</linearGradient>
</defs>
</svg>
