<svg width="118" height="125" viewBox="0 0 118 125" fill="none" xmlns="http://www.w3.org/2000/svg">
<path d="M62.2401 114.583H88.5C91.108 114.583 93.6091 113.486 95.4532 111.532C97.2973 109.579 98.3334 106.929 98.3334 104.167V41.6667C98.3372 40.0162 98.0324 38.3813 97.4366 36.8562C96.8409 35.3312 95.9659 33.9462 94.8622 32.7812L77.2212 14.0937C76.1215 12.9246 74.8141 11.9977 73.3744 11.3666C71.9348 10.7355 70.3914 10.4126 68.8334 10.4167H29.5C26.8921 10.4167 24.3909 11.5141 22.5468 13.4676C20.7027 15.4211 19.6667 18.0707 19.6667 20.8333V69.4792" stroke="#4269A7" stroke-width="2" stroke-linecap="round" stroke-linejoin="round"/>
<path d="M68.8333 10.4166V36.4583C68.8333 37.8396 69.3513 39.1644 70.2734 40.1411C71.1954 41.1179 72.446 41.6666 73.75 41.6666H98.3333" stroke="#4269A7" stroke-width="2" stroke-linecap="round" stroke-linejoin="round"/>
<path d="M51.0252 65.7396C52.9831 63.6676 55.6378 62.5044 58.4054 62.5059C61.1729 62.5073 63.8266 63.6734 65.7825 65.7474C67.7385 67.8215 68.8366 70.6337 68.8352 73.5655C68.8338 76.4972 67.7331 79.3082 65.7752 81.3802L41.1033 107.484C39.935 108.723 38.4909 109.629 36.9045 110.12L22.8084 114.479C22.3853 114.61 21.9369 114.618 21.51 114.502C21.0831 114.386 20.6934 114.151 20.3818 113.821C20.0702 113.491 19.848 113.078 19.7387 112.626C19.6293 112.173 19.6367 111.698 19.7601 111.25L23.8704 96.3073C24.3344 94.6286 25.19 93.1008 26.3582 91.8646L51.0252 65.7396Z" stroke="#4269A7" stroke-width="2" stroke-linecap="round" stroke-linejoin="round"/>
</svg>
