<svg width="118" height="125" viewBox="0 0 118 125" fill="none" xmlns="http://www.w3.org/2000/svg">
<path d="M73.9122 49.1666C74.3951 49.4626 74.796 49.8879 75.0746 50.3998C75.3533 50.9117 75.5001 51.4923 75.5001 52.0833C75.5001 52.6742 75.3533 53.2548 75.0746 53.7667C74.796 54.2786 74.3951 54.7039 73.9122 54.9999L53.926 67.2499C53.4433 67.5457 52.8955 67.7015 52.3379 67.7015C51.7803 67.7015 51.2325 67.5458 50.7499 67.25C50.2672 66.9542 49.8667 66.5288 49.5887 66.0167C49.3108 65.5046 49.1652 64.924 49.1666 64.3333V39.8333C49.1657 39.2433 49.3114 38.6635 49.5891 38.1522C49.8668 37.6408 50.2667 37.2159 50.7486 36.9203C51.2306 36.6247 51.7775 36.4687 52.3344 36.468C52.8913 36.4674 53.4385 36.6221 53.9211 36.9166L73.9122 49.1666Z" stroke="#4269A7" stroke-width="2" stroke-linecap="round" stroke-linejoin="round"/>
<path d="M59 88.5417V109.375" stroke="#4269A7" stroke-width="2" stroke-linecap="round" stroke-linejoin="round"/>
<path d="M39.3334 109.375H78.6667" stroke="#4269A7" stroke-width="2" stroke-linecap="round" stroke-linejoin="round"/>
<path d="M98.3334 15.625H19.6667C14.2359 15.625 9.83337 20.2887 9.83337 26.0417V78.125C9.83337 83.878 14.2359 88.5417 19.6667 88.5417H98.3334C103.764 88.5417 108.167 83.878 108.167 78.125V26.0417C108.167 20.2887 103.764 15.625 98.3334 15.625Z" stroke="#4269A7" stroke-width="2" stroke-linecap="round" stroke-linejoin="round"/>
</svg>
