<svg width="118" height="125" viewBox="0 0 118 125" fill="none" xmlns="http://www.w3.org/2000/svg">
<path d="M68.0958 114.583H88.5C91.1079 114.583 93.6091 113.486 95.4532 111.532C97.2973 109.579 98.3333 106.929 98.3333 104.167V41.6666C98.3327 38.9042 97.2964 36.2551 95.4521 34.302L75.7855 13.4687C73.9418 11.5151 71.441 10.4172 68.8333 10.4166H29.5C26.892 10.4166 24.3908 11.5141 22.5467 13.4676C20.7026 15.4211 19.6666 18.0706 19.6666 20.8333V55.2083" stroke="#4269A7" stroke-width="2" stroke-linecap="round" stroke-linejoin="round"/>
<path d="M68.8334 10.4166V36.4583C68.8334 37.8396 69.3514 39.1644 70.2734 40.1411C71.1955 41.1179 72.4461 41.6666 73.75 41.6666H98.3334" stroke="#4269A7" stroke-width="2" stroke-linecap="round" stroke-linejoin="round"/>
<path d="M16.2496 101.719L20.7877 99.7291" stroke="#4269A7" stroke-width="2" stroke-linecap="round" stroke-linejoin="round"/>
<path d="M20.7876 87.7708L16.2446 85.776" stroke="#4269A7" stroke-width="2" stroke-linecap="round" stroke-linejoin="round"/>
<path d="M28.7724 79.3125L26.8893 74.5052" stroke="#4269A7" stroke-width="2" stroke-linecap="round" stroke-linejoin="round"/>
<path d="M28.7724 108.188L26.8893 113" stroke="#4269A7" stroke-width="2" stroke-linecap="round" stroke-linejoin="round"/>
<path d="M40.061 79.3125L41.9441 74.5052" stroke="#4269A7" stroke-width="2" stroke-linecap="round" stroke-linejoin="round"/>
<path d="M41.9392 113L40.061 108.188" stroke="#4269A7" stroke-width="2" stroke-linecap="round" stroke-linejoin="round"/>
<path d="M48.0505 87.7708L52.5837 85.776" stroke="#4269A7" stroke-width="2" stroke-linecap="round" stroke-linejoin="round"/>
<path d="M48.0505 99.7291L52.5837 101.724" stroke="#4269A7" stroke-width="2" stroke-linecap="round" stroke-linejoin="round"/>
<path d="M34.4166 109.375C42.5628 109.375 49.1666 102.379 49.1666 93.75C49.1666 85.1206 42.5628 78.125 34.4166 78.125C26.2704 78.125 19.6666 85.1206 19.6666 93.75C19.6666 102.379 26.2704 109.375 34.4166 109.375Z" stroke="#4269A7" stroke-width="2" stroke-linecap="round" stroke-linejoin="round"/>
</svg>
