<svg width="22" height="22" viewBox="0 0 22 22" fill="none" xmlns="http://www.w3.org/2000/svg">
<path d="M10.5259 1.30924C10.5698 1.21639 10.6375 1.13824 10.7214 1.0836C10.8053 1.02896 10.9021 1 11.0009 1C11.0997 1 11.1965 1.02896 11.2804 1.0836C11.3643 1.13824 11.432 1.21639 11.4759 1.30924L13.7856 6.21589C13.9378 6.53884 14.1624 6.81825 14.4402 7.03012C14.718 7.242 15.0407 7.38002 15.3805 7.43233L20.546 8.22511C20.6439 8.23999 20.7359 8.28329 20.8115 8.35011C20.8871 8.41694 20.9434 8.50463 20.974 8.60327C21.0046 8.7019 21.0083 8.80754 20.9846 8.90825C20.9609 9.00895 20.9108 9.10069 20.84 9.1731L17.1043 12.9881C16.858 13.2399 16.6737 13.5507 16.5672 13.8937C16.4608 14.2368 16.4355 14.6019 16.4934 14.9575L17.3753 20.3476C17.3926 20.4502 17.382 20.5558 17.3448 20.6524C17.3076 20.749 17.2453 20.8327 17.1649 20.8939C17.0845 20.9551 16.9893 20.9914 16.8902 20.9987C16.7911 21.0059 16.6921 20.9838 16.6044 20.9348L11.9868 18.3887C11.6826 18.2211 11.344 18.1336 11.0004 18.1336C10.6567 18.1336 10.3182 18.2211 10.014 18.3887L5.3974 20.9348C5.30974 20.9835 5.21082 21.0054 5.11188 20.998C5.01294 20.9906 4.91796 20.9543 4.83775 20.8931C4.75753 20.8319 4.6953 20.7483 4.65813 20.6519C4.62095 20.5555 4.61033 20.45 4.62747 20.3476L5.50839 14.9585C5.56658 14.6027 5.54137 14.2375 5.43494 13.8942C5.3285 13.5509 5.14403 13.2399 4.89745 12.9881L1.16179 9.17415C1.09039 9.10182 1.03979 9.00992 1.01576 8.90891C0.991732 8.80791 0.995237 8.70185 1.02588 8.60283C1.05652 8.50381 1.11306 8.4158 1.18906 8.34884C1.26506 8.28187 1.35747 8.23864 1.45576 8.22407L6.62029 7.43233C6.96052 7.38042 7.28362 7.24259 7.56179 7.03068C7.83996 6.81878 8.06487 6.53916 8.21715 6.21589L10.5259 1.30924Z" stroke="black" stroke-width="2" stroke-linecap="round" stroke-linejoin="round"/>
</svg>
