<svg width="507" height="396" viewBox="0 0 507 396" fill="none" xmlns="http://www.w3.org/2000/svg">
<path d="M505.225 181.961C510.685 160.081 503.301 134.9 486.487 120.634C480.82 115.827 474.269 112.191 468.99 106.917C456.35 94.2892 460.486 76.9067 450.498 63.5578C417.864 19.9483 368.289 15.4492 326.219 34.4119C293.32 49.2408 258.305 51.6282 222.67 45.4247C195.619 40.7154 169.441 30.7758 142.133 28.165C120.65 26.111 97.3501 28.5787 81.7974 45.7655C74.808 53.4892 68.8187 62.4246 60.4288 68.4093C50.3405 75.6057 37.6101 77.916 27.7334 85.4305C15.3878 94.8231 9.24878 111.36 8.92435 127.379C8.59993 143.398 13.3981 159.052 19.3533 173.794C24.6744 186.966 31.0821 200.235 31.248 214.55C31.4809 234.621 19.5761 252.223 10.264 269.751C-1.41109 291.726 -4.37508 311.355 7.95476 332.978C18.3525 351.213 31.409 364.186 52.3422 367.367C96.0936 374.015 136.162 356.628 179.118 351.678C217.464 347.258 255.719 354.755 293.436 361.21C337.823 368.806 396.814 376.035 436.386 347.252C450.301 337.132 460.683 321.754 465.182 304.601C468.891 290.461 468.67 275.536 470.967 261.069C473.35 246.067 478.478 231.55 485.989 218.549C491.658 208.735 498.702 199.709 502.923 189.119C503.852 186.786 504.618 184.394 505.225 181.961Z" fill="url(#paint0_linear_22_714)"/>
<path d="M80.7649 30.2348C74.4315 65.9384 43.7383 273.939 181.614 306.229C181.614 306.229 227.655 168.794 84.5289 27.7431C83.2766 26.5093 81.1786 27.9023 80.7649 30.2348Z" fill="#91B3FA"/>
<path d="M91.9588 59.357C93.3206 69.5628 94.8536 79.75 96.46 89.9183C98.0706 100.087 99.7771 110.238 101.58 120.368C105.178 140.63 109.181 160.807 113.67 180.854C115.939 190.87 118.325 200.854 120.876 210.788C123.459 220.711 126.203 230.584 129.169 240.375C132.174 250.151 135.423 259.838 139.046 269.351C142.681 278.853 146.677 288.211 151.463 297.063C151.723 297.541 151.575 298.158 151.134 298.439C150.692 298.721 150.124 298.561 149.864 298.082L149.861 298.077C145.051 289.083 141.07 279.637 137.454 270.062C133.852 260.476 130.633 250.734 127.66 240.912C124.727 231.075 122.02 221.165 119.475 211.209C116.962 201.243 114.615 191.231 112.386 181.189C107.977 161.093 104.059 140.877 100.545 120.581C98.785 110.434 97.1211 100.268 95.5532 90.0842C93.9895 79.8989 92.5004 69.704 91.1804 59.4732C91.1504 59.2403 91.3001 59.0252 91.5151 58.9925C91.7301 58.9598 91.9286 59.1222 91.9586 59.3552L91.9588 59.357Z" fill="#DCE5FE"/>
<path d="M33.5205 162.982C33.4788 161.05 35.8599 160.341 36.7292 162.027C45.132 178.337 68.4022 220.355 94.0573 239.19C135.829 269.859 171.967 327.904 158.102 366.444C158.102 366.444 38.0524 373.43 33.5205 162.982Z" fill="#BDD0FB"/>
<path d="M42.8905 186.943C43.0316 187.34 43.2377 187.843 43.4211 188.305L44.0032 189.713L45.1973 192.518L47.6354 198.106C49.2877 201.818 50.9825 205.508 52.7081 209.18C56.146 216.532 59.696 223.821 63.384 231.026C70.7905 245.416 78.5288 259.609 86.9641 273.307C91.2086 280.133 95.4728 286.948 99.9987 293.557C104.524 300.164 109.191 306.658 114.085 312.946C123.828 325.557 134.451 337.393 146.215 347.834C146.375 347.974 146.401 348.228 146.272 348.402C146.147 348.571 145.919 348.599 145.759 348.473C139.635 343.528 133.86 338.086 128.309 332.396C122.799 326.655 117.604 320.574 112.562 314.353C102.611 301.784 93.4877 288.466 85.0853 274.654C80.8722 267.754 76.8711 260.709 72.9645 253.606C69.0621 246.501 65.3015 239.305 61.7385 231.995C58.1647 224.693 54.6883 217.335 51.4053 209.875C49.7716 206.141 48.1699 202.392 46.6111 198.621C45.8381 196.732 45.0643 194.844 44.319 192.941L43.2193 190.078L42.6836 188.639C42.5114 188.144 42.3349 187.701 42.1643 187.123C42.1023 186.912 42.2095 186.687 42.4036 186.62C42.5906 186.556 42.7899 186.661 42.8601 186.856L42.8905 186.943Z" fill="#DCE5FE"/>
<path d="M84.0764 336.625H166.975V322.849H84.0764C85.8509 322.849 85.8509 336.625 84.0764 336.625Z" fill="#BDD0FB"/>
<path d="M166.975 333.177V326.872C166.975 324.65 165.337 322.848 163.316 322.848H84.4261C82.8369 322.848 81.5485 321.779 81.5485 320.459C81.5485 320.058 81.9399 319.733 82.4229 319.733H168.644C170.621 319.733 173.761 322.315 173.761 325.499V334.304C173.761 337.305 170.713 339.739 168.849 339.739H82.8764C82.1431 339.739 81.5485 339.246 81.5485 338.637C81.5485 337.525 82.6337 336.624 83.9724 336.624H163.841C165.572 336.624 166.975 335.081 166.975 333.177Z" fill="url(#paint1_linear_22_714)"/>
<path d="M164.676 325.928H86.9474C86.8185 325.928 86.714 325.815 86.714 325.675C86.714 325.535 86.8185 325.422 86.9474 325.422H164.676C164.806 325.422 164.91 325.535 164.91 325.675C164.91 325.814 164.805 325.928 164.676 325.928Z" fill="#7D97F4"/>
<path d="M164.676 327.973H86.9474C86.8185 327.973 86.714 327.86 86.714 327.72C86.714 327.58 86.8185 327.467 86.9474 327.467H164.676C164.806 327.467 164.91 327.58 164.91 327.72C164.91 327.86 164.805 327.973 164.676 327.973Z" fill="#7D97F4"/>
<path d="M164.676 330.017H86.9474C86.8185 330.017 86.714 329.904 86.714 329.764C86.714 329.625 86.8185 329.511 86.9474 329.511H164.676C164.806 329.511 164.91 329.624 164.91 329.764C164.91 329.904 164.805 330.017 164.676 330.017Z" fill="#7D97F4"/>
<path d="M164.676 332.063H86.9474C86.8185 332.063 86.714 331.949 86.714 331.81C86.714 331.67 86.8185 331.557 86.9474 331.557H164.676C164.806 331.557 164.91 331.67 164.91 331.81C164.91 331.949 164.805 332.063 164.676 332.063Z" fill="#7D97F4"/>
<path d="M164.676 334.107H86.9474C86.8185 334.107 86.714 333.994 86.714 333.854C86.714 333.715 86.8185 333.601 86.9474 333.601H164.676C164.806 333.601 164.91 333.714 164.91 333.854C164.91 333.994 164.805 334.107 164.676 334.107Z" fill="#7D97F4"/>
<path d="M175.15 341.236V345.876C175.15 346.672 174.722 347.429 173.977 347.951L173.24 348.465C172.636 348.888 172.763 349.673 173.482 349.956C173.956 350.142 174.044 350.658 173.65 350.942L172.723 351.611C172.115 352.049 172.114 352.816 172.72 353.255L173.386 353.737C173.961 354.154 173.944 354.886 173.351 355.285L172.635 355.766C172.139 356.1 172.056 356.692 172.447 357.107L172.841 357.526C173.123 357.826 173.276 358.193 173.276 358.57V365.896H76.2294V340.796L175.15 341.236Z" fill="#BDD0FB"/>
<path d="M79.5912 346.609H171.748C171.949 346.609 172.111 346.477 172.111 346.315C172.111 346.152 171.949 346.021 171.748 346.021H79.5912C79.3902 346.021 79.2275 346.152 79.2275 346.315C79.2275 346.477 79.3902 346.609 79.5912 346.609Z" fill="#7D97F4"/>
<path d="M79.5912 350.978H169.567C169.768 350.978 169.93 350.847 169.93 350.684C169.93 350.522 169.767 350.391 169.567 350.391H79.5912C79.3902 350.391 79.2275 350.522 79.2275 350.684C79.2275 350.847 79.3902 350.978 79.5912 350.978Z" fill="#7D97F4"/>
<path d="M79.5912 354.195H168.448C168.649 354.195 168.812 354.063 168.812 353.901C168.812 353.738 168.649 353.607 168.448 353.607H79.5912C79.3902 353.607 79.2275 353.738 79.2275 353.901C79.2275 354.063 79.3902 354.195 79.5912 354.195Z" fill="#7D97F4"/>
<path d="M74.4692 339.195H177.272C178.055 339.195 178.755 339.658 178.829 340.288C178.915 341.011 178.214 341.62 177.337 341.62H82.0126C80.3385 341.62 78.8918 342.567 78.5441 343.891C76.9853 349.823 77.1031 355.999 78.5718 362.371C78.9124 363.849 80.5115 364.921 82.3709 364.921H175.389C176.172 364.921 176.872 365.383 176.946 366.014C177.031 366.737 176.33 367.345 175.453 367.345H75.1501C72.7523 367.345 70.687 365.961 70.2595 364.054C68.5274 356.323 68.3755 348.903 70.2583 341.882C70.6803 340.309 72.4215 339.195 74.4132 339.195L74.4692 339.195Z" fill="#7D97F4"/>
<path d="M407.459 107.318C413.868 132.743 445.586 282.348 321.363 339.814C321.363 339.814 277.081 247.147 404.004 106.342C405.114 105.11 407.04 105.657 407.459 107.318Z" fill="#91B3FA"/>
<path d="M398.578 131.985C397.537 140.334 396.338 148.65 395.072 156.958C393.803 165.264 392.446 173.555 390.998 181.828C388.105 198.373 384.87 214.851 381.168 231.213C377.455 247.569 373.3 263.822 368.331 279.802C365.87 287.799 363.14 295.705 360.133 303.491C357.116 311.271 353.811 318.938 349.948 326.301C349.72 326.736 349.209 326.888 348.808 326.64C348.406 326.393 348.266 325.84 348.494 325.405L348.496 325.401L348.498 325.397C352.35 318.143 355.669 310.552 358.704 302.836C361.73 295.113 364.485 287.258 366.976 279.302C372.003 263.406 376.228 247.21 380.012 230.902C383.786 214.588 387.097 198.146 390.066 181.634C391.551 173.377 392.947 165.101 394.255 156.809C395.559 148.517 396.798 140.208 397.876 131.883L397.877 131.88C397.904 131.67 398.083 131.524 398.277 131.553C398.47 131.583 398.604 131.776 398.578 131.985Z" fill="#DCE5FE"/>
<path d="M354.143 365.355C354.143 365.355 351.103 335.16 375.421 300.728C397.984 268.781 453.936 194.343 464.288 156.039C464.746 154.343 467.002 154.506 467.229 156.257C469.668 175.038 472.365 222.595 448.01 273.689C416.603 339.579 354.143 365.355 354.143 365.355Z" fill="#BDD0FB"/>
<path d="M458.211 191.135C458.212 195.331 457.73 199.513 457.038 203.64C456.954 204.157 456.879 204.676 456.788 205.191L456.485 206.731L455.876 209.811L455.15 212.861C454.899 213.875 454.687 214.903 454.379 215.899C452.167 223.95 449.347 231.818 445.907 239.356C445.118 241.279 444.146 243.101 443.239 244.96L441.862 247.738C441.626 248.198 441.415 248.673 441.16 249.12L440.41 250.47L437.408 255.875C436.926 256.789 436.358 257.642 435.821 258.517L434.192 261.131L432.564 263.744L431.745 265.048L430.873 266.31L427.383 271.356C426.796 272.192 426.232 273.051 425.625 273.867L423.808 276.318L420.173 281.219L416.488 286.076C415.255 287.691 414.037 289.319 412.782 290.914C410.293 294.123 407.787 297.315 405.249 300.477C402.729 303.657 400.163 306.791 397.612 309.94L389.872 319.297C384.707 325.527 379.534 331.744 374.561 338.134C373.298 339.715 372.11 341.357 370.895 342.979C370.278 343.783 369.714 344.627 369.131 345.458C368.557 346.295 367.96 347.117 367.404 347.967C366.325 349.692 365.185 351.378 364.22 353.181L363.464 354.513C363.342 354.737 363.206 354.954 363.093 355.183L362.758 355.875L361.419 358.644L361.413 358.655C361.36 358.766 361.233 358.808 361.131 358.75C361.032 358.694 360.992 358.564 361.037 358.456C362.643 354.622 364.622 350.988 366.8 347.509C367.343 346.638 367.924 345.799 368.485 344.941C369.053 344.091 369.605 343.225 370.207 342.403C371.393 340.744 372.554 339.061 373.788 337.445L375.616 334.999C376.231 334.189 376.862 333.396 377.485 332.594L379.36 330.193L381.255 327.813C383.778 324.636 386.332 321.493 388.874 318.339C393.962 312.035 399.05 305.738 404.072 299.381C409.101 293.03 414.035 286.595 418.922 280.118L422.546 275.225L424.358 272.778C424.962 271.963 425.526 271.12 426.112 270.293L429.598 265.306L430.47 264.059L431.287 262.771L432.914 260.188C437.336 253.359 441.215 246.135 444.74 238.727C448.293 231.327 451.237 223.584 453.585 215.637C453.91 214.653 454.136 213.638 454.42 212.641L455.231 209.635L455.926 206.596L456.273 205.075C456.38 204.565 456.469 204.053 456.568 203.541C456.754 202.517 456.969 201.498 457.131 200.468L457.595 197.374C457.843 195.304 458.108 193.227 458.16 191.135C458.16 191.119 458.171 191.107 458.185 191.106C458.199 191.106 458.21 191.119 458.211 191.135Z" fill="#DCE5FE"/>
<path d="M156.113 39.5755L335.995 41.7218C345.939 41.8404 353.738 51.136 353.731 62.8151L353.572 351.726C353.567 359.809 347.528 366.512 340.243 366.547L147.391 367.469C140.587 367.502 135.005 361.336 135.005 353.765V64.218C135.005 50.4997 144.454 39.4365 156.113 39.5755Z" fill="url(#paint2_linear_22_714)"/>
<path d="M320.998 67.2715H169.795C163.454 67.2715 158.36 72.9334 158.36 79.6257V318.066C158.36 324.759 163.454 329.947 169.795 329.947H320.998C327.339 329.947 332.526 324.759 332.526 318.066V79.6257C332.526 72.9334 327.339 67.2715 320.998 67.2715Z" fill="url(#paint3_linear_22_714)"/>
<path d="M300.081 22.2012L295.961 39.0628C295.402 41.3516 295.783 43.7909 297.013 45.7479C300.103 50.6621 307.622 59.5111 323.406 63.872C339.437 68.301 348.432 63.4173 352.291 60.2263C353.688 59.071 354.695 57.4515 355.16 55.6149L359.677 37.7559L300.081 22.2012Z" fill="url(#paint4_linear_22_714)"/>
<path d="M333.913 0.131918L289.303 14.2907C287.006 15.0198 286.388 18.2292 288.225 19.8913C297.187 27.9989 317.56 46.8898 325.318 57.9135C326.148 59.0927 327.613 59.5062 328.871 58.9228L373.936 38.0305C375.975 37.0855 376.391 34.1514 374.708 32.5879C365.83 24.3428 343.242 3.7034 335.935 0.263534C335.296 -0.0369253 334.581 -0.0799987 333.913 0.131918Z" fill="url(#paint5_linear_22_714)"/>
<path d="M333.218 25.1968C333.218 25.1968 357.258 41.1985 359.117 44.9011C360.976 48.6036 357.501 65.5873 357.501 65.5873C361.414 79.874 362.14 95.4333 355.884 103.658C355.884 103.658 347.855 84.9079 351.263 76.9178C354.671 68.9277 355.982 65.6535 355.982 65.6535C355.982 65.6535 358.842 47.5592 357.847 44.9904C357.847 44.9904 331.204 26.2553 333.218 25.1968Z" fill="#7D97F4"/>
<path d="M295.375 18.7113L318.549 42.8994L324.343 48.9463L325.791 50.4582L326.514 51.2101C326.74 51.4449 326.994 51.6446 327.261 51.8198C328.336 52.5173 329.698 52.6683 330.886 52.1993L346.08 46.4666C346.2 46.4214 346.331 46.49 346.373 46.6198C346.414 46.7492 346.352 46.8904 346.233 46.9364L331.08 52.7935C329.745 53.3333 328.184 53.1799 326.951 52.3912C326.643 52.1937 326.351 51.9663 326.09 51.7002L325.357 50.9493L323.898 49.4494L318.063 43.45L294.72 19.4529C294.53 19.2577 294.522 18.9328 294.703 18.727C294.883 18.5212 295.183 18.5127 295.373 18.7079L295.375 18.7113Z" fill="#BDD0FB"/>
<path d="M355.849 74.3196L355.805 74.3723L355.752 74.4409L355.647 74.5799L355.444 74.883C355.31 75.0875 355.193 75.3119 355.067 75.5252L354.734 76.2069C354.631 76.4393 354.541 76.6799 354.443 76.9161C354.34 77.1498 354.265 77.3973 354.186 77.6433C354.108 77.8898 354.022 78.1331 353.951 78.3822L353.764 79.14C353.704 79.3934 353.631 79.6433 353.595 79.9036L353.461 80.6779C353.418 80.9366 353.363 81.193 353.345 81.4562C353.294 81.98 353.234 82.5033 353.189 83.0287L353.136 84.6137C353.133 84.7458 353.124 84.878 353.125 85.0104L353.138 85.4074L353.164 86.2019C353.167 87.2638 353.313 88.3176 353.403 89.3761C353.422 89.6415 353.465 89.9034 353.507 90.1658L353.63 90.9531C353.715 91.4777 353.79 92.0044 353.882 92.5277C354.11 93.5644 354.319 94.6081 354.563 95.6419L355.4 98.7164L355.402 98.7257C355.428 98.8204 355.378 98.9195 355.291 98.9475C355.205 98.9748 355.115 98.9227 355.087 98.831L354.172 95.7613C353.9 94.7269 353.664 93.6801 353.409 92.6389C353.303 92.1127 353.214 91.5819 353.116 91.0531L352.972 90.2589C352.923 89.9943 352.873 89.73 352.848 89.4609C352.73 88.3886 352.557 87.3213 352.526 86.2367L352.481 85.4254L352.458 85.0197C352.454 84.8844 352.459 84.7485 352.459 84.6129L352.474 82.9835C352.508 82.4408 352.556 81.8984 352.596 81.3551C352.609 81.0826 352.66 80.8143 352.697 80.5442L352.817 79.7345C352.849 79.4628 352.919 79.1985 352.975 78.9313L353.153 78.1307C353.221 77.8658 353.305 77.6055 353.381 77.3425C353.459 77.0798 353.533 76.8161 353.636 76.5622C353.735 76.3064 353.825 76.0474 353.93 75.794L354.273 75.0444C354.407 74.803 354.529 74.5563 354.675 74.3191L354.899 73.9652L355.025 73.7902L355.089 73.7022L355.168 73.6052C355.341 73.3924 355.641 73.372 355.837 73.5592C356.033 73.7463 356.052 74.071 355.879 74.2837C355.878 74.2858 355.876 74.288 355.874 74.2901L355.849 74.3196Z" fill="#BDD0FB"/>
<path d="M356.651 80.9822L356.661 81.991L356.681 83.1282L356.734 85.4069L356.856 89.967L357.125 99.0885C357.13 99.2427 357.019 99.3716 356.877 99.3772C356.737 99.3825 356.619 99.2648 356.61 99.1145L356.125 90.0013L355.895 85.4431L355.788 83.1617L355.74 82.0186L355.721 81.4424L355.713 81.1526C355.712 81.0279 355.718 80.8803 355.728 80.7466C355.749 80.4717 355.971 80.2669 356.225 80.2893C356.464 80.3103 356.645 80.5251 356.649 80.7796L356.651 80.9822Z" fill="#BDD0FB"/>
<path d="M375.789 256.358C375.599 256.358 375.413 256.271 375.282 256.111L373.76 254.247C372.682 254.412 371.595 254.412 370.521 254.248L368.999 256.11C368.807 256.344 368.499 256.421 368.233 256.301L365.405 255.031C365.139 254.912 364.971 254.621 364.989 254.309L365.128 251.827C364.262 251.12 363.493 250.287 362.839 249.344L360.546 249.494C360.255 249.516 359.991 249.332 359.881 249.044L358.709 245.979C358.599 245.69 358.67 245.357 358.886 245.15L360.606 243.5C360.454 242.332 360.454 241.154 360.605 239.99L358.887 238.341C358.671 238.134 358.6 237.801 358.71 237.512L359.882 234.448C359.993 234.159 360.259 233.977 360.549 233.997L362.84 234.148C363.493 233.209 364.262 232.376 365.132 231.667L364.993 229.183C364.975 228.871 365.142 228.581 365.409 228.461L368.237 227.193C368.504 227.073 368.812 227.15 369.003 227.384L370.525 229.248C371.603 229.083 372.69 229.083 373.765 229.247L375.287 227.385C375.479 227.15 375.787 227.074 376.053 227.194L378.88 228.464C379.146 228.583 379.314 228.873 379.296 229.185L379.157 231.668C380.023 232.375 380.792 233.208 381.446 234.151L383.739 234.001C384.029 233.981 384.295 234.163 384.405 234.452L385.576 237.516C385.686 237.805 385.615 238.138 385.399 238.345L383.679 239.995C383.831 241.163 383.831 242.341 383.68 243.505L385.398 245.154C385.614 245.362 385.685 245.695 385.575 245.984L384.403 249.047C384.293 249.336 384.026 249.518 383.737 249.498L381.446 249.347C380.793 250.286 380.024 251.119 379.154 251.828L379.293 254.312C379.31 254.625 379.143 254.914 378.876 255.034L376.048 256.302C375.964 256.34 375.876 256.358 375.789 256.358ZM374.12 253.161L375.86 255.291L378.349 254.175L378.19 251.335L378.4 251.172C379.344 250.438 380.165 249.549 380.84 248.53L380.991 248.303L383.61 248.476L384.642 245.78L382.677 243.894L382.719 243.619C382.906 242.381 382.906 241.124 382.718 239.881L382.676 239.605L384.643 237.719L383.612 235.023L380.991 235.195L380.841 234.968C380.163 233.945 379.343 233.055 378.402 232.324L378.193 232.161L378.353 229.323L375.864 228.205L374.124 230.334L373.87 230.289C372.727 230.085 371.567 230.085 370.42 230.289L370.165 230.335L368.425 228.204L365.936 229.321L366.095 232.161L365.886 232.324C364.941 233.058 364.12 233.947 363.445 234.965L363.294 235.192L360.675 235.019L359.644 237.716L361.608 239.601L361.566 239.877C361.379 241.114 361.379 242.372 361.567 243.615L361.609 243.89L359.643 245.776L360.673 248.473L363.294 248.301L363.445 248.528C364.123 249.551 364.943 250.44 365.883 251.172L366.092 251.335L365.933 254.173L368.421 255.291L370.161 253.162L370.416 253.207C371.558 253.41 372.719 253.41 373.866 253.206L374.12 253.161ZM375.694 228.129C375.694 228.13 375.695 228.13 375.695 228.13L375.694 228.129ZM370.804 250.061C370.776 250.061 370.748 250.059 370.719 250.053C370.174 249.945 369.634 249.773 369.117 249.54C367.179 248.67 365.67 247.035 364.867 244.935C364.065 242.835 364.065 240.523 364.868 238.423C365.671 236.324 367.181 234.689 369.118 233.819C371.057 232.95 373.191 232.95 375.128 233.821C379.128 235.616 381.034 240.603 379.377 244.937C378.832 246.362 377.942 247.598 376.805 248.512C376.597 248.678 376.305 248.632 376.151 248.406C375.998 248.182 376.041 247.865 376.248 247.699C377.25 246.894 378.034 245.805 378.514 244.55C379.974 240.731 378.295 236.338 374.771 234.755C373.064 233.989 371.183 233.989 369.476 234.754C367.769 235.52 366.439 236.961 365.731 238.811C365.024 240.66 365.023 242.698 365.73 244.548C366.437 246.398 367.767 247.839 369.474 248.605C369.931 248.81 370.406 248.962 370.887 249.057C371.141 249.108 371.309 249.371 371.263 249.646C371.222 249.89 371.025 250.061 370.804 250.061Z" fill="#7D97F4"/>
<path d="M372.136 245.199C371.455 245.199 370.796 244.963 370.24 244.515C368.832 243.378 368.539 241.213 369.588 239.687C370.096 238.947 370.84 238.467 371.682 238.333C372.522 238.201 373.363 238.43 374.045 238.98C375.453 240.116 375.745 242.282 374.697 243.808C374.189 244.548 373.445 245.028 372.604 245.162C372.447 245.187 372.291 245.199 372.136 245.199ZM372.147 239.308C372.037 239.308 371.927 239.317 371.816 239.335C371.221 239.429 370.696 239.769 370.337 240.291C369.596 241.37 369.802 242.9 370.798 243.703C371.28 244.092 371.873 244.255 372.468 244.161C373.063 244.066 373.588 243.727 373.947 243.204C374.688 242.126 374.482 240.595 373.487 239.792C373.094 239.475 372.628 239.308 372.147 239.308Z" fill="#7D97F4"/>
<path d="M262.436 324.852H229.679C225.815 324.852 222.682 321.458 222.682 317.271V281.78C222.682 277.593 225.815 274.198 229.679 274.198H262.436C266.3 274.198 269.433 277.593 269.433 281.78V317.271C269.433 321.458 266.3 324.852 262.436 324.852Z" fill="#BDD0FB"/>
<path d="M252.974 289.03C252.974 293.147 249.894 297.591 246.094 297.591C242.294 297.591 239.214 293.147 239.214 289.03C239.214 284.913 242.294 281.992 246.094 281.992C249.894 281.992 252.974 284.913 252.974 289.03Z" fill="url(#paint6_linear_22_714)"/>
<path d="M237.556 313.442H254.352C256.119 313.442 257.685 312.204 258.224 310.38L259.127 307.319C259.789 305.078 258.713 302.652 256.674 301.844C249.839 299.136 242.771 299.484 235.531 302.094C233.502 302.825 232.377 305.176 232.936 307.411L233.632 310.191C234.113 312.11 235.72 313.442 237.556 313.442Z" fill="url(#paint7_linear_22_714)"/>
<path d="M313.952 94.286H178.121C175.403 94.286 173.201 91.8994 173.201 88.9551V82.9007C173.201 79.9565 175.403 77.5698 178.121 77.5698H313.952C316.669 77.5698 318.872 79.9565 318.872 82.9007V88.9551C318.872 91.8991 316.669 94.286 313.952 94.286Z" fill="#BDD0FB"/>
<path d="M316.033 86.9266C316.539 82.5558 313.737 78.5765 309.776 78.0386C305.815 77.5007 302.194 80.6076 301.688 84.9784C301.424 87.2624 302.064 89.4382 303.3 91.0735L295.925 97.2204C295.459 97.6267 295.411 98.3767 295.821 98.8487L295.888 98.9261C296.251 99.3435 296.858 99.3614 297.241 98.9657L303.941 91.8174C305.009 92.9087 306.387 93.6547 307.945 93.8664C311.906 94.4046 315.528 91.2973 316.033 86.9266ZM308.19 91.7496C305.289 91.3556 303.237 88.4406 303.607 85.239C303.977 82.0373 306.63 79.7613 309.532 80.1553C312.433 80.5494 314.485 83.4644 314.115 86.666C313.744 89.8676 311.092 92.1437 308.19 91.7496Z" fill="url(#paint8_linear_22_714)"/>
<path d="M315.617 208.641H282.861C278.996 208.641 275.863 205.247 275.863 201.06V165.569C275.863 161.382 278.996 157.987 282.861 157.987H315.617C319.481 157.987 322.614 161.382 322.614 165.569V201.06C322.614 205.247 319.482 208.641 315.617 208.641Z" fill="#BDD0FB"/>
<path d="M289.857 171.189H284.646C284.486 171.189 284.355 171.047 284.355 170.873V168.446C284.355 168.273 284.486 168.13 284.646 168.13H289.857C290.017 168.13 290.149 168.272 290.149 168.446V170.873C290.148 171.047 290.017 171.189 289.857 171.189Z" fill="url(#paint9_linear_22_714)"/>
<path d="M301.809 167.729H297.279L296.165 171.189H302.775L301.809 167.729ZM297.911 168.469H301.134L301.821 170.931H297.119L297.911 168.469Z" fill="url(#paint10_linear_22_714)"/>
<path d="M315.808 195.278H282.314C282.156 195.278 282.028 195.139 282.028 194.968V170.48C282.028 170.308 282.156 170.169 282.314 170.169H315.808C315.967 170.169 316.095 170.308 316.095 170.48V194.968C316.095 195.139 315.967 195.278 315.808 195.278Z" fill="url(#paint11_linear_22_714)"/>
<path opacity="0.5" d="M301.512 189.364C304.898 187.844 306.505 183.638 305.103 179.97C303.7 176.302 299.819 174.56 296.433 176.079C293.048 177.599 291.44 181.804 292.842 185.473C294.245 189.141 298.126 190.883 301.512 189.364Z" fill="white"/>
<path d="M299.061 188.679C302.097 188.679 304.558 186.013 304.558 182.724C304.558 179.435 302.097 176.769 299.061 176.769C296.026 176.769 293.565 179.435 293.565 182.724C293.565 186.013 296.026 188.679 299.061 188.679Z" fill="url(#paint12_linear_22_714)"/>
<path opacity="0.5" d="M288.571 173.764H284.447C284.397 173.764 284.355 173.719 284.355 173.664V172.898C284.355 172.843 284.397 172.798 284.447 172.798H288.571C288.621 172.798 288.663 172.843 288.663 172.898V173.664C288.663 173.719 288.621 173.764 288.571 173.764Z" fill="white"/>
<path opacity="0.5" d="M313.007 173.281H308.883C308.833 173.281 308.791 173.236 308.791 173.181V172.415C308.791 172.36 308.833 172.315 308.883 172.315H313.007C313.058 172.315 313.099 172.36 313.099 172.415V173.181C313.099 173.236 313.058 173.281 313.007 173.281Z" fill="white"/>
<path d="M206.142 324.192H173.386C169.522 324.192 166.389 320.797 166.389 316.61V281.119C166.389 276.932 169.522 273.538 173.386 273.538H206.142C210.007 273.538 213.139 276.932 213.139 281.119V316.61C213.139 320.797 210.007 324.192 206.142 324.192Z" fill="#BDD0FB"/>
<path d="M178.11 291.369C179.878 305.264 186.425 311.775 195.288 314.709L200.404 310.253C191.085 306.167 184.541 298.907 181.765 287.338L178.11 291.369Z" fill="url(#paint13_linear_22_714)"/>
<path d="M194.977 314.602C200.373 315.562 201.015 315.618 205.429 312.446C205.923 312.091 205.972 311.317 205.52 310.9L197.723 303.695C197.418 303.414 196.949 303.527 196.784 303.922L195.499 306.999L194.977 314.602Z" fill="url(#paint14_linear_22_714)"/>
<path d="M177.926 291.71C177.393 286.368 177.484 285.562 180.532 281.117C180.885 280.601 181.602 280.591 181.962 281.101L188.186 289.922C188.429 290.267 188.299 290.768 187.926 290.925L185.022 292.152L178.539 292.298C178.226 292.305 177.96 292.047 177.926 291.71Z" fill="url(#paint15_linear_22_714)"/>
<path d="M260.855 152.153H228.098C224.234 152.153 221.101 148.758 221.101 144.571V109.08C221.101 104.893 224.234 101.499 228.098 101.499H260.855C264.719 101.499 267.852 104.893 267.852 109.08V144.571C267.852 148.758 264.719 152.153 260.855 152.153Z" fill="#BDD0FB"/>
<path d="M265.658 128.195C265.194 139.651 255.566 148.498 244.153 147.955C232.74 147.412 223.865 137.685 224.329 126.229C224.793 114.773 234.421 105.926 245.834 106.469C257.247 107.012 266.122 116.739 265.658 128.195Z" fill="url(#paint16_linear_22_714)"/>
<path opacity="0.16" d="M243.874 142.327C252.838 142.327 260.105 134.889 260.105 125.714C260.105 116.539 252.838 109.101 243.874 109.101C234.91 109.101 227.643 116.539 227.643 125.714C227.643 134.889 234.91 142.327 243.874 142.327Z" fill="white"/>
<g opacity="0.68">
<path d="M250.361 127.312C250.358 129.146 250.297 130.98 250.164 132.809C250.028 134.637 249.817 136.46 249.516 138.267C249.206 140.071 248.813 141.866 248.22 143.594C247.919 144.455 247.57 145.304 247.097 146.082C246.856 146.468 246.587 146.84 246.25 147.146C246.082 147.298 245.897 147.434 245.692 147.534C245.488 147.633 245.263 147.693 245.036 147.698C244.809 147.706 244.582 147.658 244.374 147.567C244.165 147.477 243.975 147.349 243.803 147.201C243.459 146.903 243.179 146.538 242.938 146.154C242.455 145.382 242.102 144.534 241.798 143.674C241.197 141.949 240.802 140.155 240.49 138.351C239.879 134.738 239.627 131.066 239.596 127.398C239.598 125.564 239.673 123.731 239.802 121.902C239.933 120.074 240.126 118.25 240.41 116.441C240.698 114.634 241.065 112.835 241.633 111.1C241.922 110.237 242.259 109.384 242.726 108.607C242.961 108.221 243.233 107.854 243.57 107.558C243.739 107.411 243.926 107.285 244.13 107.198C244.333 107.109 244.555 107.065 244.775 107.076C244.994 107.084 245.212 107.14 245.412 107.234C245.612 107.329 245.795 107.459 245.964 107.605C246.301 107.899 246.577 108.259 246.825 108.635C247.315 109.394 247.685 110.23 248.006 111.081C248.639 112.789 249.068 114.573 249.409 116.37C249.742 118.169 249.976 119.989 250.131 121.816C250.281 123.643 250.354 125.478 250.361 127.312ZM249.944 127.312C249.948 125.49 249.888 123.667 249.75 121.851C249.616 120.035 249.414 118.224 249.108 116.433C248.801 114.643 248.404 112.865 247.807 111.166C247.504 110.32 247.153 109.489 246.687 108.738C246.451 108.367 246.188 108.013 245.872 107.726C245.558 107.441 245.178 107.223 244.77 107.209C244.362 107.192 243.974 107.397 243.662 107.68C243.347 107.967 243.089 108.326 242.867 108.706C242.424 109.472 242.106 110.319 241.835 111.177C241.303 112.902 240.968 114.695 240.712 116.494C240.212 120.1 240.057 123.754 240.074 127.398C240.061 131.04 240.269 134.693 240.832 138.285C241.121 140.077 241.491 141.861 242.063 143.567C242.351 144.416 242.689 145.252 243.145 146.002C243.373 146.375 243.636 146.724 243.949 147.002C244.26 147.277 244.637 147.475 245.03 147.459C245.225 147.451 245.417 147.397 245.596 147.307C245.776 147.217 245.942 147.092 246.096 146.949C246.404 146.663 246.657 146.305 246.883 145.931C247.33 145.174 247.664 144.337 247.949 143.486C248.512 141.777 248.88 139.993 249.165 138.2C249.448 136.405 249.634 134.592 249.759 132.775C249.887 130.958 249.945 129.135 249.944 127.312Z" fill="white"/>
<path d="M258.9 127.312C258.886 129.679 258.602 132.047 258.015 134.329C257.415 136.606 256.511 138.793 255.288 140.757C254.067 142.716 252.512 144.452 250.657 145.711C249.73 146.339 248.729 146.841 247.682 147.181C246.635 147.522 245.542 147.7 244.448 147.7C242.258 147.704 240.09 146.971 238.235 145.72C236.376 144.464 234.817 142.728 233.591 140.769C232.364 138.806 231.457 136.616 230.852 134.338C230.556 133.197 230.334 132.032 230.188 130.857C230.043 129.682 229.97 128.497 229.965 127.312C229.971 126.126 230.046 124.941 230.191 123.767C230.338 122.592 230.562 121.429 230.859 120.288C231.466 118.011 232.376 115.824 233.604 113.864C234.831 111.908 236.39 110.176 238.247 108.924C240.099 107.676 242.262 106.945 244.448 106.95C246.635 106.948 248.796 107.683 250.644 108.933C252.498 110.187 254.053 111.92 255.275 113.876C256.499 115.836 257.405 118.022 258.009 120.296C258.605 122.576 258.888 124.945 258.9 127.312ZM258.422 127.312C258.42 126.15 258.352 124.989 258.214 123.837C258.077 122.686 257.875 121.542 257.595 120.421C257.034 118.18 256.184 116.015 255.012 114.066C253.84 112.123 252.343 110.386 250.534 109.124C249.627 108.501 248.649 107.998 247.622 107.659C246.595 107.32 245.523 107.141 244.449 107.136C243.375 107.142 242.303 107.323 241.277 107.663C240.251 108.004 239.274 108.509 238.369 109.133C236.563 110.397 235.07 112.136 233.903 114.079C232.734 116.027 231.889 118.191 231.331 120.429C231.051 121.549 230.851 122.691 230.714 123.841C230.577 124.992 230.51 126.151 230.508 127.311C230.511 128.471 230.579 129.631 230.718 130.781C230.856 131.931 231.057 133.072 231.338 134.192C231.899 136.428 232.746 138.59 233.916 140.535C235.084 142.475 236.577 144.21 238.381 145.47C239.284 146.093 240.26 146.596 241.284 146.936C242.308 147.275 243.377 147.455 244.448 147.461C245.52 147.455 246.589 147.275 247.613 146.935C248.637 146.596 249.615 146.099 250.521 145.478C252.329 144.222 253.826 142.487 254.998 140.547C256.173 138.602 257.023 136.439 257.589 134.201C258.153 131.96 258.419 129.635 258.422 127.312Z" fill="white"/>
<path d="M227.697 119.25C229.134 119.221 230.571 119.208 232.008 119.187L236.319 119.152C237.756 119.136 239.193 119.138 240.63 119.133L244.941 119.123L249.252 119.135C250.689 119.142 252.126 119.138 253.563 119.154L257.874 119.193C259.311 119.216 260.748 119.23 262.185 119.261C262.197 119.261 262.206 119.271 262.206 119.284C262.206 119.296 262.197 119.306 262.185 119.307C260.748 119.338 259.311 119.351 257.874 119.374L253.563 119.413C252.126 119.43 250.689 119.426 249.252 119.433L244.941 119.445L240.63 119.434C239.193 119.43 237.756 119.432 236.319 119.416L232.008 119.38C230.571 119.359 229.134 119.347 227.697 119.317C227.68 119.317 227.666 119.301 227.666 119.283C227.667 119.265 227.68 119.25 227.697 119.25Z" fill="white"/>
<path d="M232.699 111.426C233.719 111.397 234.739 111.385 235.759 111.364L238.82 111.328C240.86 111.304 242.901 111.301 244.942 111.299C246.982 111.301 249.023 111.307 251.063 111.331L254.124 111.37C255.144 111.393 256.164 111.407 257.184 111.438C257.196 111.438 257.205 111.449 257.205 111.461C257.204 111.473 257.195 111.483 257.184 111.483C256.164 111.514 255.144 111.528 254.124 111.551L251.063 111.59C249.022 111.614 246.982 111.62 244.942 111.622C242.901 111.62 240.86 111.617 238.82 111.593L235.759 111.557C234.739 111.536 233.719 111.523 232.699 111.494C232.681 111.494 232.667 111.478 232.668 111.459C232.668 111.441 232.682 111.427 232.699 111.426Z" fill="white"/>
<path d="M226.199 127.074C227.761 127.045 229.323 127.032 230.885 127.011L235.57 126.975C237.132 126.96 238.694 126.962 240.256 126.957L244.942 126.946L249.628 126.958C251.19 126.965 252.751 126.961 254.313 126.978L258.999 127.017C260.561 127.04 262.123 127.053 263.685 127.085C263.696 127.085 263.706 127.095 263.706 127.108C263.705 127.12 263.696 127.13 263.685 127.13C262.123 127.162 260.561 127.175 258.999 127.198L254.313 127.237C252.751 127.253 251.19 127.249 249.628 127.257L244.942 127.269L240.256 127.258C238.694 127.253 237.132 127.255 235.57 127.24L230.885 127.204C229.323 127.183 227.761 127.17 226.199 127.141C226.182 127.141 226.168 127.126 226.168 127.107C226.168 127.089 226.182 127.074 226.199 127.074Z" fill="white"/>
<path d="M227.697 134.897C229.134 134.868 230.571 134.855 232.008 134.834L236.319 134.799C237.756 134.783 239.193 134.785 240.63 134.78L244.941 134.77L249.252 134.781C250.689 134.789 252.126 134.785 253.563 134.801L257.874 134.84C259.311 134.863 260.748 134.877 262.185 134.908C262.197 134.908 262.206 134.918 262.206 134.931C262.206 134.943 262.197 134.953 262.185 134.954C260.748 134.985 259.311 134.998 257.874 135.021L253.563 135.06C252.126 135.077 250.689 135.073 249.252 135.08L244.941 135.092L240.63 135.081C239.193 135.076 237.756 135.078 236.319 135.063L232.008 135.027C230.571 135.006 229.134 134.993 227.697 134.964C227.68 134.964 227.666 134.948 227.666 134.93C227.667 134.912 227.68 134.898 227.697 134.897Z" fill="white"/>
<path d="M257.801 142.874H233.315C233.255 142.874 233.205 142.821 233.205 142.755C233.205 142.689 233.255 142.635 233.315 142.635H257.801C257.862 142.635 257.912 142.689 257.912 142.755C257.911 142.821 257.862 142.874 257.801 142.874Z" fill="white"/>
</g>
<path d="M207.378 152.025H174.622C170.758 152.025 167.625 148.63 167.625 144.443V108.953C167.625 104.765 170.758 101.371 174.622 101.371H207.379C211.243 101.371 214.376 104.765 214.376 108.953V144.444C214.375 148.631 211.243 152.025 207.378 152.025Z" fill="#BDD0FB"/>
<path d="M191.174 133.034C198.041 133.034 203.608 127.003 203.608 119.562C203.608 112.122 198.041 106.09 191.174 106.09C184.307 106.09 178.74 112.122 178.74 119.562C178.74 127.003 184.307 133.034 191.174 133.034Z" fill="url(#paint17_linear_22_714)"/>
<path d="M203.585 118.84H191.174H178.74C178.74 118.84 177.75 126.317 188.847 146.799C189.332 147.692 190.216 148.226 191.173 148.227C192.129 148.227 193.015 147.702 193.499 146.809C204.595 126.326 203.585 118.84 203.585 118.84Z" fill="url(#paint18_linear_22_714)"/>
<path d="M191.169 148.664V148.74H191.173C190.09 148.74 189.08 148.095 188.536 147.091C182.05 135.119 179.673 127.549 178.821 123.314C178.579 122.34 178.439 121.384 178.395 120.405C178.32 119.403 178.377 118.981 178.384 118.936L178.417 118.721C178.918 111.484 184.477 105.852 191.174 105.852C197.96 105.852 203.569 111.564 203.948 118.858C203.958 118.954 203.976 119.196 203.969 119.601L203.969 119.651C203.969 120.974 203.797 122.285 203.456 123.546C202.575 127.778 200.184 135.273 193.808 147.043C193.261 148.054 192.287 148.664 191.169 148.664ZM179.079 119.446C179.077 119.648 179.082 119.937 179.115 120.371L179.116 120.37C179.157 121.298 179.289 122.191 179.52 123.115L179.524 123.131C180.363 127.309 182.715 134.784 189.159 146.676C189.573 147.442 190.342 147.916 191.17 147.917L191.168 148.307V147.916C191.914 147.916 192.767 147.436 193.185 146.665C199.52 134.97 201.885 127.538 202.753 123.362L202.759 123.338C203.082 122.144 203.174 120.903 203.174 119.651L203.102 119.596V119.591C203.102 119.201 203.162 118.99 203.157 118.935L203.191 118.912C202.838 112.027 197.562 106.634 191.156 106.634C184.762 106.634 179.477 112.103 179.113 119.049L179.103 119.446H179.079Z" fill="url(#paint19_linear_22_714)"/>
<path opacity="0.5" d="M191.214 127.298C195.179 127.298 198.394 123.815 198.394 119.519C198.394 115.223 195.179 111.74 191.214 111.74C187.249 111.74 184.035 115.223 184.035 119.519C184.035 123.815 187.249 127.298 191.214 127.298Z" fill="white"/>
<path d="M191.214 127.733C187.034 127.733 183.634 124.048 183.634 119.519C183.634 114.99 187.034 111.305 191.214 111.305C195.394 111.305 198.795 114.99 198.795 119.519C198.795 124.048 195.394 127.733 191.214 127.733ZM191.214 112.174C187.477 112.174 184.436 115.469 184.436 119.519C184.436 123.569 187.477 126.863 191.214 126.863C194.952 126.863 197.993 123.569 197.993 119.519C197.993 115.469 194.952 112.174 191.214 112.174Z" fill="url(#paint20_linear_22_714)"/>
<path opacity="0.5" d="M184.404 111.419C184.37 111.419 184.336 111.404 184.313 111.374C184.269 111.319 184.275 111.237 184.326 111.19C186.343 109.313 188.919 108.28 191.581 108.28C191.648 108.28 191.702 108.338 191.702 108.41C191.702 108.482 191.648 108.54 191.581 108.54C188.977 108.54 186.456 109.552 184.482 111.388C184.459 111.409 184.432 111.419 184.404 111.419Z" fill="white"/>
<path opacity="0.5" d="M180.559 120.483C180.492 120.483 180.439 120.425 180.439 120.353C180.439 118.1 181.015 115.903 182.106 113.998C182.141 113.937 182.215 113.918 182.271 113.956C182.328 113.994 182.345 114.074 182.31 114.136C181.243 115.999 180.679 118.149 180.679 120.353C180.679 120.425 180.625 120.483 180.559 120.483Z" fill="white"/>
<path d="M301.721 333.871L418.078 333.871V313.396L301.721 313.396C304.211 313.396 304.211 333.871 301.721 333.871Z" fill="#BDD0FB"/>
<path d="M418.078 328.747V319.377C418.078 316.073 415.778 313.396 412.942 313.396H302.211C299.981 313.396 298.173 311.806 298.173 309.845C298.173 309.249 298.722 308.766 299.4 308.766H420.419C423.195 308.766 427.601 312.602 427.601 317.335V330.422C427.601 334.884 423.323 338.501 420.707 338.501H300.036C299.007 338.501 298.172 337.767 298.172 336.862C298.172 335.21 299.696 333.871 301.574 333.871H413.678C416.108 333.871 418.078 331.577 418.078 328.747Z" fill="#7D97F4"/>
<path d="M414.851 317.85H305.75C305.622 317.85 305.517 317.736 305.517 317.597C305.517 317.457 305.622 317.344 305.75 317.344H414.851C414.98 317.344 415.085 317.457 415.085 317.597C415.084 317.736 414.98 317.85 414.851 317.85Z" fill="#7D97F4"/>
<path d="M414.851 320.889H305.75C305.622 320.889 305.517 320.776 305.517 320.636C305.517 320.497 305.622 320.383 305.75 320.383H414.851C414.98 320.383 415.085 320.497 415.085 320.636C415.085 320.776 414.98 320.889 414.851 320.889Z" fill="#7D97F4"/>
<path d="M414.851 323.928H305.75C305.622 323.928 305.517 323.815 305.517 323.675C305.517 323.535 305.622 323.422 305.75 323.422H414.851C414.98 323.422 415.085 323.536 415.085 323.675C415.085 323.815 414.98 323.928 414.851 323.928Z" fill="#7D97F4"/>
<path d="M414.851 326.967H305.75C305.622 326.967 305.517 326.854 305.517 326.715C305.517 326.575 305.622 326.461 305.75 326.461H414.851C414.98 326.461 415.085 326.575 415.085 326.715C415.085 326.854 414.98 326.967 414.851 326.967Z" fill="#7D97F4"/>
<path d="M414.851 330.006H305.75C305.622 330.006 305.517 329.893 305.517 329.753C305.517 329.614 305.622 329.5 305.75 329.5H414.851C414.98 329.5 415.085 329.614 415.085 329.753C415.085 329.893 414.98 330.006 414.851 330.006Z" fill="#7D97F4"/>
<path d="M416.529 372.496H271.736C268.836 372.496 266.486 369.95 266.486 366.808V343.97C266.486 340.829 268.836 338.283 271.736 338.283H416.529C419.428 338.283 421.779 340.829 421.779 343.97V366.808C421.779 369.95 419.428 372.496 416.529 372.496Z" fill="url(#paint21_linear_22_714)"/>
<path d="M300.503 368.564H285.813C284.832 368.564 284.036 367.702 284.036 366.639V344.141C284.036 343.077 284.832 342.215 285.813 342.215H300.503C301.484 342.215 302.28 343.077 302.28 344.141V366.639C302.28 367.702 301.484 368.564 300.503 368.564Z" fill="#7D97F4"/>
<path d="M310.363 368.564H306.409C305.61 368.564 304.963 367.863 304.963 366.998V343.781C304.963 342.916 305.61 342.215 306.409 342.215H310.363C311.161 342.215 311.808 342.916 311.808 343.781V366.998C311.808 367.863 311.161 368.564 310.363 368.564Z" fill="#7D97F4"/>
<path d="M255.058 213.093H217.107C213.243 213.093 210.11 209.698 210.11 205.511V164.392C210.11 160.205 213.243 156.811 217.107 156.811H255.058C258.922 156.811 262.055 160.205 262.055 164.392V205.511C262.055 209.698 258.922 213.093 255.058 213.093Z" fill="url(#paint22_linear_22_714)"/>
<g opacity="0.64">
<path d="M246.894 200.747C246.819 200.747 246.746 200.708 246.701 200.636C246.628 200.521 246.656 200.363 246.762 200.285C246.921 200.167 247.078 200.047 247.233 199.925C247.337 199.843 247.483 199.868 247.559 199.98C247.635 200.093 247.613 200.251 247.508 200.334C247.35 200.459 247.189 200.582 247.026 200.703C246.985 200.732 246.939 200.747 246.894 200.747Z" fill="white"/>
<path d="M236.869 204.092C236.575 204.092 236.276 204.084 235.981 204.068C235.852 204.061 235.753 203.942 235.759 203.803C235.765 203.663 235.875 203.549 236.003 203.562C236.382 203.582 236.763 203.589 237.142 203.583C237.143 203.583 237.144 203.583 237.145 203.583C237.272 203.583 237.376 203.694 237.378 203.833C237.38 203.972 237.277 204.087 237.148 204.089C237.055 204.091 236.962 204.092 236.869 204.092ZM238.296 204.029C238.176 204.029 238.073 203.929 238.064 203.796C238.053 203.657 238.149 203.535 238.278 203.524C238.653 203.491 239.033 203.444 239.407 203.384C239.534 203.362 239.653 203.46 239.672 203.598C239.691 203.736 239.603 203.865 239.475 203.885C239.091 203.946 238.701 203.994 238.315 204.028C238.309 204.029 238.302 204.029 238.296 204.029ZM234.844 203.965C234.835 203.965 234.826 203.965 234.816 203.964C234.43 203.915 234.041 203.853 233.661 203.777C233.534 203.752 233.451 203.62 233.474 203.483C233.497 203.345 233.619 203.253 233.745 203.279C234.115 203.353 234.493 203.413 234.87 203.461C234.998 203.477 235.09 203.602 235.075 203.741C235.062 203.87 234.96 203.965 234.844 203.965ZM240.574 203.667C240.467 203.667 240.37 203.585 240.346 203.466C240.319 203.329 240.4 203.195 240.526 203.166C240.893 203.081 241.264 202.982 241.63 202.871C241.754 202.832 241.883 202.911 241.917 203.046C241.952 203.18 241.88 203.32 241.756 203.358C241.381 203.472 240.999 203.574 240.623 203.661C240.607 203.665 240.591 203.667 240.574 203.667ZM232.577 203.518C232.558 203.518 232.54 203.516 232.52 203.51C232.144 203.408 231.766 203.292 231.398 203.164C231.275 203.121 231.208 202.978 231.247 202.846C231.286 202.713 231.417 202.64 231.54 202.682C231.899 202.806 232.267 202.92 232.634 203.019C232.759 203.053 232.835 203.191 232.804 203.326C232.777 203.441 232.682 203.518 232.577 203.518ZM242.792 202.991C242.695 202.991 242.605 202.926 242.571 202.822C242.529 202.691 242.592 202.546 242.714 202.5C243.072 202.363 243.428 202.213 243.774 202.054C243.892 201.999 244.03 202.059 244.08 202.187C244.131 202.316 244.076 202.465 243.957 202.519C243.602 202.683 243.236 202.837 242.869 202.977C242.843 202.986 242.817 202.991 242.792 202.991ZM230.384 202.757C230.355 202.757 230.326 202.751 230.298 202.739C229.939 202.586 229.578 202.418 229.227 202.239C229.11 202.18 229.06 202.029 229.114 201.903C229.169 201.776 229.308 201.722 229.425 201.781C229.767 201.955 230.119 202.119 230.469 202.269C230.589 202.32 230.648 202.467 230.601 202.597C230.565 202.696 230.477 202.757 230.384 202.757ZM244.911 202.014C244.825 202.014 244.743 201.963 244.702 201.875C244.644 201.75 244.69 201.598 244.805 201.535C245.143 201.35 245.479 201.151 245.803 200.944C245.914 200.874 246.057 200.913 246.122 201.033C246.188 201.154 246.151 201.309 246.04 201.38C245.707 201.592 245.362 201.797 245.016 201.986C244.982 202.005 244.946 202.014 244.911 202.014ZM228.299 201.696C228.261 201.696 228.222 201.686 228.187 201.665C227.847 201.463 227.51 201.246 227.183 201.02C227.074 200.944 227.043 200.788 227.112 200.67C227.181 200.553 227.325 200.518 227.434 200.593C227.753 200.813 228.082 201.025 228.412 201.222C228.525 201.289 228.566 201.443 228.504 201.565C228.461 201.649 228.381 201.696 228.299 201.696ZM226.358 200.355C226.31 200.355 226.262 200.339 226.22 200.306C225.908 200.058 225.599 199.796 225.302 199.526C225.203 199.437 225.189 199.277 225.272 199.17C225.355 199.063 225.503 199.048 225.601 199.138C225.891 199.401 226.192 199.656 226.496 199.898C226.6 199.98 226.623 200.138 226.546 200.251C226.501 200.319 226.43 200.355 226.358 200.355ZM224.593 198.754C224.535 198.754 224.477 198.731 224.432 198.684C224.152 198.395 223.877 198.092 223.614 197.783C223.527 197.68 223.533 197.52 223.628 197.425C223.723 197.331 223.87 197.337 223.958 197.44C224.214 197.741 224.482 198.037 224.754 198.318C224.847 198.414 224.851 198.574 224.762 198.675C224.716 198.728 224.654 198.754 224.593 198.754ZM223.034 196.92C222.966 196.92 222.898 196.888 222.852 196.826C222.609 196.5 222.373 196.161 222.15 195.818C222.075 195.704 222.101 195.546 222.206 195.465C222.311 195.385 222.457 195.412 222.531 195.526C222.748 195.86 222.979 196.19 223.215 196.508C223.296 196.617 223.281 196.776 223.181 196.864C223.138 196.902 223.086 196.92 223.034 196.92ZM221.709 194.883C221.63 194.883 221.553 194.84 221.509 194.762C221.307 194.404 221.113 194.034 220.933 193.663C220.873 193.539 220.917 193.386 221.031 193.321C221.146 193.257 221.287 193.304 221.347 193.427C221.522 193.789 221.711 194.149 221.907 194.498C221.975 194.617 221.94 194.773 221.83 194.846C221.792 194.872 221.75 194.883 221.709 194.883ZM220.638 192.675C220.549 192.675 220.463 192.619 220.424 192.525C220.267 192.142 220.119 191.748 219.985 191.354C219.94 191.223 220.002 191.077 220.123 191.029C220.244 190.98 220.378 191.048 220.423 191.178C220.554 191.562 220.698 191.946 220.851 192.319C220.903 192.447 220.85 192.597 220.732 192.653C220.702 192.668 220.67 192.675 220.638 192.675ZM219.839 190.336C219.739 190.336 219.646 190.265 219.616 190.155C219.592 190.068 219.568 189.981 219.546 189.894C219.463 189.576 219.386 189.253 219.318 188.933C219.289 188.797 219.367 188.661 219.493 188.629C219.618 188.597 219.744 188.683 219.773 188.819C219.839 189.132 219.914 189.447 219.995 189.756C220.018 189.841 220.04 189.926 220.064 190.01C220.101 190.144 220.03 190.285 219.907 190.325C219.884 190.332 219.862 190.336 219.839 190.336ZM219.322 187.904C219.21 187.904 219.111 187.816 219.092 187.692C219.03 187.276 218.979 186.854 218.941 186.438C218.929 186.299 219.023 186.175 219.151 186.162C219.279 186.149 219.394 186.25 219.406 186.389C219.443 186.795 219.492 187.205 219.553 187.61C219.574 187.748 219.488 187.878 219.36 187.901C219.348 187.903 219.335 187.904 219.322 187.904ZM219.099 185.42C218.974 185.42 218.87 185.313 218.866 185.176C218.86 184.969 218.857 184.762 218.857 184.556C218.857 184.341 218.86 184.125 218.867 183.911C218.871 183.771 218.98 183.658 219.108 183.666C219.237 183.671 219.338 183.788 219.333 183.927C219.327 184.137 219.324 184.346 219.324 184.556C219.324 184.757 219.327 184.958 219.332 185.159C219.337 185.299 219.235 185.416 219.107 185.42C219.104 185.42 219.102 185.42 219.099 185.42ZM219.176 182.927C219.169 182.927 219.161 182.926 219.153 182.925C219.025 182.911 218.931 182.788 218.944 182.649C218.982 182.232 219.033 181.81 219.096 181.395C219.117 181.257 219.236 181.16 219.365 181.186C219.492 181.209 219.578 181.339 219.557 181.477C219.496 181.882 219.446 182.293 219.408 182.699C219.396 182.829 219.295 182.927 219.176 182.927Z" fill="white"/>
<path d="M219.554 180.454C219.537 180.454 219.519 180.451 219.501 180.447C219.376 180.415 219.297 180.279 219.327 180.143C219.371 179.935 219.42 179.728 219.471 179.522C219.504 179.388 219.632 179.307 219.756 179.343C219.881 179.379 219.955 179.518 219.922 179.653C219.872 179.854 219.825 180.056 219.781 180.258C219.756 180.375 219.66 180.454 219.554 180.454Z" fill="white"/>
</g>
<g opacity="0.64">
<path d="M227.638 168.351C227.559 168.351 227.482 168.308 227.438 168.23C227.371 168.11 227.406 167.955 227.516 167.882C227.684 167.772 227.854 167.664 228.027 167.559C228.139 167.491 228.281 167.533 228.345 167.655C228.408 167.777 228.368 167.931 228.255 168C228.088 168.102 227.922 168.207 227.759 168.315C227.721 168.339 227.679 168.351 227.638 168.351Z" fill="white"/>
<path d="M254.286 188.778C254.27 188.778 254.254 188.776 254.237 188.772C254.111 188.743 254.03 188.609 254.057 188.473C254.138 188.057 254.207 187.633 254.262 187.211C254.28 187.072 254.399 186.975 254.525 186.996C254.653 187.015 254.742 187.143 254.724 187.281C254.668 187.715 254.597 188.151 254.514 188.577C254.491 188.696 254.394 188.778 254.286 188.778ZM254.62 186.208C254.615 186.208 254.609 186.207 254.603 186.207C254.474 186.197 254.378 186.076 254.387 185.936C254.415 185.512 254.43 185.082 254.432 184.656C254.433 184.517 254.537 184.404 254.666 184.404H254.667C254.796 184.405 254.9 184.519 254.899 184.658C254.897 185.095 254.882 185.537 254.853 185.973C254.844 186.106 254.742 186.208 254.62 186.208ZM254.63 183.612C254.508 183.612 254.405 183.509 254.397 183.375C254.372 182.951 254.333 182.522 254.282 182.1C254.265 181.962 254.355 181.835 254.483 181.816C254.61 181.801 254.728 181.896 254.745 182.034C254.798 182.467 254.837 182.908 254.863 183.343C254.871 183.483 254.774 183.603 254.645 183.612C254.64 183.612 254.635 183.612 254.63 183.612ZM254.317 181.039C254.208 181.039 254.11 180.956 254.088 180.836C254.01 180.418 253.919 179.999 253.816 179.588C253.782 179.454 253.856 179.315 253.98 179.278C254.106 179.241 254.233 179.321 254.267 179.456C254.372 179.877 254.466 180.308 254.546 180.736C254.571 180.873 254.489 181.006 254.363 181.034C254.347 181.037 254.332 181.039 254.317 181.039ZM253.689 178.534C253.592 178.534 253.502 178.468 253.468 178.363C253.34 177.96 253.199 177.557 253.046 177.166C252.997 177.038 253.052 176.889 253.171 176.835C253.29 176.781 253.427 176.841 253.477 176.97C253.633 177.372 253.778 177.785 253.91 178.199C253.952 178.331 253.887 178.475 253.765 178.52C253.74 178.53 253.714 178.534 253.689 178.534ZM252.76 176.143C252.675 176.143 252.592 176.092 252.551 176.004C252.375 175.623 252.184 175.245 251.985 174.879C251.919 174.759 251.956 174.604 252.067 174.532C252.178 174.462 252.321 174.501 252.387 174.622C252.592 174.997 252.788 175.386 252.969 175.777C253.027 175.901 252.98 176.054 252.865 176.116C252.831 176.134 252.796 176.143 252.76 176.143ZM251.543 173.91C251.468 173.91 251.395 173.871 251.35 173.8C251.129 173.45 250.892 173.103 250.649 172.769C250.569 172.66 250.586 172.501 250.687 172.414C250.788 172.327 250.935 172.346 251.015 172.456C251.265 172.799 251.508 173.155 251.735 173.514C251.808 173.629 251.781 173.786 251.675 173.865C251.634 173.896 251.588 173.91 251.543 173.91ZM250.057 171.876C249.994 171.876 249.931 171.848 249.884 171.793C249.621 171.479 249.344 171.17 249.061 170.874C248.968 170.777 248.965 170.617 249.054 170.517C249.144 170.416 249.292 170.413 249.384 170.51C249.675 170.813 249.96 171.13 250.23 171.453C250.317 171.556 250.309 171.716 250.214 171.81C250.17 171.854 250.113 171.876 250.057 171.876ZM248.332 170.077C248.279 170.077 248.225 170.057 248.182 170.018C247.88 169.743 247.567 169.477 247.252 169.227C247.148 169.145 247.125 168.986 247.201 168.874C247.277 168.761 247.423 168.736 247.528 168.819C247.851 169.075 248.173 169.349 248.482 169.63C248.581 169.72 248.594 169.88 248.511 169.987C248.464 170.046 248.398 170.077 248.332 170.077ZM246.399 168.545C246.356 168.545 246.313 168.532 246.274 168.505C245.942 168.278 245.599 168.059 245.255 167.857C245.141 167.79 245.099 167.636 245.161 167.513C245.223 167.391 245.364 167.345 245.478 167.412C245.831 167.62 246.183 167.844 246.524 168.078C246.633 168.153 246.666 168.309 246.596 168.427C246.552 168.503 246.476 168.545 246.399 168.545ZM229.205 167.434C229.118 167.434 229.034 167.381 228.994 167.29C228.938 167.163 228.988 167.013 229.104 166.953C229.467 166.765 229.841 166.588 230.217 166.427C230.337 166.376 230.473 166.439 230.52 166.568C230.568 166.698 230.509 166.845 230.389 166.897C230.024 167.054 229.659 167.226 229.305 167.409C229.273 167.426 229.238 167.434 229.205 167.434ZM244.294 167.306C244.262 167.306 244.229 167.299 244.197 167.283C243.84 167.105 243.473 166.939 243.106 166.787C242.986 166.738 242.925 166.591 242.971 166.461C243.017 166.33 243.152 166.264 243.272 166.315C243.649 166.47 244.025 166.641 244.392 166.823C244.509 166.881 244.56 167.032 244.507 167.159C244.468 167.251 244.383 167.306 244.294 167.306ZM231.431 166.477C231.332 166.477 231.241 166.408 231.209 166.301C231.169 166.168 231.237 166.025 231.36 165.983C231.559 165.913 231.759 165.848 231.962 165.786C232.15 165.728 232.339 165.673 232.527 165.622C232.652 165.59 232.779 165.671 232.81 165.807C232.842 165.942 232.765 166.08 232.64 166.113C232.456 166.163 232.273 166.216 232.089 166.272C231.892 166.333 231.696 166.397 231.503 166.464C231.479 166.473 231.455 166.477 231.431 166.477ZM242.056 166.383C242.033 166.383 242.01 166.38 241.988 166.372C241.612 166.248 241.228 166.136 240.845 166.039C240.719 166.008 240.641 165.872 240.671 165.736C240.7 165.599 240.826 165.513 240.951 165.547C241.344 165.646 241.738 165.761 242.124 165.888C242.247 165.929 242.317 166.07 242.279 166.204C242.248 166.313 242.156 166.383 242.056 166.383ZM233.755 165.849C233.645 165.849 233.546 165.763 233.526 165.641C233.503 165.503 233.587 165.372 233.714 165.347C234.112 165.269 234.516 165.206 234.916 165.158C235.043 165.142 235.159 165.243 235.174 165.382C235.188 165.521 235.095 165.646 234.967 165.661C234.578 165.708 234.184 165.769 233.797 165.845C233.783 165.848 233.769 165.849 233.755 165.849ZM239.722 165.794C239.71 165.794 239.697 165.793 239.685 165.791C239.298 165.723 238.903 165.668 238.511 165.628C238.383 165.615 238.289 165.492 238.301 165.353C238.313 165.214 238.427 165.11 238.555 165.124C238.957 165.165 239.362 165.221 239.76 165.292C239.887 165.314 239.973 165.444 239.953 165.582C239.934 165.706 239.835 165.794 239.722 165.794ZM236.136 165.563C236.012 165.563 235.909 165.457 235.903 165.321C235.898 165.181 235.998 165.063 236.127 165.058C236.528 165.039 236.938 165.035 237.342 165.046C237.471 165.05 237.573 165.166 237.57 165.306C237.566 165.446 237.454 165.546 237.33 165.552C236.937 165.541 236.537 165.545 236.146 165.563C236.143 165.563 236.14 165.563 236.136 165.563Z" fill="white"/>
<path d="M253.829 190.654C253.805 190.654 253.781 190.65 253.758 190.642C253.635 190.599 253.567 190.457 253.606 190.324C253.664 190.126 253.719 189.926 253.772 189.726C253.807 189.592 253.936 189.513 254.06 189.552C254.184 189.59 254.256 189.73 254.221 189.864C254.167 190.07 254.111 190.274 254.051 190.477C254.019 190.585 253.927 190.654 253.829 190.654Z" fill="white"/>
</g>
<path d="M251.246 191.781C251.3 191.683 251.291 191.559 251.223 191.471L249.288 188.971C249.718 187.52 249.938 185.985 249.917 184.417L252.44 182.64C252.529 182.577 252.571 182.461 252.545 182.35L251.671 178.553C251.646 178.442 251.558 178.36 251.453 178.351L248.455 178.066C247.793 176.671 246.934 175.427 245.925 174.365L246.549 171.174C246.571 171.062 246.525 170.947 246.435 170.888L243.338 168.873C243.248 168.815 243.133 168.824 243.052 168.898L240.745 170.994C239.406 170.528 237.989 170.29 236.542 170.313L234.901 167.58C234.844 167.484 234.736 167.438 234.634 167.465L231.129 168.413C231.027 168.441 230.952 168.536 230.943 168.65L230.68 171.898C229.392 172.614 228.245 173.546 227.265 174.639L224.319 173.962C224.215 173.938 224.109 173.988 224.055 174.086L222.196 177.441C222.141 177.539 222.15 177.664 222.218 177.752L224.153 180.252C223.723 181.702 223.503 183.238 223.524 184.805L221.001 186.583C220.913 186.645 220.87 186.762 220.896 186.873L221.77 190.67C221.796 190.781 221.884 190.862 221.989 190.872L224.987 191.157C225.648 192.552 226.508 193.795 227.516 194.857L226.892 198.049C226.87 198.161 226.916 198.275 227.006 198.334L230.103 200.349C230.194 200.408 230.308 200.398 230.389 200.325L232.697 198.228C234.036 198.694 235.453 198.932 236.9 198.91L238.54 201.643C238.598 201.739 238.705 201.785 238.807 201.757L242.312 200.81C242.414 200.782 242.489 200.687 242.499 200.573L242.762 197.325C244.049 196.608 245.197 195.677 246.177 194.584L249.123 195.26C249.226 195.284 249.332 195.234 249.386 195.136L251.246 191.781Z" fill="url(#paint23_linear_22_714)"/>
<path opacity="0.5" d="M236.725 188.341C236.39 188.341 236.054 188.287 235.725 188.18C234.845 187.891 234.121 187.249 233.687 186.372C233.253 185.494 233.161 184.486 233.427 183.532C233.693 182.579 234.286 181.795 235.096 181.325C236.768 180.354 238.857 181.039 239.753 182.85C240.187 183.728 240.28 184.737 240.014 185.69C239.748 186.643 239.155 187.427 238.345 187.897C237.838 188.192 237.284 188.341 236.725 188.341ZM236.715 181.389C236.242 181.389 235.762 181.512 235.316 181.771C234.616 182.177 234.103 182.855 233.874 183.679C233.644 184.503 233.724 185.374 234.099 186.132C234.474 186.891 235.1 187.446 235.86 187.695C236.62 187.945 237.424 187.857 238.125 187.451C238.825 187.045 239.337 186.367 239.567 185.544C239.797 184.72 239.717 183.848 239.342 183.09C238.806 182.006 237.777 181.389 236.715 181.389Z" fill="white"/>
<path opacity="0.5" d="M236.652 194.272C232.641 194.273 228.982 191.325 227.968 186.922C227.788 186.137 227.701 185.349 227.701 184.574C227.701 180.229 230.422 176.265 234.485 175.166C239.273 173.873 244.14 177.04 245.334 182.227C245.467 182.803 245.551 183.39 245.585 183.978C245.591 184.076 245.595 184.174 245.598 184.271C245.598 184.274 245.598 184.277 245.598 184.28C245.598 184.416 245.498 184.528 245.372 184.533C245.245 184.545 245.135 184.428 245.131 184.288C245.112 183.639 245.028 182.986 244.881 182.35C244.88 182.348 244.88 182.346 244.879 182.344C244.879 182.343 244.879 182.342 244.879 182.342C244.879 182.341 244.879 182.341 244.879 182.341C243.843 177.862 239.92 174.975 235.795 175.43C235.397 175.474 234.997 175.55 234.598 175.658C230.746 176.699 228.168 180.456 228.168 184.575C228.168 185.309 228.25 186.055 228.421 186.8C229.553 191.717 234.167 194.72 238.705 193.492C240.197 193.088 241.557 192.256 242.639 191.086C242.731 190.987 242.878 190.987 242.969 191.086C243.015 191.136 243.038 191.2 243.038 191.265C243.038 191.33 243.015 191.394 242.969 191.444C241.827 192.679 240.392 193.557 238.818 193.983C238.094 194.178 237.367 194.272 236.652 194.272Z" fill="white"/>
<path d="M197.308 396C196.67 396 196.106 395.555 195.996 394.925L175.277 276.087C175.154 275.385 175.643 274.72 176.368 274.602C177.094 274.484 177.781 274.957 177.904 275.659L198.623 394.496C198.746 395.198 198.257 395.863 197.532 395.982C197.456 395.994 197.382 396 197.308 396Z" fill="#91B3FA"/>
<path d="M127.408 396C127.321 396 127.232 395.992 127.143 395.974C126.422 395.833 125.955 395.154 126.101 394.456L150.526 277.164C150.671 276.466 151.373 276.011 152.095 276.155C152.816 276.296 153.283 276.976 153.137 277.674L128.712 394.965C128.585 395.577 128.029 396 127.408 396Z" fill="#91B3FA"/>
<path d="M181.498 305.456H146.091C145.355 305.456 144.759 304.879 144.759 304.166C144.759 303.454 145.355 302.877 146.091 302.877H181.498C182.234 302.877 182.83 303.454 182.83 304.166C182.83 304.879 182.234 305.456 181.498 305.456Z" fill="#91B3FA"/>
<path d="M180.857 305.456H146.734C146.025 305.456 145.45 304.879 145.45 304.166C145.45 303.454 146.025 302.877 146.734 302.877H180.857C181.566 302.877 182.14 303.454 182.14 304.166C182.14 304.879 181.565 305.456 180.857 305.456Z" fill="#91B3FA"/>
<path d="M181.498 326.943H146.091C145.355 326.943 144.759 326.366 144.759 325.654C144.759 324.942 145.355 324.365 146.091 324.365H181.498C182.234 324.365 182.83 324.942 182.83 325.654C182.83 326.366 182.234 326.943 181.498 326.943Z" fill="#91B3FA"/>
<path d="M184.713 326.943H141.787C141.051 326.943 140.455 326.366 140.455 325.654C140.455 324.942 141.051 324.365 141.787 324.365H184.713C185.449 324.365 186.045 324.942 186.045 325.654C186.045 326.366 185.449 326.943 184.713 326.943Z" fill="#91B3FA"/>
<path d="M181.498 348.431H146.091C145.355 348.431 144.759 347.854 144.759 347.141C144.759 346.429 145.355 345.852 146.091 345.852H181.498C182.234 345.852 182.83 346.429 182.83 347.141C182.83 347.854 182.234 348.431 181.498 348.431Z" fill="#91B3FA"/>
<path d="M188.814 348.431H137.431C136.695 348.431 136.099 347.854 136.099 347.141C136.099 346.429 136.695 345.852 137.431 345.852H188.814C189.549 345.852 190.146 346.429 190.146 347.141C190.146 347.854 189.549 348.431 188.814 348.431Z" fill="#91B3FA"/>
<path d="M181.498 369.918H133.3C132.564 369.918 131.968 369.341 131.968 368.629C131.968 367.917 132.564 367.34 133.3 367.34H181.498C182.234 367.34 182.83 367.917 182.83 368.629C182.83 369.341 182.234 369.918 181.498 369.918Z" fill="#91B3FA"/>
<path d="M192.13 369.918H133.3C132.564 369.918 131.968 369.341 131.968 368.629C131.968 367.917 132.564 367.34 133.3 367.34H192.13C192.866 367.34 193.462 367.917 193.462 368.629C193.462 369.341 192.866 369.918 192.13 369.918Z" fill="#91B3FA"/>
<path d="M150.834 317.731C150.834 317.731 149.762 319.563 149.492 324.693C149.466 325.171 149.816 325.578 150.258 325.578H158.648C158.985 325.578 159.226 325.219 159.118 324.873C158.627 323.296 157.14 319.452 153.823 317.256L150.834 317.731Z" fill="url(#paint24_linear_22_714)"/>
<path d="M150.47 314.256L150.944 318.567C150.985 318.939 151.254 319.237 151.598 319.28C152.057 319.337 152.724 319.377 153.372 319.262C153.961 319.156 154.385 318.588 154.385 317.941V313.778L150.47 314.256Z" fill="url(#paint25_linear_22_714)"/>
<path d="M171.593 317.256C171.593 317.256 169.987 319.961 170.021 323.673C170.029 324.547 170.705 325.244 171.512 325.244H184.542C185.152 325.244 185.4 324.395 184.901 324.015C182.435 322.138 177.589 318.634 174.083 317.256H171.593Z" fill="url(#paint26_linear_22_714)"/>
<path d="M170.251 312.6L171.263 317.925C171.376 318.52 171.913 318.921 172.461 318.788C172.794 318.708 173.187 318.553 173.607 318.269C174.006 317.999 174.208 317.485 174.126 316.983L173.079 310.532L170.251 312.6Z" fill="url(#paint27_linear_22_714)"/>
<path d="M152.329 238.571C152.329 238.571 148.81 241.933 148.147 245.978C147.485 250.022 150.024 315.762 150.024 315.762C150.024 315.762 153.543 316.396 155.357 315.205C155.357 315.205 157.509 272.541 159.144 262.682C159.144 262.682 167.722 306.877 170.098 314.862C170.098 314.862 173.489 315.309 174.582 314.61C174.582 314.61 172.335 257.321 169.512 247.136L152.329 238.571Z" fill="#7D97F4"/>
<path d="M159.042 261.286C158.876 261.286 158.725 261.166 158.681 260.984L157.223 254.923L154.116 252.764C153.942 252.643 153.892 252.393 154.003 252.204C154.114 252.016 154.346 251.961 154.519 252.083L157.749 254.327C157.828 254.382 157.885 254.467 157.909 254.566L159.404 260.779C159.456 260.996 159.336 261.217 159.136 261.273C159.105 261.282 159.073 261.286 159.042 261.286Z" fill="url(#paint28_linear_22_714)"/>
<path d="M187.059 200.586C172.244 199.253 168.371 202.575 168.371 202.575L175.491 214.754C175.491 214.754 190.048 214.442 200.48 205.731C198.527 203.453 197.171 200.936 196.302 198.976C193.612 200.187 190.515 200.897 187.059 200.586Z" fill="url(#paint29_linear_22_714)"/>
<path d="M210.259 177.024C210.239 176.509 209.596 176.369 209.394 176.836L207.504 181.206C207.139 182.051 207.021 182.997 207.168 183.915L207.831 186.46C208.03 187.7 207.731 188.971 207.005 189.955C205.268 192.308 201.568 196.605 196.302 198.976C197.171 200.936 198.527 203.454 200.479 205.731C204.307 202.535 207.579 198.21 209.372 192.352C210.231 192.066 210.805 191.19 210.771 190.217L210.259 177.024Z" fill="url(#paint30_linear_22_714)"/>
<path d="M191.936 207.647C186.72 201.558 176.786 198.807 171.034 197.677C168.514 197.181 166.03 198.701 165.137 201.301C162.549 208.84 155.509 228.454 154.145 231.825C153.025 234.591 151.856 237.291 151.114 238.98C150.67 239.989 151.058 241.196 151.987 241.681C156.826 244.209 165.534 247.068 169.064 248.184C169.84 248.429 170.613 247.797 170.613 246.921C170.613 246.178 170.8 245.448 171.153 244.811L184.522 220.672C192.856 230.683 200.153 231.598 205.759 229.407C204.817 226.251 204.2 223.088 203.904 219.92C195.622 218.382 191.936 207.647 191.936 207.647Z" fill="url(#paint31_linear_22_714)"/>
<path d="M217.593 218.239L216.098 216.08C211.26 219.681 207.215 220.534 203.904 219.919C204.2 223.087 204.817 226.25 205.759 229.406C213.145 226.52 217.593 218.239 217.593 218.239Z" fill="url(#paint32_linear_22_714)"/>
<path d="M216.539 218.278L224.959 218.634L232.712 213.943C231.599 213.187 225.306 214.732 225.306 214.732C225.306 214.732 218.728 213.654 216.947 213.651C215.468 213.649 215.679 215.953 215.794 216.734C215.817 216.893 215.836 216.989 215.836 216.989L216.539 218.278Z" fill="url(#paint33_linear_22_714)"/>
<path d="M178.945 186.493L174.503 198.24C174.503 198.24 179.607 202.068 183.714 201.704L185.932 191.142L178.945 186.493Z" fill="url(#paint34_linear_22_714)"/>
<path d="M186.45 178.485C186.552 178.641 189.664 190.824 189.664 190.824L183.207 192.601L178.673 181.53C178.673 181.53 184.746 175.871 186.45 178.485Z" fill="url(#paint35_linear_22_714)"/>
<path d="M181.105 183.212L183.07 189.243C183.095 189.32 183.129 189.392 183.173 189.459C183.439 189.869 184.452 191.209 185.654 190.002C186.744 188.908 187.754 187.926 188.687 187.748C189.106 187.668 189.512 187.945 189.625 188.389C189.908 189.496 190.502 192.003 190.711 194.266C190.753 194.726 190.461 195.141 190.042 195.227C188.781 195.487 186.107 195.953 183.874 195.783C183.572 195.76 183.305 195.563 183.179 195.264C182.564 193.808 180.679 189.388 179.978 188.245C179.32 187.171 177.707 187.201 177.03 187.266C176.808 187.288 176.59 187.21 176.423 187.051C175.831 186.489 174.704 185.054 176.289 183.336C176.62 182.976 176.612 182.396 176.27 182.048C175.589 181.355 174.861 180.125 175.995 178.6C177.148 177.05 178.669 177.297 179.601 177.665C179.978 177.814 180.389 177.642 180.593 177.268C180.71 177.055 180.913 176.894 181.266 176.927C181.742 176.972 182.141 176.542 182.133 176.025C182.116 175.032 182.445 173.778 184.034 173.241C186.855 172.29 188.615 175.243 188.789 177.446C188.963 179.65 185.85 180.493 184.02 180.344C182.628 180.231 181.595 181.725 181.18 182.448C181.048 182.677 181.022 182.958 181.105 183.212Z" fill="url(#paint36_linear_22_714)"/>
<path d="M180.714 190.432C180.714 190.432 180.258 186.607 178.79 186.42C177.321 186.232 175.892 187.54 177.352 189.687C179.168 192.358 180.714 190.432 180.714 190.432Z" fill="url(#paint37_linear_22_714)"/>
<path d="M316.862 271.416H278.911C275.047 271.416 271.914 268.022 271.914 263.835V222.715C271.914 218.528 275.047 215.134 278.911 215.134H316.862C320.727 215.134 323.859 218.528 323.859 222.715V263.835C323.859 268.022 320.727 271.416 316.862 271.416Z" fill="url(#paint38_linear_22_714)"/>
<path d="M313.258 258.027H281.418C280.133 258.027 279.091 256.898 279.091 255.505V233.041C279.091 231.703 280.055 230.598 281.289 230.523L314.357 228.526C315.742 228.442 316.886 229.681 316.811 231.181L315.582 255.642C315.515 256.98 314.495 258.027 313.258 258.027Z" fill="url(#paint39_linear_22_714)"/>
<path d="M298.081 244.472L315.486 228.767C315.147 228.591 314.762 228.502 314.357 228.527L281.288 230.524C280.72 230.558 280.209 230.812 279.822 231.206L292.848 244.332C294.262 245.757 296.589 245.819 298.081 244.472Z" fill="url(#paint40_linear_22_714)"/>
<path opacity="0.5" d="M295.662 243.694C294.797 243.694 293.935 243.358 293.243 242.696L288.335 238.001C288.191 237.864 288.177 237.626 288.304 237.469C288.432 237.313 288.652 237.298 288.795 237.436L293.703 242.131C294.746 243.128 296.263 243.21 297.392 242.331L299.936 240.35C300.092 240.229 300.309 240.267 300.421 240.436C300.533 240.605 300.498 240.841 300.342 240.962L297.799 242.943C297.153 243.445 296.406 243.694 295.662 243.694Z" fill="white"/>
<path opacity="0.5" d="M286.739 236.349C286.658 236.349 286.575 236.318 286.509 236.255L285.848 235.623C285.704 235.485 285.691 235.247 285.818 235.091C285.945 234.935 286.165 234.92 286.309 235.058L286.969 235.69C287.113 235.827 287.127 236.066 287 236.222C286.931 236.306 286.835 236.349 286.739 236.349Z" fill="white"/>
<path d="M371.94 284.229C370.132 276.981 364.543 271.027 358.317 269.522C357.173 269.245 356.51 267.983 356.778 266.746C356.78 266.738 356.782 266.729 356.784 266.721C357.686 262.505 355.193 259.147 351.432 258.202C347.671 257.257 344.067 259.083 343.165 263.298C342.556 266.142 343.336 269.343 345.063 271.415C345.774 272.269 345.831 273.543 345.142 274.418C341.347 279.235 339.803 286.587 341.444 293.163C343.861 302.849 352.267 307.175 360.688 304.708C369.11 302.242 374.357 293.915 371.94 284.229Z" fill="url(#paint41_linear_22_714)"/>
<path d="M369.321 293.472L369.158 293.348C370.665 291.03 370.859 287.683 369.663 284.615C368.713 282.178 367.013 279.949 364.313 277.602C363.307 276.727 362.24 275.896 361.209 275.094C359.967 274.127 358.683 273.128 357.492 272.041C356.422 271.063 355.295 269.85 355.059 268.263C354.941 267.472 355.051 266.629 355.158 265.815C355.325 264.539 355.482 263.335 354.792 262.412L354.948 262.276C355.693 263.271 355.522 264.58 355.356 265.845C355.252 266.644 355.144 267.47 355.257 268.228C355.483 269.745 356.579 270.923 357.622 271.875C358.806 272.956 360.087 273.953 361.326 274.918C362.359 275.722 363.428 276.554 364.438 277.432C367.165 279.804 368.884 282.059 369.847 284.53C371.07 287.667 370.869 291.094 369.321 293.472Z" fill="white"/>
<path d="M365.318 294.871L365.13 294.798C366.155 291.724 365.855 287.946 364.306 284.434C362.77 280.952 360.259 278.114 358.243 276.03L358.381 275.873C360.409 277.97 362.936 280.827 364.486 284.341C366.059 287.905 366.362 291.743 365.318 294.871Z" fill="white"/>
<path d="M324.934 255.11L324.865 252.607L327.28 247.411C327.721 246.461 327.725 245.341 327.289 244.387L324.553 238.403C324.553 238.403 322.974 251.392 322.558 252.472C322.142 253.552 323.685 255.491 323.685 255.491L324.934 255.11Z" fill="url(#paint42_linear_22_714)"/>
<path d="M324.865 252.606C324.865 252.606 332.21 274.301 344.725 281.082C344.725 281.082 340.56 288.446 338.386 288.892C338.386 288.892 325.016 270.352 323.653 255.163L324.865 252.606Z" fill="url(#paint43_linear_22_714)"/>
<path d="M375.198 383.108L375.567 386.398C375.951 387.962 377.809 391.902 380.194 391.645C381.661 391.487 381.837 386.843 381.633 386.146C381.26 384.876 380.579 382.97 379.596 381.848H376.227C375.605 381.848 375.122 382.438 375.198 383.108Z" fill="url(#paint44_linear_22_714)"/>
<path d="M348.814 344.566L348.245 348.19C348.245 348.19 350.15 369.086 350.488 377.444C350.541 378.754 350.229 380.05 349.594 381.166L346.283 386.992L354.697 381.612L354.865 380.5L353.487 378.448L355.292 355.039C355.398 353.664 355.136 352.285 354.537 351.066L352.797 347.524L348.814 344.566Z" fill="url(#paint45_linear_22_714)"/>
<path d="M345.729 387.836H348.414C348.916 387.836 349.391 387.586 349.697 387.154C350.534 385.976 352.268 383.676 353.098 383.616C354.214 383.536 354.071 387.836 354.071 387.836H354.697L355.49 382.492C355.689 381.148 355.072 379.816 353.958 379.186C353.958 379.186 353.702 381.231 352.319 382.135C350.935 383.04 346.688 386.279 346.688 386.279C346.688 386.279 346.168 386.199 345.597 386.31C344.749 386.476 344.868 387.836 345.729 387.836Z" fill="url(#paint46_linear_22_714)"/>
<path d="M360.339 346.287C360.339 346.287 371.493 369.212 373.266 374.446C375.039 379.68 375.66 384.047 375.684 384.46C375.721 385.106 376.463 385.726 378.507 385.726C379.562 385.726 380.079 385.268 380.332 384.824C380.548 384.446 380.559 383.972 380.377 383.573C379.732 382.159 377.684 377.637 376.926 375.586C376.021 373.138 374.073 362.042 373.005 358.184C371.937 354.326 370.729 350.142 366.078 346.287C366.078 346.287 362.885 342.899 360.339 346.287Z" fill="url(#paint47_linear_22_714)"/>
<path d="M353.292 308.724C351.659 301.223 353.302 295.573 355.028 292.09C356.405 289.311 355.437 285.874 352.855 284.419C348.819 282.145 344.725 281.082 344.725 281.082C344.725 281.082 336.729 287.416 337.678 292.374C338.234 295.279 343.298 309.778 343.298 309.778C343.298 309.778 347.981 312.18 353.292 308.724Z" fill="url(#paint48_linear_22_714)"/>
<path d="M359.672 315.264C358.501 311.441 353.292 308.724 353.292 308.724C347.981 312.18 343.298 309.778 343.298 309.778C343.298 309.778 342.248 314.128 342.973 318.17C343.697 322.212 348.245 348.19 348.245 348.19C355.411 349.763 366.432 346.607 366.432 346.607C361.868 337.827 360.843 319.086 359.672 315.264Z" fill="url(#paint49_linear_22_714)"/>
<path d="M349.953 272.352L352.292 283.737C352.516 284.74 351.672 284.576 350.736 284.384C349.204 284.072 347.229 283.427 346.568 282.135C346.501 282.003 346.468 281.855 346.449 281.706L345.444 273.811C345.364 273.185 345.676 272.577 346.21 272.321L348.149 271.389C348.896 271.03 349.76 271.492 349.953 272.352Z" fill="url(#paint50_linear_22_714)"/>
<path d="M320.714 264.833C320.714 264.833 326.871 288.007 351.698 285.829C353.287 285.69 354.682 286.965 354.805 288.686L354.872 289.616C355.051 292.11 353.173 294.212 350.867 294.086C342.61 293.633 324.876 290.119 318.797 268.861L320.714 264.833Z" fill="url(#paint51_linear_22_714)"/>
<path d="M318.798 268.861C318.798 268.861 317.615 265.089 317.317 262.731C317.02 260.373 318.114 255.081 319.054 253.593C319.995 252.105 320.152 255.752 320.575 257.467C320.998 259.181 320.282 261.627 320.282 261.627L320.714 264.833L318.798 268.861Z" fill="url(#paint52_linear_22_714)"/>
<path d="M345.156 262.96C345.156 262.96 339.241 272.297 342.919 274.898C346.598 277.5 350.808 270.864 350.808 270.864C350.808 270.864 352.13 265.794 350.626 264.113C349.123 262.433 345.156 262.96 345.156 262.96Z" fill="url(#paint53_linear_22_714)"/>
<path d="M347.637 260.695C347.637 260.695 345.064 261.412 344.724 262.687C344.383 263.961 348.432 265.054 349.562 265.088L350.56 270.183C350.56 270.183 353.165 265.318 352.051 262.561C350.938 259.805 347.637 260.695 347.637 260.695Z" fill="url(#paint54_linear_22_714)"/>
<path d="M349.619 270.211C349.619 270.211 351.932 267.195 352.906 269.11C353.881 271.026 350.837 272.541 349.758 271.613L349.619 270.211Z" fill="url(#paint55_linear_22_714)"/>
<defs>
<linearGradient id="paint0_linear_22_714" x1="-37.1283" y1="432.848" x2="510.13" y2="54.9305" gradientUnits="userSpaceOnUse">
<stop stop-color="#DAE3FE"/>
<stop offset="1" stop-color="#E9EFFD"/>
</linearGradient>
<linearGradient id="paint1_linear_22_714" x1="73.756" y1="329.736" x2="115.745" y2="329.736" gradientUnits="userSpaceOnUse">
<stop stop-color="#4042E2"/>
<stop offset="1" stop-color="#4F52FF"/>
</linearGradient>
<linearGradient id="paint2_linear_22_714" x1="251.984" y1="385.942" x2="232.98" y2="8.0599" gradientUnits="userSpaceOnUse">
<stop stop-color="#09005D"/>
<stop offset="1" stop-color="#1A0F91"/>
</linearGradient>
<linearGradient id="paint3_linear_22_714" x1="237.875" y1="361.198" x2="255.153" y2="45.4559" gradientUnits="userSpaceOnUse">
<stop stop-color="#4042E2"/>
<stop offset="1" stop-color="#4F52FF"/>
</linearGradient>
<linearGradient id="paint4_linear_22_714" x1="316.159" y1="87.0794" x2="288.631" y2="184.965" gradientUnits="userSpaceOnUse">
<stop stop-color="#4042E2"/>
<stop offset="1" stop-color="#4F52FF"/>
</linearGradient>
<linearGradient id="paint5_linear_22_714" x1="343.011" y1="-42.318" x2="327.733" y2="34.8487" gradientUnits="userSpaceOnUse">
<stop stop-color="#4042E2"/>
<stop offset="1" stop-color="#4F52FF"/>
</linearGradient>
<linearGradient id="paint6_linear_22_714" x1="245.639" y1="312.224" x2="246.791" y2="262.24" gradientUnits="userSpaceOnUse">
<stop stop-color="#FE7062"/>
<stop offset="1" stop-color="#FF928E"/>
</linearGradient>
<linearGradient id="paint7_linear_22_714" x1="245.937" y1="312.231" x2="247.09" y2="262.247" gradientUnits="userSpaceOnUse">
<stop stop-color="#FE7062"/>
<stop offset="1" stop-color="#FF928E"/>
</linearGradient>
<linearGradient id="paint8_linear_22_714" x1="295.542" y1="88.6146" x2="316.092" y2="88.6146" gradientUnits="userSpaceOnUse">
<stop stop-color="#FE7062"/>
<stop offset="1" stop-color="#FF928E"/>
</linearGradient>
<linearGradient id="paint9_linear_22_714" x1="284.355" y1="169.66" x2="290.148" y2="169.66" gradientUnits="userSpaceOnUse">
<stop stop-color="#E1473D"/>
<stop offset="1" stop-color="#E9605A"/>
</linearGradient>
<linearGradient id="paint10_linear_22_714" x1="296.165" y1="169.459" x2="302.775" y2="169.459" gradientUnits="userSpaceOnUse">
<stop stop-color="#E1473D"/>
<stop offset="1" stop-color="#E9605A"/>
</linearGradient>
<linearGradient id="paint11_linear_22_714" x1="298.81" y1="197.342" x2="299.674" y2="154.536" gradientUnits="userSpaceOnUse">
<stop stop-color="#FE7062"/>
<stop offset="1" stop-color="#FF928E"/>
</linearGradient>
<linearGradient id="paint12_linear_22_714" x1="293.565" y1="182.724" x2="304.558" y2="182.724" gradientUnits="userSpaceOnUse">
<stop stop-color="#E1473D"/>
<stop offset="1" stop-color="#E9605A"/>
</linearGradient>
<linearGradient id="paint13_linear_22_714" x1="185.217" y1="251.436" x2="194.025" y2="343.122" gradientUnits="userSpaceOnUse">
<stop stop-color="#FE7062"/>
<stop offset="1" stop-color="#FF928E"/>
</linearGradient>
<linearGradient id="paint14_linear_22_714" x1="195.279" y1="250.469" x2="204.088" y2="342.155" gradientUnits="userSpaceOnUse">
<stop stop-color="#FE7062"/>
<stop offset="1" stop-color="#FF928E"/>
</linearGradient>
<linearGradient id="paint15_linear_22_714" x1="179.912" y1="251.945" x2="188.721" y2="343.631" gradientUnits="userSpaceOnUse">
<stop stop-color="#FE7062"/>
<stop offset="1" stop-color="#FF928E"/>
</linearGradient>
<linearGradient id="paint16_linear_22_714" x1="251.049" y1="108.973" x2="233.593" y2="153.76" gradientUnits="userSpaceOnUse">
<stop stop-color="#FE7062"/>
<stop offset="1" stop-color="#FF928E"/>
</linearGradient>
<linearGradient id="paint17_linear_22_714" x1="178.74" y1="119.562" x2="203.608" y2="119.562" gradientUnits="userSpaceOnUse">
<stop stop-color="#FE7062"/>
<stop offset="1" stop-color="#FF928E"/>
</linearGradient>
<linearGradient id="paint18_linear_22_714" x1="178.718" y1="133.533" x2="203.609" y2="133.533" gradientUnits="userSpaceOnUse">
<stop stop-color="#FE7062"/>
<stop offset="1" stop-color="#FF928E"/>
</linearGradient>
<linearGradient id="paint19_linear_22_714" x1="186.514" y1="101.677" x2="201.646" y2="151.754" gradientUnits="userSpaceOnUse">
<stop stop-color="#E1473D"/>
<stop offset="1" stop-color="#E9605A"/>
</linearGradient>
<linearGradient id="paint20_linear_22_714" x1="183.634" y1="119.519" x2="198.795" y2="119.519" gradientUnits="userSpaceOnUse">
<stop stop-color="#E1473D"/>
<stop offset="1" stop-color="#E9605A"/>
</linearGradient>
<linearGradient id="paint21_linear_22_714" x1="346.027" y1="321.309" x2="342.062" y2="382.063" gradientUnits="userSpaceOnUse">
<stop stop-color="#4042E2"/>
<stop offset="1" stop-color="#4F52FF"/>
</linearGradient>
<linearGradient id="paint22_linear_22_714" x1="210.11" y1="184.952" x2="262.055" y2="184.952" gradientUnits="userSpaceOnUse">
<stop stop-color="#DAE3FE"/>
<stop offset="1" stop-color="#E9EFFD"/>
</linearGradient>
<linearGradient id="paint23_linear_22_714" x1="227.635" y1="177.617" x2="260.546" y2="199.197" gradientUnits="userSpaceOnUse">
<stop stop-color="#FE7062"/>
<stop offset="1" stop-color="#FF928E"/>
</linearGradient>
<linearGradient id="paint24_linear_22_714" x1="149.49" y1="321.417" x2="159.144" y2="321.417" gradientUnits="userSpaceOnUse">
<stop stop-color="#09005D"/>
<stop offset="1" stop-color="#1A0F91"/>
</linearGradient>
<linearGradient id="paint25_linear_22_714" x1="150.47" y1="316.557" x2="154.385" y2="316.557" gradientUnits="userSpaceOnUse">
<stop stop-color="#FF928E"/>
<stop offset="1" stop-color="#FEB3B1"/>
</linearGradient>
<linearGradient id="paint26_linear_22_714" x1="170.021" y1="321.25" x2="185.168" y2="321.25" gradientUnits="userSpaceOnUse">
<stop stop-color="#09005D"/>
<stop offset="1" stop-color="#1A0F91"/>
</linearGradient>
<linearGradient id="paint27_linear_22_714" x1="170.251" y1="314.673" x2="174.144" y2="314.673" gradientUnits="userSpaceOnUse">
<stop stop-color="#FF928E"/>
<stop offset="1" stop-color="#FEB3B1"/>
</linearGradient>
<linearGradient id="paint28_linear_22_714" x1="186.642" y1="225.218" x2="139.43" y2="267.409" gradientUnits="userSpaceOnUse">
<stop stop-color="#4042E2"/>
<stop offset="1" stop-color="#4F52FF"/>
</linearGradient>
<linearGradient id="paint29_linear_22_714" x1="192.01" y1="158.713" x2="182.762" y2="205.911" gradientUnits="userSpaceOnUse">
<stop stop-color="#E1473D"/>
<stop offset="1" stop-color="#E9605A"/>
</linearGradient>
<linearGradient id="paint30_linear_22_714" x1="196.302" y1="191.142" x2="210.773" y2="191.142" gradientUnits="userSpaceOnUse">
<stop stop-color="#FF928E"/>
<stop offset="1" stop-color="#FEB3B1"/>
</linearGradient>
<linearGradient id="paint31_linear_22_714" x1="182.988" y1="186.928" x2="173.707" y2="268.056" gradientUnits="userSpaceOnUse">
<stop stop-color="#FE7062"/>
<stop offset="1" stop-color="#FF928E"/>
</linearGradient>
<linearGradient id="paint32_linear_22_714" x1="229.069" y1="194.56" x2="194.708" y2="234.014" gradientUnits="userSpaceOnUse">
<stop stop-color="#FF928E"/>
<stop offset="1" stop-color="#FEB3B1"/>
</linearGradient>
<linearGradient id="paint33_linear_22_714" x1="234.997" y1="199.723" x2="200.637" y2="239.177" gradientUnits="userSpaceOnUse">
<stop stop-color="#FF928E"/>
<stop offset="1" stop-color="#FEB3B1"/>
</linearGradient>
<linearGradient id="paint34_linear_22_714" x1="185.697" y1="175.355" x2="173.333" y2="214.706" gradientUnits="userSpaceOnUse">
<stop stop-color="#FF928E"/>
<stop offset="1" stop-color="#FEB3B1"/>
</linearGradient>
<linearGradient id="paint35_linear_22_714" x1="184.349" y1="180.195" x2="183.499" y2="204.226" gradientUnits="userSpaceOnUse">
<stop stop-color="#FF928E"/>
<stop offset="1" stop-color="#FEB3B1"/>
</linearGradient>
<linearGradient id="paint36_linear_22_714" x1="201.977" y1="158.026" x2="172.566" y2="196.481" gradientUnits="userSpaceOnUse">
<stop stop-color="#09005D"/>
<stop offset="1" stop-color="#1A0F91"/>
</linearGradient>
<linearGradient id="paint37_linear_22_714" x1="176.42" y1="204.854" x2="179.248" y2="188.468" gradientUnits="userSpaceOnUse">
<stop stop-color="#FF928E"/>
<stop offset="1" stop-color="#FEB3B1"/>
</linearGradient>
<linearGradient id="paint38_linear_22_714" x1="271.914" y1="243.275" x2="323.859" y2="243.275" gradientUnits="userSpaceOnUse">
<stop stop-color="#DAE3FE"/>
<stop offset="1" stop-color="#E9EFFD"/>
</linearGradient>
<linearGradient id="paint39_linear_22_714" x1="299.093" y1="261.471" x2="295.926" y2="218.431" gradientUnits="userSpaceOnUse">
<stop stop-color="#FE7062"/>
<stop offset="1" stop-color="#FF928E"/>
</linearGradient>
<linearGradient id="paint40_linear_22_714" x1="298.907" y1="195.61" x2="297.611" y2="225.912" gradientUnits="userSpaceOnUse">
<stop stop-color="#FE7062"/>
<stop offset="1" stop-color="#FF928E"/>
</linearGradient>
<linearGradient id="paint41_linear_22_714" x1="333.955" y1="243.42" x2="358.098" y2="284.327" gradientUnits="userSpaceOnUse">
<stop stop-color="#4042E2"/>
<stop offset="1" stop-color="#4F52FF"/>
</linearGradient>
<linearGradient id="paint42_linear_22_714" x1="353.373" y1="295.162" x2="311.498" y2="236.432" gradientUnits="userSpaceOnUse">
<stop stop-color="#FF928E"/>
<stop offset="1" stop-color="#FEB3B1"/>
</linearGradient>
<linearGradient id="paint43_linear_22_714" x1="349.349" y1="298.031" x2="307.474" y2="239.301" gradientUnits="userSpaceOnUse">
<stop stop-color="#FF928E"/>
<stop offset="1" stop-color="#FEB3B1"/>
</linearGradient>
<linearGradient id="paint44_linear_22_714" x1="375.19" y1="386.752" x2="381.703" y2="386.752" gradientUnits="userSpaceOnUse">
<stop stop-color="#09005D"/>
<stop offset="1" stop-color="#1A0F91"/>
</linearGradient>
<linearGradient id="paint45_linear_22_714" x1="347.749" y1="412.543" x2="358.706" y2="294.347" gradientUnits="userSpaceOnUse">
<stop stop-color="#FF928E"/>
<stop offset="1" stop-color="#FEB3B1"/>
</linearGradient>
<linearGradient id="paint46_linear_22_714" x1="352.128" y1="383.511" x2="362.636" y2="383.511" gradientUnits="userSpaceOnUse">
<stop stop-color="#09005D"/>
<stop offset="1" stop-color="#1A0F91"/>
</linearGradient>
<linearGradient id="paint47_linear_22_714" x1="366.548" y1="414.304" x2="377.508" y2="296.077" gradientUnits="userSpaceOnUse">
<stop stop-color="#FF928E"/>
<stop offset="1" stop-color="#FEB3B1"/>
</linearGradient>
<linearGradient id="paint48_linear_22_714" x1="331.495" y1="320.226" x2="300.208" y2="360.577" gradientUnits="userSpaceOnUse">
<stop stop-color="#FE7062"/>
<stop offset="1" stop-color="#FF928E"/>
</linearGradient>
<linearGradient id="paint49_linear_22_714" x1="378.661" y1="293.426" x2="323.072" y2="362.61" gradientUnits="userSpaceOnUse">
<stop stop-color="#09005D"/>
<stop offset="1" stop-color="#1A0F91"/>
</linearGradient>
<linearGradient id="paint50_linear_22_714" x1="348.883" y1="278.591" x2="348.019" y2="335.222" gradientUnits="userSpaceOnUse">
<stop stop-color="#FF928E"/>
<stop offset="1" stop-color="#FEB3B1"/>
</linearGradient>
<linearGradient id="paint51_linear_22_714" x1="352.556" y1="296.847" x2="300.978" y2="254.694" gradientUnits="userSpaceOnUse">
<stop stop-color="#FF928E"/>
<stop offset="1" stop-color="#FEB3B1"/>
</linearGradient>
<linearGradient id="paint52_linear_22_714" x1="354.279" y1="294.738" x2="302.701" y2="252.585" gradientUnits="userSpaceOnUse">
<stop stop-color="#FF928E"/>
<stop offset="1" stop-color="#FEB3B1"/>
</linearGradient>
<linearGradient id="paint53_linear_22_714" x1="797.534" y1="-478.991" x2="788.088" y2="-465.64" gradientUnits="userSpaceOnUse">
<stop stop-color="#FF928E"/>
<stop offset="1" stop-color="#FEB3B1"/>
</linearGradient>
<linearGradient id="paint54_linear_22_714" x1="337.579" y1="241.281" x2="361.722" y2="282.187" gradientUnits="userSpaceOnUse">
<stop stop-color="#4042E2"/>
<stop offset="1" stop-color="#4F52FF"/>
</linearGradient>
<linearGradient id="paint55_linear_22_714" x1="801.31" y1="-476.316" x2="791.864" y2="-462.965" gradientUnits="userSpaceOnUse">
<stop stop-color="#FF928E"/>
<stop offset="1" stop-color="#FEB3B1"/>
</linearGradient>
</defs>
</svg>
