<svg width="118" height="125" viewBox="0 0 118 125" fill="none" xmlns="http://www.w3.org/2000/svg">
<path d="M59 88.5417V109.375" stroke="#4269A7" stroke-width="2" stroke-linecap="round" stroke-linejoin="round"/>
<path d="M39.3334 109.375H78.6667" stroke="#4269A7" stroke-width="2" stroke-linecap="round" stroke-linejoin="round"/>
<path d="M44.25 88.5416L74.2417 56.7708C76.0884 54.8534 78.5738 53.7838 81.1597 53.7935C83.7455 53.8033 86.2237 54.8916 88.0575 56.8229L108.167 78.125" stroke="#4269A7" stroke-width="2" stroke-linecap="round" stroke-linejoin="round"/>
<path d="M39.3333 57.2916C44.7641 57.2916 49.1667 52.6279 49.1667 46.8749C49.1667 41.122 44.7641 36.4583 39.3333 36.4583C33.9025 36.4583 29.5 41.122 29.5 46.8749C29.5 52.6279 33.9025 57.2916 39.3333 57.2916Z" stroke="#4269A7" stroke-width="2" stroke-linecap="round" stroke-linejoin="round"/>
<path d="M98.3334 15.625H19.6667C14.2359 15.625 9.83337 20.2887 9.83337 26.0417V78.125C9.83337 83.878 14.2359 88.5417 19.6667 88.5417H98.3334C103.764 88.5417 108.167 83.878 108.167 78.125V26.0417C108.167 20.2887 103.764 15.625 98.3334 15.625Z" stroke="#4269A7" stroke-width="2" stroke-linecap="round" stroke-linejoin="round"/>
</svg>
