<svg width="253" height="42" viewBox="0 0 253 42" fill="none" xmlns="http://www.w3.org/2000/svg">
<path d="M7.80799 27.296C6.33599 27.296 5.00266 26.9333 3.80799 26.208C2.63466 25.4827 1.70666 24.4373 1.02399 23.072C0.341326 21.6853 -7.39098e-06 20.0533 -7.39098e-06 18.176C-7.39098e-06 14.9333 0.693326 11.936 2.07999 9.18398C3.46666 6.41065 5.51466 4.19198 8.22399 2.52798C10.9333 0.842651 14.1867 -1.52588e-05 17.984 -1.52588e-05C18.9653 -1.52588e-05 20.0107 0.0746517 21.12 0.223986C22.2507 0.373318 23.2747 0.597318 24.192 0.895985C24.7893 1.06665 25.088 1.49332 25.088 2.17599C25.088 2.73065 24.8747 3.25332 24.448 3.74399C24.0427 4.23465 23.5627 4.47999 23.008 4.47999C22.8373 4.47999 22.7093 4.46932 22.624 4.44798C21.5147 4.19199 20.5653 4.01065 19.776 3.90399C18.9867 3.77599 18.1547 3.71198 17.28 3.71198C14.5707 3.71198 12.2667 4.37332 10.368 5.69599C8.46933 6.99732 7.05066 8.72532 6.11199 10.88C5.17333 13.0347 4.70399 15.36 4.70399 17.856C4.70399 19.6693 5.05599 21.0773 5.75999 22.08C6.48533 23.0613 7.42399 23.552 8.57599 23.552C9.87733 23.552 11.0187 23.0187 12 21.952C12.9813 20.8853 13.8773 19.1573 14.688 16.768C15.4987 14.3787 16.2987 11.136 17.088 7.03999C17.216 6.44265 17.472 6.03732 17.856 5.82399C18.24 5.61065 18.752 5.50398 19.392 5.50398C20.9067 5.50398 21.664 5.99465 21.664 6.97598C21.664 7.14665 21.632 7.35999 21.568 7.61599C21.0133 9.68532 20.5013 11.9787 20.032 14.496C19.584 16.992 19.36 18.8907 19.36 20.192C19.36 21.344 19.5307 22.1867 19.872 22.72C20.2133 23.232 20.736 23.488 21.44 23.488C22.1227 23.488 22.7733 23.264 23.392 22.816C24.0107 22.3467 24.7893 21.5573 25.728 20.448C25.984 20.1493 26.272 20 26.592 20C26.8693 20 27.0827 20.128 27.232 20.384C27.4027 20.64 27.488 20.992 27.488 21.44C27.488 22.272 27.2853 22.9333 26.88 23.424C25.8347 24.6827 24.8107 25.6427 23.808 26.304C22.8053 26.9653 21.5787 27.296 20.128 27.296C18.6347 27.296 17.4293 26.8693 16.512 26.016C15.5947 25.1413 15.0187 23.9147 14.784 22.336C13.2053 25.6427 10.88 27.296 7.80799 27.296ZM157.43 27.296C155.532 27.296 153.814 26.8693 152.278 26.016C150.764 25.1627 149.558 23.9147 148.662 22.272C147.766 20.608 147.318 18.624 147.318 16.32C147.318 13.0773 147.905 10.2187 149.078 7.74399C150.273 5.26932 151.884 3.35998 153.91 2.01599C155.958 0.671985 158.22 -1.52588e-05 160.694 -1.52588e-05C162.593 -1.52588e-05 164.3 0.426652 165.814 1.27999C167.35 2.13332 168.566 3.39199 169.462 5.05598C170.358 6.69865 170.806 8.67199 170.806 10.976C170.806 14.2187 170.209 17.0773 169.014 19.552C167.841 22.0267 166.23 23.936 164.182 25.28C162.156 26.624 159.905 27.296 157.43 27.296ZM157.75 23.52C159.414 23.52 160.876 23.008 162.134 21.984C163.414 20.96 164.396 19.5413 165.078 17.728C165.761 15.8933 166.102 13.824 166.102 11.52C166.102 8.98132 165.569 7.06132 164.502 5.75998C163.436 4.43732 162.06 3.77599 160.374 3.77599C158.732 3.77599 157.281 4.28799 156.022 5.31199C154.764 6.31465 153.782 7.73332 153.078 9.56799C152.374 11.3813 152.022 13.4507 152.022 15.776C152.022 18.3147 152.556 20.2453 153.622 21.568C154.689 22.8693 156.065 23.52 157.75 23.52Z" fill="#E75B54"/>
<path d="M27.1722 27.296C26.3616 27.296 25.7856 26.8693 25.4442 26.016C25.1242 25.1627 24.9642 23.7973 24.9642 21.92C24.9642 19.1467 25.3589 16.512 26.1482 14.016C26.3402 13.3973 26.6496 12.9493 27.0762 12.672C27.5242 12.3733 28.1429 12.224 28.9322 12.224C29.3589 12.224 29.6576 12.2773 29.8282 12.384C29.9989 12.4907 30.0842 12.6933 30.0842 12.992C30.0842 13.3333 29.9242 14.1013 29.6042 15.296C29.5616 15.4453 29.4656 15.7867 29.3162 16.32C29.1882 16.8533 29.0602 17.4827 28.9322 18.208C28.8256 18.912 28.7509 19.6907 28.7082 20.544C29.4762 17.5573 30.4469 15.424 31.6202 14.144C32.7936 12.864 34.2122 12.224 35.8762 12.224C36.9856 12.224 37.8496 12.576 38.4682 13.28C39.1082 13.9627 39.4282 14.848 39.4282 15.936C39.4282 16.832 39.2256 17.5893 38.8202 18.208C38.4362 18.8267 37.9242 19.136 37.2842 19.136C36.8789 19.136 36.5482 19.04 36.2922 18.848C36.0576 18.656 35.9402 18.3893 35.9402 18.048C35.9402 17.8987 35.9616 17.728 36.0042 17.536C36.0469 17.344 36.0789 17.2053 36.1002 17.12C36.2069 16.8 36.2602 16.5013 36.2602 16.224C36.2602 15.648 35.9829 15.36 35.4282 15.36C35.0016 15.36 34.5856 15.584 34.1802 16.032C33.7749 16.4587 33.4442 17.0453 33.1882 17.792C32.9536 18.5173 32.8362 19.3067 32.8362 20.16C32.8362 21.312 33.1029 22.24 33.6362 22.944C34.1696 23.6267 34.9376 23.968 35.9402 23.968C36.7296 23.968 37.4336 23.712 38.0522 23.2C38.6709 22.6667 39.5242 21.7493 40.6122 20.448C40.8682 20.1493 41.1562 20 41.4762 20C41.7536 20 41.9669 20.128 42.1162 20.384C42.2869 20.64 42.3722 20.992 42.3722 21.44C42.3722 22.2933 42.1696 22.9547 41.7642 23.424C40.8042 24.576 39.8442 25.5147 38.8842 26.24C37.9242 26.944 36.8362 27.296 35.6202 27.296C34.6176 27.296 33.7002 27.0827 32.8682 26.656C32.0576 26.208 31.3962 25.6747 30.8842 25.056C30.3722 24.4373 30.0416 23.84 29.8922 23.264C29.8496 23.4347 29.6896 24.032 29.4122 25.056C29.1776 25.9093 28.9002 26.496 28.5802 26.816C28.2816 27.136 27.8122 27.296 27.1722 27.296ZM43.7112 27.296C42.3886 27.296 41.3326 26.816 40.5432 25.856C39.7539 24.896 39.3592 23.6373 39.3592 22.08C39.3592 20.3733 39.7539 18.7627 40.5432 17.248C41.3326 15.712 42.3779 14.4853 43.6792 13.568C45.0019 12.6293 46.3992 12.16 47.8712 12.16C48.3406 12.16 48.6499 12.256 48.7992 12.448C48.9699 12.6187 49.1086 12.9387 49.2152 13.408C49.6632 13.3227 50.1326 13.28 50.6232 13.28C51.6686 13.28 52.1912 13.6533 52.1912 14.4C52.1912 14.848 52.0312 15.9147 51.7112 17.6C51.2206 20.0533 50.9752 21.76 50.9752 22.72C50.9752 23.04 51.0499 23.296 51.1992 23.488C51.3699 23.68 51.5832 23.776 51.8392 23.776C52.2446 23.776 52.7352 23.52 53.3112 23.008C53.8872 22.4747 54.6659 21.6213 55.6472 20.448C55.9032 20.1493 56.1912 20 56.5112 20C56.7886 20 57.0019 20.128 57.1512 20.384C57.3219 20.64 57.4072 20.992 57.4072 21.44C57.4072 22.2933 57.2046 22.9547 56.7992 23.424C55.9246 24.512 54.9966 25.4293 54.0152 26.176C53.0339 26.9227 52.0846 27.296 51.1672 27.296C50.4632 27.296 49.8126 27.0613 49.2152 26.592C48.6392 26.1013 48.2019 25.44 47.9032 24.608C46.7939 26.4 45.3966 27.296 43.7112 27.296ZM44.8632 24.064C45.3326 24.064 45.7806 23.7867 46.2072 23.232C46.6339 22.6773 46.9432 21.9413 47.1352 21.024L48.3192 15.136C47.4232 15.1573 46.5912 15.4987 45.8232 16.16C45.0766 16.8 44.4792 17.6533 44.0312 18.72C43.5832 19.7867 43.3592 20.9173 43.3592 22.112C43.3592 22.7733 43.4872 23.264 43.7432 23.584C44.0206 23.904 44.3939 24.064 44.8632 24.064ZM71.1905 20.064C71.4678 20.064 71.6812 20.2027 71.8305 20.48C72.0012 20.736 72.0865 21.0667 72.0865 21.472C72.0865 21.9627 72.0118 22.3467 71.8625 22.624C71.7132 22.9013 71.4785 23.1467 71.1585 23.36C69.3238 24.5973 67.9798 25.5147 67.1265 26.112L65.0785 27.488C64.2678 31.904 63.2012 35.3707 61.8785 37.888C60.5772 40.4267 58.9132 41.696 56.8865 41.696C55.7985 41.696 54.9132 41.3547 54.2305 40.672C53.5478 40.0107 53.2065 39.136 53.2065 38.048C53.2065 36.5333 53.8038 34.9013 54.9985 33.152C56.1932 31.424 58.4332 29.2907 61.7185 26.752L61.9105 25.504C61.5478 26.08 61.0678 26.528 60.4705 26.848C59.8945 27.1467 59.3185 27.296 58.7425 27.296C57.4198 27.296 56.3638 26.816 55.5745 25.856C54.7852 24.896 54.3905 23.6373 54.3905 22.08C54.3905 20.3733 54.7852 18.7627 55.5745 17.248C56.3638 15.712 57.4092 14.4853 58.7105 13.568C60.0332 12.6293 61.4305 12.16 62.9025 12.16C63.3718 12.16 63.6812 12.256 63.8305 12.448C64.0012 12.6187 64.1398 12.9387 64.2465 13.408C64.6518 13.3227 65.1212 13.28 65.6545 13.28C66.1878 13.28 66.5612 13.3653 66.7745 13.536C67.0092 13.6853 67.1265 13.9947 67.1265 14.464C67.1265 14.72 67.1158 14.9227 67.0945 15.072C67.0092 15.7333 66.7425 17.408 66.2945 20.096C66.2092 20.608 66.1132 21.1733 66.0065 21.792C65.9212 22.3893 65.8252 23.0293 65.7185 23.712C67.3612 22.432 68.9398 21.3013 70.4545 20.32C70.7318 20.1493 70.9772 20.064 71.1905 20.064ZM59.8945 24.064C60.3852 24.064 60.8545 23.7653 61.3025 23.168C61.7505 22.5707 62.0705 21.7173 62.2625 20.608L63.2865 15.136C62.4118 15.1573 61.6012 15.4987 60.8545 16.16C60.1078 16.8 59.5105 17.6533 59.0625 18.72C58.6145 19.7867 58.3905 20.9173 58.3905 22.112C58.3905 22.7733 58.5185 23.264 58.7745 23.584C59.0518 23.904 59.4252 24.064 59.8945 24.064ZM57.2385 38.592C57.7718 38.592 58.3692 37.952 59.0305 36.672C59.7132 35.392 60.3638 33.3547 60.9825 30.56C59.3398 31.968 58.1558 33.2373 57.4305 34.368C56.7052 35.4987 56.3425 36.4907 56.3425 37.344C56.3425 37.7067 56.4065 38.0053 56.5345 38.24C56.6838 38.4747 56.9185 38.592 57.2385 38.592ZM84.391 20C84.6683 20 84.8817 20.128 85.031 20.384C85.2017 20.64 85.287 20.992 85.287 21.44C85.287 22.2933 85.0843 22.9547 84.679 23.424C83.8897 24.384 82.7697 25.2693 81.319 26.08C79.8897 26.8907 78.3537 27.296 76.711 27.296C74.471 27.296 72.7323 26.688 71.495 25.472C70.2577 24.256 69.639 22.592 69.639 20.48C69.639 19.008 69.9483 17.6427 70.567 16.384C71.1857 15.104 72.039 14.0907 73.127 13.344C74.2363 12.5973 75.4843 12.224 76.871 12.224C78.1083 12.224 79.1003 12.5973 79.847 13.344C80.5937 14.0693 80.967 15.0613 80.967 16.32C80.967 17.792 80.4337 19.0613 79.367 20.128C78.3217 21.1733 76.5403 22.0053 74.023 22.624C74.5563 23.6053 75.5697 24.096 77.063 24.096C78.023 24.096 79.111 23.7653 80.327 23.104C81.5643 22.4213 82.631 21.536 83.527 20.448C83.783 20.1493 84.071 20 84.391 20ZM76.327 15.36C75.5377 15.36 74.8657 15.8187 74.311 16.736C73.7777 17.6533 73.511 18.7627 73.511 20.064V20.128C74.7697 19.8293 75.7617 19.3813 76.487 18.784C77.2123 18.1867 77.575 17.4933 77.575 16.704C77.575 16.2987 77.4577 15.9787 77.223 15.744C77.0097 15.488 76.711 15.36 76.327 15.36ZM107.865 20C108.143 20 108.356 20.128 108.505 20.384C108.676 20.64 108.761 20.992 108.761 21.44C108.761 22.3147 108.559 22.9867 108.153 23.456C107.172 24.608 106.212 25.536 105.273 26.24C104.356 26.944 103.343 27.296 102.233 27.296C101.103 27.296 100.292 26.8693 99.8015 26.016C99.3108 25.1627 99.0655 23.9253 99.0655 22.304C99.0655 20.896 99.2362 19.136 99.5775 17.024H99.5135C98.9802 17.9413 98.4788 18.976 98.0095 20.128C97.5402 21.28 97.0175 22.6453 96.4415 24.224L95.8975 25.664C95.6628 26.304 95.3855 26.7413 95.0655 26.976C94.7455 27.1893 94.3615 27.296 93.9135 27.296C93.4442 27.296 93.1028 27.168 92.8895 26.912C92.6762 26.656 92.4842 26.2507 92.3135 25.696C92.1215 25.056 91.9615 24.1813 91.8335 23.072C91.7055 21.9413 91.6415 20.8 91.6415 19.648C91.6415 18.944 91.6735 18.272 91.7375 17.632H91.6735C91.1402 19.7013 90.6175 21.408 90.1055 22.752C89.5935 24.0747 88.9002 25.1627 88.0255 26.016C87.1508 26.848 86.0415 27.264 84.6975 27.264C83.5668 27.264 82.6922 26.8693 82.0735 26.08C81.4762 25.2907 81.1775 24.2987 81.1775 23.104C81.1775 22.0373 81.4228 21.152 81.9135 20.448C82.4042 19.7227 83.0975 19.36 83.9935 19.36C84.8468 19.36 85.2735 19.648 85.2735 20.224C85.2735 20.3307 85.2628 20.416 85.2415 20.48C85.0708 21.504 84.9855 22.2293 84.9855 22.656C84.9855 23.3813 85.1455 23.744 85.4655 23.744C85.7642 23.744 86.0628 23.5307 86.3615 23.104C86.6602 22.656 87.0762 21.696 87.6095 20.224C88.3348 18.24 89.0175 16.2133 89.6575 14.144C89.8708 13.4827 90.1802 13.0027 90.5855 12.704C91.0122 12.384 91.5775 12.224 92.2815 12.224C92.8788 12.224 93.3695 12.3413 93.7535 12.576C94.1588 12.8107 94.3615 13.1947 94.3615 13.728C94.3615 16.8213 94.4362 19.1787 94.5855 20.8H94.6495C95.0122 19.584 95.5775 18.1867 96.3455 16.608C97.1135 15.0293 97.7215 13.9947 98.1695 13.504C98.5748 13.0773 98.9802 12.7573 99.3855 12.544C99.8122 12.3093 100.281 12.192 100.793 12.192C101.561 12.192 102.084 12.3627 102.361 12.704C102.639 13.024 102.777 13.632 102.777 14.528C102.777 15.0187 102.767 15.5093 102.745 16C102.724 16.4693 102.703 16.9067 102.681 17.312C102.596 18.8907 102.553 20.064 102.553 20.832C102.553 22.048 102.639 22.8693 102.809 23.296C102.98 23.7227 103.3 23.936 103.769 23.936C104.623 23.936 105.7 22.816 107.001 20.576C107.236 20.192 107.524 20 107.865 20ZM109.445 27.296C108.485 27.296 107.696 26.8587 107.077 25.984C106.48 25.088 106.181 23.9787 106.181 22.656C106.181 21.056 106.288 19.5947 106.501 18.272C106.715 16.928 107.067 15.5093 107.557 14.016C107.771 13.376 108.069 12.9173 108.453 12.64C108.837 12.3627 109.445 12.224 110.277 12.224C110.747 12.224 111.067 12.2987 111.237 12.448C111.429 12.5973 111.525 12.8213 111.525 13.12C111.525 13.2907 111.408 13.8667 111.173 14.848C110.96 15.6373 110.789 16.352 110.661 16.992C110.235 19.232 110.021 20.7253 110.021 21.472C110.021 21.92 110.075 22.24 110.181 22.432C110.288 22.6027 110.459 22.688 110.693 22.688C111.013 22.688 111.408 22.368 111.877 21.728C112.368 21.088 112.88 20.1173 113.413 18.816C113.968 17.5147 114.501 15.9147 115.013 14.016C115.184 13.376 115.44 12.9173 115.781 12.64C116.144 12.3627 116.677 12.224 117.381 12.224C117.872 12.224 118.213 12.288 118.405 12.416C118.597 12.5227 118.693 12.736 118.693 13.056C118.693 13.5893 118.427 15.0507 117.893 17.44C117.296 20.1707 116.997 21.856 116.997 22.496C116.997 22.9013 117.083 23.2213 117.253 23.456C117.424 23.6693 117.648 23.776 117.925 23.776C118.352 23.776 118.853 23.52 119.429 23.008C120.027 22.4747 120.816 21.6213 121.797 20.448C122.053 20.1493 122.341 20 122.661 20C122.939 20 123.152 20.128 123.301 20.384C123.472 20.64 123.557 20.992 123.557 21.44C123.557 22.2933 123.355 22.9547 122.949 23.424C122.032 24.5547 121.04 25.4827 119.973 26.208C118.928 26.9333 117.733 27.296 116.389 27.296C115.365 27.296 114.608 26.9013 114.117 26.112C113.648 25.3227 113.413 24.2133 113.413 22.784C113.051 24.2347 112.507 25.3547 111.781 26.144C111.056 26.912 110.277 27.296 109.445 27.296ZM140.035 20C140.312 20 140.525 20.128 140.675 20.384C140.845 20.64 140.931 20.992 140.931 21.44C140.931 22.2933 140.728 22.9547 140.323 23.424C139.213 24.7253 138.147 25.696 137.123 26.336C136.099 26.976 135.085 27.296 134.083 27.296C133.208 27.296 132.536 26.9867 132.067 26.368C131.597 25.7493 131.363 24.864 131.363 23.712C131.363 23.0933 131.427 22.4213 131.555 21.696H131.491C129.507 25.4293 126.979 27.296 123.907 27.296C122.584 27.296 121.507 26.912 120.675 26.144C119.864 25.376 119.459 24.3627 119.459 23.104C119.459 21.9947 119.704 21.12 120.195 20.48C120.707 19.84 121.4 19.52 122.275 19.52C123.043 19.52 123.427 19.8293 123.427 20.448C123.427 20.5333 123.405 20.6827 123.363 20.896C123.32 21.2373 123.299 21.4933 123.299 21.664C123.299 22.3467 123.448 22.912 123.747 23.36C124.045 23.808 124.451 24.032 124.963 24.032C125.624 24.032 126.296 23.8293 126.979 23.424C127.661 22.9973 128.333 22.4 128.995 21.632H128.579C127.299 21.632 126.275 21.2267 125.507 20.416C124.76 19.6053 124.387 18.5173 124.387 17.152C124.387 15.5733 124.845 14.3573 125.763 13.504C126.68 12.6293 127.96 12.192 129.603 12.192C130.755 12.192 131.939 12.3733 133.155 12.736C133.389 12.416 133.88 12.256 134.627 12.256C135.053 12.256 135.384 12.3627 135.619 12.576C135.875 12.768 135.981 13.0347 135.939 13.376C135.896 13.9093 135.704 14.8587 135.363 16.224C135.043 17.5893 134.797 18.7627 134.627 19.744C134.456 20.7253 134.371 21.6427 134.371 22.496C134.371 22.9013 134.445 23.2213 134.595 23.456C134.765 23.6693 135 23.776 135.299 23.776C135.704 23.776 136.195 23.5307 136.771 23.04C137.347 22.5493 138.147 21.6853 139.171 20.448C139.405 20.1493 139.693 20 140.035 20ZM130.691 19.168C131.416 17.9093 131.992 16.5653 132.419 15.136C131.651 14.9013 130.968 14.784 130.371 14.784C129.517 14.784 128.856 14.9867 128.387 15.392C127.917 15.7973 127.683 16.3733 127.683 17.12C127.683 17.7173 127.875 18.2187 128.259 18.624C128.664 19.0293 129.165 19.232 129.763 19.232C130.04 19.232 130.349 19.2107 130.691 19.168ZM189.515 20C189.792 20 190.006 20.128 190.155 20.384C190.326 20.64 190.411 20.992 190.411 21.44C190.411 22.2933 190.208 22.9547 189.803 23.424C188.822 24.5547 187.808 25.4827 186.763 26.208C185.739 26.9333 184.566 27.296 183.243 27.296C182.134 27.296 181.355 26.9547 180.907 26.272C180.459 25.5893 180.235 24.5653 180.235 23.2C180.235 22.624 180.288 21.9307 180.395 21.12C178.518 21.12 177.216 21.0987 176.491 21.056C176.448 21.6533 176.427 22.0693 176.427 22.304V22.976C176.406 24.2987 176.374 25.2267 176.331 25.76C176.288 26.2933 176.16 26.688 175.947 26.944C175.734 27.1787 175.382 27.296 174.891 27.296C174.08 27.296 173.504 26.8693 173.163 26.016C172.843 25.1627 172.683 23.7973 172.683 21.92C172.683 19.1467 173.078 16.512 173.867 14.016C174.059 13.3973 174.368 12.9493 174.795 12.672C175.222 12.3733 175.84 12.224 176.651 12.224C177.078 12.224 177.376 12.2773 177.547 12.384C177.718 12.4907 177.803 12.6933 177.803 12.992C177.803 13.3333 177.643 14.1013 177.323 15.296C177.152 16 176.992 16.8533 176.843 17.856H180.939C181.152 16.8533 181.462 15.5733 181.867 14.016C182.038 13.376 182.294 12.9173 182.635 12.64C182.998 12.3627 183.531 12.224 184.235 12.224C184.726 12.224 185.067 12.288 185.259 12.416C185.451 12.5227 185.547 12.736 185.547 13.056C185.547 13.5893 185.28 15.0507 184.747 17.44C184.15 20.1707 183.851 21.856 183.851 22.496C183.851 22.9013 183.936 23.2213 184.107 23.456C184.278 23.6693 184.502 23.776 184.779 23.776C185.206 23.776 185.707 23.52 186.283 23.008C186.88 22.4747 187.67 21.6213 188.651 20.448C188.907 20.1493 189.195 20 189.515 20ZM206.686 20C206.964 20 207.177 20.128 207.326 20.384C207.497 20.64 207.582 20.992 207.582 21.44C207.582 22.2933 207.38 22.9547 206.974 23.424C206.27 24.256 205.652 24.928 205.118 25.44C204.606 25.9307 203.966 26.368 203.198 26.752C202.452 27.1147 201.598 27.296 200.638 27.296C199.38 27.296 198.484 26.8053 197.95 25.824C197.417 24.8213 197.15 23.3173 197.15 21.312C197.15 20.3093 197.193 19.3387 197.278 18.4H197.214C196.361 21.2373 195.305 23.424 194.046 24.96C192.809 26.496 191.39 27.264 189.79 27.264C188.702 27.264 187.849 26.8693 187.23 26.08C186.612 25.2907 186.302 24.2987 186.302 23.104C186.302 22.0373 186.548 21.1733 187.038 20.512C187.529 19.8507 188.222 19.52 189.118 19.52C189.524 19.52 189.822 19.6053 190.014 19.776C190.228 19.9467 190.313 20.1813 190.27 20.48C190.1 21.504 190.014 22.208 190.014 22.592C190.014 23.36 190.206 23.744 190.59 23.744C190.804 23.744 191.038 23.584 191.294 23.264C191.572 22.944 192.03 22.1653 192.67 20.928C193.161 19.9893 193.662 18.9333 194.174 17.76C194.708 16.5867 195.145 15.5413 195.486 14.624C195.828 13.728 196.222 13.12 196.67 12.8C197.118 12.4587 197.758 12.288 198.59 12.288C199.401 12.288 199.998 12.448 200.382 12.768C200.766 13.088 200.958 13.6107 200.958 14.336L200.894 16.704C200.809 18.496 200.766 19.7867 200.766 20.576C200.766 22.816 201.225 23.936 202.142 23.936C202.526 23.936 202.9 23.7547 203.262 23.392C203.646 23.0293 204.233 22.368 205.022 21.408L205.822 20.448C206.078 20.1493 206.366 20 206.686 20ZM208.992 27.296C207.67 27.296 206.614 26.816 205.824 25.856C205.035 24.896 204.64 23.6373 204.64 22.08C204.64 20.3733 205.035 18.7627 205.824 17.248C206.614 15.712 207.659 14.4853 208.96 13.568C210.283 12.6293 211.68 12.16 213.152 12.16C213.622 12.16 213.931 12.256 214.08 12.448C214.251 12.6187 214.39 12.9387 214.496 13.408C214.944 13.3227 215.414 13.28 215.904 13.28C216.95 13.28 217.472 13.6533 217.472 14.4C217.472 14.848 217.312 15.9147 216.992 17.6C216.502 20.0533 216.256 21.76 216.256 22.72C216.256 23.04 216.331 23.296 216.48 23.488C216.651 23.68 216.864 23.776 217.12 23.776C217.526 23.776 218.016 23.52 218.592 23.008C219.168 22.4747 219.947 21.6213 220.928 20.448C221.184 20.1493 221.472 20 221.792 20C222.07 20 222.283 20.128 222.432 20.384C222.603 20.64 222.688 20.992 222.688 21.44C222.688 22.2933 222.486 22.9547 222.08 23.424C221.206 24.512 220.278 25.4293 219.296 26.176C218.315 26.9227 217.366 27.296 216.448 27.296C215.744 27.296 215.094 27.0613 214.496 26.592C213.92 26.1013 213.483 25.44 213.184 24.608C212.075 26.4 210.678 27.296 208.992 27.296ZM210.144 24.064C210.614 24.064 211.062 23.7867 211.488 23.232C211.915 22.6773 212.224 21.9413 212.416 21.024L213.6 15.136C212.704 15.1573 211.872 15.4987 211.104 16.16C210.358 16.8 209.76 17.6533 209.312 18.72C208.864 19.7867 208.64 20.9173 208.64 22.112C208.64 22.7733 208.768 23.264 209.024 23.584C209.302 23.904 209.675 24.064 210.144 24.064ZM223.352 27.296C222.392 27.296 221.602 26.8587 220.984 25.984C220.386 25.088 220.088 23.9787 220.088 22.656C220.088 21.056 220.194 19.5947 220.408 18.272C220.621 16.928 220.973 15.5093 221.464 14.016C221.677 13.376 221.976 12.9173 222.36 12.64C222.744 12.3627 223.352 12.224 224.184 12.224C224.653 12.224 224.973 12.2987 225.144 12.448C225.336 12.5973 225.432 12.8213 225.432 13.12C225.432 13.2907 225.314 13.8667 225.08 14.848C224.866 15.6373 224.696 16.352 224.568 16.992C224.141 19.232 223.928 20.7253 223.928 21.472C223.928 21.92 223.981 22.24 224.088 22.432C224.194 22.6027 224.365 22.688 224.6 22.688C224.92 22.688 225.314 22.368 225.784 21.728C226.274 21.088 226.786 20.1173 227.32 18.816C227.874 17.5147 228.408 15.9147 228.92 14.016C229.09 13.376 229.346 12.9173 229.688 12.64C230.05 12.3627 230.584 12.224 231.288 12.224C231.778 12.224 232.12 12.288 232.312 12.416C232.504 12.5227 232.6 12.736 232.6 13.056C232.6 13.5893 232.333 15.0507 231.8 17.44C231.202 20.1707 230.904 21.856 230.904 22.496C230.904 22.9013 230.989 23.2213 231.16 23.456C231.33 23.6693 231.554 23.776 231.832 23.776C232.258 23.776 232.76 23.52 233.336 23.008C233.933 22.4747 234.722 21.6213 235.704 20.448C235.96 20.1493 236.248 20 236.568 20C236.845 20 237.058 20.128 237.208 20.384C237.378 20.64 237.464 20.992 237.464 21.44C237.464 22.2933 237.261 22.9547 236.856 23.424C235.938 24.5547 234.946 25.4827 233.88 26.208C232.834 26.9333 231.64 27.296 230.296 27.296C229.272 27.296 228.514 26.9013 228.024 26.112C227.554 25.3227 227.32 24.2133 227.32 22.784C226.957 24.2347 226.413 25.3547 225.688 26.144C224.962 26.912 224.184 27.296 223.352 27.296ZM226.808 10.112C225.826 10.112 224.962 9.90932 224.216 9.50399C223.469 9.09865 222.893 8.56532 222.488 7.90399C222.082 7.24265 221.88 6.53865 221.88 5.79198C221.88 5.25865 222.05 4.83199 222.392 4.51199C222.733 4.17065 223.17 3.99998 223.704 3.99998C224.258 3.99998 224.664 4.12799 224.92 4.38399C225.176 4.63998 225.378 5.07732 225.528 5.69599C225.741 6.59199 226.328 7.03999 227.288 7.03999C228.29 7.03999 229.154 6.76265 229.88 6.20798C230.605 5.63198 231.128 4.93865 231.448 4.12799C231.618 3.70132 231.81 3.40265 232.024 3.23199C232.237 3.03999 232.514 2.94398 232.856 2.94398C233.176 2.94398 233.442 3.07199 233.656 3.32799C233.89 3.56265 234.008 3.86132 234.008 4.22399L233.944 4.60798C233.73 5.48265 233.336 6.33599 232.76 7.16799C232.184 7.99999 231.394 8.70399 230.392 9.27999C229.389 9.83465 228.194 10.112 226.808 10.112ZM251.765 20C252.042 20 252.256 20.128 252.405 20.384C252.576 20.64 252.661 20.992 252.661 21.44C252.661 22.2933 252.458 22.9547 252.053 23.424C251.072 24.5547 250.058 25.4827 249.013 26.208C247.989 26.9333 246.816 27.296 245.493 27.296C244.384 27.296 243.605 26.9547 243.157 26.272C242.709 25.5893 242.485 24.5653 242.485 23.2C242.485 22.624 242.538 21.9307 242.645 21.12C240.768 21.12 239.466 21.0987 238.741 21.056C238.698 21.6533 238.677 22.0693 238.677 22.304V22.976C238.656 24.2987 238.624 25.2267 238.581 25.76C238.538 26.2933 238.41 26.688 238.197 26.944C237.984 27.1787 237.632 27.296 237.141 27.296C236.33 27.296 235.754 26.8693 235.413 26.016C235.093 25.1627 234.933 23.7973 234.933 21.92C234.933 19.1467 235.328 16.512 236.117 14.016C236.309 13.3973 236.618 12.9493 237.045 12.672C237.472 12.3733 238.09 12.224 238.901 12.224C239.328 12.224 239.626 12.2773 239.797 12.384C239.968 12.4907 240.053 12.6933 240.053 12.992C240.053 13.3333 239.893 14.1013 239.573 15.296C239.402 16 239.242 16.8533 239.093 17.856H243.189C243.402 16.8533 243.712 15.5733 244.117 14.016C244.288 13.376 244.544 12.9173 244.885 12.64C245.248 12.3627 245.781 12.224 246.485 12.224C246.976 12.224 247.317 12.288 247.509 12.416C247.701 12.5227 247.797 12.736 247.797 13.056C247.797 13.5893 247.53 15.0507 246.997 17.44C246.4 20.1707 246.101 21.856 246.101 22.496C246.101 22.9013 246.186 23.2213 246.357 23.456C246.528 23.6693 246.752 23.776 247.029 23.776C247.456 23.776 247.957 23.52 248.533 23.008C249.13 22.4747 249.92 21.6213 250.901 20.448C251.157 20.1493 251.445 20 251.765 20Z" fill="#4269A7"/>
</svg>
