<svg width="613" height="454" viewBox="0 0 613 454" fill="none" xmlns="http://www.w3.org/2000/svg">
<path d="M589.525 248.28L576.419 230.805C576.419 230.805 517.571 170.038 515.475 101.469C513.38 32.8992 487.322 23.6821 424.964 19.3757C372.244 15.7346 311.303 5.41119 262.32 44.3248C240.823 61.4019 215.381 70.0821 189.586 69.0435L132.729 66.7547C105.603 65.6626 78.9077 75.2897 56.8497 94.198C24.1495 122.229 -11.0642 173.83 3.30189 261.591C5.7412 276.493 7.28378 292.114 7.5258 307.294L8.12057 344.583C8.64291 377.33 30.5365 403.766 57.888 404.465L484.633 415.375C528.504 416.497 570.678 395.381 600.818 357.233C608.855 347.061 613.215 333.514 612.992 319.508C612.572 293.172 604.231 267.889 589.525 248.28Z" fill="url(#paint0_linear_24_969)"/>
<path d="M600.42 73.7906C607.441 111.218 639.545 331.449 442.246 415.885C442.246 415.885 384.502 279.444 595.219 72.3488C597.063 70.5367 599.962 71.3452 600.42 73.7906Z" fill="#91B3FA"/>
<path d="M583.979 110.115C581.782 123.264 579.105 136.266 576.233 149.218C573.332 162.158 570.172 175.02 566.757 187.789C559.948 213.337 552.028 238.485 542.982 263.084C538.404 275.356 533.527 287.476 528.334 299.417C523.062 311.31 517.448 322.998 511.453 334.426C505.355 345.779 498.88 356.862 491.911 367.528C484.844 378.106 477.301 388.256 469.202 397.801C468.751 398.332 468.016 398.336 467.562 397.81C467.106 397.283 467.103 396.426 467.554 395.895L467.558 395.89L467.57 395.875C475.627 386.47 483.15 376.45 490.209 365.989C497.172 355.438 503.654 344.459 509.767 333.2C515.779 321.865 521.417 310.261 526.718 298.443C531.94 286.577 536.853 274.524 541.468 262.314C550.589 237.838 558.598 212.789 565.5 187.327C568.963 174.601 572.17 161.778 575.121 148.876C578.041 135.968 580.771 122.981 583.013 109.904L583.015 109.893C583.068 109.582 583.327 109.38 583.593 109.443C583.859 109.504 584.032 109.804 583.979 110.115Z" fill="#BDD0FB"/>
<path d="M515.538 2.12072C532.599 41.441 622.548 274.635 419.447 405.668C419.447 405.668 320.813 268.714 509.292 1.58505C510.941 -0.751389 514.423 -0.448073 515.538 2.12072Z" fill="#BDD0FB"/>
<path d="M505.613 44.8407C506.073 52.2658 506.317 59.6838 506.494 67.1118C506.661 74.5382 506.723 81.9672 506.697 89.3955C506.648 104.253 506.222 119.108 505.448 133.939C503.872 163.595 500.889 193.179 495.983 222.363C491.066 251.525 484.257 280.344 474.547 307.895C469.698 321.664 464.085 335.085 457.588 347.921C454.317 354.32 450.875 360.609 447.143 366.666C443.406 372.716 439.444 378.579 435.246 384.212C434.86 384.731 434.187 384.785 433.743 384.334C433.298 383.883 433.252 383.097 433.638 382.579L433.641 382.575L433.647 382.566C437.815 377.018 441.755 371.236 445.475 365.264C449.19 359.285 452.623 353.071 455.888 346.74C462.374 334.044 467.994 320.743 472.862 307.08C482.609 279.738 489.494 251.066 494.495 222.018C499.486 192.948 502.565 163.443 504.24 133.849C505.063 119.049 505.54 104.221 505.64 89.3877C505.692 81.9714 505.656 74.5541 505.514 67.1397C505.364 59.7285 505.144 52.307 504.712 44.9227L504.712 44.9143C504.695 44.6236 504.883 44.3721 505.131 44.3527C505.38 44.3329 505.595 44.5504 505.613 44.8407Z" fill="#BDD0FB"/>
<path d="M607.573 254.471C603.967 278.364 578.116 416.407 462.814 411.352C462.814 411.352 459.797 315.357 605.233 252.187C606.506 251.634 607.809 252.91 607.573 254.471Z" fill="#BDD0FB"/>
<path d="M592.678 271.357C589.352 278.411 585.607 285.109 581.713 291.708C577.803 298.287 573.674 304.689 569.375 310.929C565.072 317.167 560.589 323.236 555.943 329.133C551.281 335.011 546.448 340.705 541.469 346.223C536.499 351.753 531.304 357.002 526.019 362.121C523.345 364.637 520.682 367.17 517.928 369.567C515.22 372.037 512.405 374.338 509.622 376.69C498.379 385.917 486.525 394.142 474.202 401.286C473.512 401.686 472.676 401.357 472.333 400.552C471.991 399.747 472.273 398.77 472.962 398.371L472.974 398.363L472.983 398.358C485.23 391.432 497.037 383.423 508.258 374.404C511.036 372.104 513.847 369.855 516.552 367.436C519.305 365.089 521.967 362.606 524.642 360.141C529.928 355.121 535.131 349.968 540.113 344.531C545.104 339.107 549.954 333.504 554.639 327.713C559.306 321.904 563.815 315.919 568.147 309.763C572.476 303.605 576.637 297.283 580.582 290.782C584.505 284.273 588.304 277.614 591.636 270.707L591.647 270.686C591.807 270.354 592.166 270.237 592.451 270.424C592.733 270.61 592.834 271.026 592.678 271.357Z" fill="url(#paint1_linear_24_969)"/>
<path d="M62.448 8.6216C51.8939 49.0288 -1.29977 287.104 181.073 385.515C181.073 385.515 250.648 239.307 67.6239 7.23269C66.0228 5.2028 63.1374 5.98184 62.448 8.6216Z" fill="#BDD0FB"/>
<path d="M75.6621 48.5054C76.3698 62.6612 77.5849 76.8052 79.0378 90.8965C80.5013 104.99 82.2562 119.043 84.3092 133.034C88.424 161.012 93.6731 188.776 100.462 216.023C107.273 243.247 115.596 270.008 126.319 295.435C128.981 301.8 131.85 308.042 134.851 314.19C137.846 320.343 141.042 326.36 144.428 332.223C151.162 343.978 158.764 355.048 167.224 365.126L167.231 365.135C167.671 365.659 167.664 366.502 167.215 367.017C166.765 367.531 166.043 367.523 165.603 366.998L165.599 366.993C157.061 356.731 149.42 345.494 142.671 333.597C139.276 327.663 136.077 321.579 133.084 315.364C130.084 309.155 127.22 302.855 124.567 296.438C113.878 270.8 105.63 243.89 98.9029 216.549C92.1994 189.184 87.0471 161.335 83.0327 133.286C81.0303 119.259 79.3267 105.175 77.9157 91.0517C76.5149 76.9258 75.3531 62.7742 74.6973 48.5569C74.6829 48.2462 74.8872 47.9804 75.1533 47.9639C75.4195 47.9471 75.6471 48.1856 75.6612 48.4963L75.6621 48.5054Z" fill="url(#paint2_linear_24_969)"/>
<path d="M24.4955 202.487C23.4709 226.495 22.3943 366.493 134.727 391.27C134.727 391.27 155.756 299.317 27.1869 200.883C26.0623 200.022 24.5624 200.919 24.4955 202.487Z" fill="#91B3FA"/>
<path d="M36.7135 222.285C38.8211 229.78 41.1894 237.198 43.6503 244.558C46.1241 251.916 48.7399 259.209 51.4815 266.435C54.2189 273.663 57.1111 280.81 60.1361 287.877C63.1713 294.937 66.308 301.94 69.6644 308.796C76.3376 322.529 83.6669 335.838 91.9193 348.315C92.9202 349.903 94.0212 351.396 95.07 352.939L96.6609 355.235C97.1904 356.001 97.7583 356.729 98.305 357.478C99.4146 358.96 100.498 360.47 101.629 361.928L105.073 366.245C109.751 371.903 114.694 377.252 119.958 382.124L119.97 382.135C120.453 382.583 120.534 383.402 120.151 383.967C119.768 384.531 119.066 384.626 118.583 384.179L118.576 384.173C113.246 379.161 108.268 373.684 103.571 367.912L100.115 363.511C98.9814 362.025 97.8973 360.49 96.7863 358.983C96.2393 358.221 95.6706 357.48 95.1411 356.702L93.5505 354.369C92.5025 352.802 91.4017 351.284 90.4034 349.674C82.1665 337.014 74.8885 323.56 68.2789 309.705C64.9542 302.787 61.8535 295.729 58.8558 288.617C55.8689 281.498 53.0166 274.303 50.3205 267.03C47.6206 259.759 45.0483 252.424 42.6184 245.026C40.1999 237.62 37.8814 230.18 35.8109 222.616C35.7312 222.325 35.8686 222.014 36.1173 221.921C36.3649 221.829 36.6296 221.987 36.7107 222.275L36.7135 222.285Z" fill="#BDD0FB"/>
<path d="M491.334 387.68C491.334 391.993 488.308 395.523 484.61 395.523H121.019C117.321 395.523 114.295 391.993 114.295 387.68L111.269 143.716C111.269 139.403 115.622 130.981 123.599 131.614L478.941 120.879C483.581 120.739 488.067 122.823 491.353 126.648C494.639 130.472 496.436 135.7 496.327 141.113L491.334 387.68Z" fill="url(#paint3_linear_24_969)"/>
<path d="M484.696 380.155C484.696 384.24 481.833 387.582 478.335 387.582H129.787C126.288 387.582 123.426 384.24 123.426 380.155L120.571 158.683C120.907 145.355 130.915 140.565 136.981 140.848L477.554 130.18C480.813 130.078 483.966 131.543 486.274 134.233C488.582 136.923 489.842 140.602 489.761 144.408L484.696 380.155Z" fill="url(#paint4_linear_24_969)"/>
<g opacity="0.65">
<path d="M127.192 274.552C126.865 274.552 126.597 274.245 126.592 273.862L126.367 255.901C126.362 255.514 126.627 255.195 126.958 255.19C127.279 255.169 127.562 255.493 127.567 255.88L127.793 273.841C127.798 274.228 127.533 274.546 127.201 274.552C127.199 274.552 127.196 274.552 127.192 274.552Z" fill="white"/>
<path d="M126.639 230.538C126.312 230.538 126.044 230.232 126.039 229.848L125.174 161.057C125.192 156.433 126.413 152.738 128.804 150.064C133.147 145.204 139.938 145.448 140.225 145.461L248.977 142.054C249.305 142.019 249.584 142.348 249.593 142.735C249.602 143.122 249.34 143.444 249.009 143.455L140.222 146.863C139.913 146.848 133.614 146.623 129.634 151.076C127.488 153.478 126.391 156.834 126.375 161.05L127.24 229.828C127.245 230.215 126.98 230.533 126.648 230.539C126.645 230.538 126.642 230.538 126.639 230.538Z" fill="white"/>
</g>
<path d="M148.125 336.989C148.434 321.47 148.319 184.044 147.556 172.176C146.794 160.307 162.625 158.081 186.931 156.745C211.237 155.409 416.317 150.121 421.598 149.621C433.467 148.497 435.924 169.211 434.736 214.18C433.844 247.964 432.366 303.617 431.685 329.211C431.483 336.832 426.148 342.878 419.618 342.899C370.268 343.058 181.121 343.691 168.53 344.128C154.039 344.632 148.002 343.142 148.125 336.989Z" fill="url(#paint5_linear_24_969)"/>
<path d="M511.65 415.775H101.349C96.3006 415.775 92.17 410.952 92.17 405.057C92.17 399.162 96.3006 394.339 101.349 394.339H511.651C516.699 394.339 520.83 399.162 520.83 405.057C520.83 410.952 516.699 415.775 511.65 415.775Z" fill="url(#paint6_linear_24_969)"/>
<path d="M525.193 387.883H521.3V437.041H525.193V387.883Z" fill="#7D97F4"/>
<path d="M540.296 437.989H506.197V436.016C506.197 435.471 506.575 435.03 507.041 435.03H539.452C539.918 435.03 540.295 435.471 540.295 436.016L540.296 437.989Z" fill="#7D97F4"/>
<path d="M545.356 386.177C545.356 388.865 543.472 391.065 541.17 391.065H506.67C504.368 391.065 502.484 388.865 502.484 386.177V381.757C502.484 379.068 504.368 376.868 506.67 376.868H541.17C543.472 376.868 545.356 379.068 545.356 381.757V386.177Z" fill="#7D97F4"/>
<path d="M494.505 355.106C494.505 355.106 488.72 356.153 482.216 361.23C481.192 362.028 480.631 363.421 480.785 364.848C481.563 372.051 484.766 395.365 495.325 418.137C495.882 419.337 496.042 420.735 495.797 422.07L493.962 432.039L490.56 435.763H499.323L505.158 417.327L502.663 416.406C500.729 415.692 499.401 413.614 499.366 411.246L499.074 391.469C499.323 382.658 494.446 376.578 494.446 376.578L508.441 375.784L494.505 355.106Z" fill="url(#paint7_linear_24_969)"/>
<path d="M487.138 437.561C486.34 438.781 495.728 440.39 500.47 437.723C500.47 437.723 507.045 424.367 507.045 417.49C507.045 417.49 506.523 416.088 502.663 416.406C502.663 416.406 500.455 432.22 498.124 433.992C495.793 435.763 491.603 434.171 491.603 434.171C491.603 434.171 488.316 435.762 487.138 437.561Z" fill="url(#paint8_linear_24_969)"/>
<path d="M506.67 376.868C506.596 376.718 491.603 374.763 491.603 374.763C491.603 374.763 492.093 380.086 490.56 387.413C489.026 394.741 467.012 426.486 467.012 426.486L469.141 435.037C462.004 437.939 455.74 437.682 448.832 435.795L462.561 426.486C462.561 426.486 475.948 373.218 484.149 363.715L499.178 357.644L506.67 376.868Z" fill="url(#paint9_linear_24_969)"/>
<path d="M540.296 345.873C540.296 345.873 548.934 360.875 549.643 367.718C550.352 374.561 547.151 379.615 538.213 377.801C508.703 377.551 501.698 390.665 499.713 407.222C499.683 407.476 499.501 407.67 499.281 407.678C489.029 408.064 478.672 405.557 469.248 400.128C468.812 399.877 468.637 399.252 468.858 398.746C483.249 365.852 472.299 359.35 503.263 349.601C507.43 349.016 540.296 345.873 540.296 345.873Z" fill="url(#paint10_linear_24_969)"/>
<path d="M468.449 432.153C468.449 432.153 470.934 434.963 469.255 438.09C469.255 438.09 449.57 442.164 444.225 440.315C444.225 440.315 445.572 437.306 451.59 433.939L450.909 434.389C450.347 434.893 450.677 435.942 451.384 435.895C455.35 435.631 463.557 434.783 468.449 432.153Z" fill="url(#paint11_linear_24_969)"/>
<path d="M516.934 343.887C516.934 343.887 506.874 332.703 501.923 325.295C499.246 321.291 498.406 316.02 499.644 311.15C501.904 302.258 505.922 293.047 506.288 291.613C506.85 289.416 518.129 289.508 518.129 289.508C518.129 289.508 543.864 303.189 549.045 334.817L539.251 338.377C539.251 338.377 533.456 327.025 527.73 319.808C527.73 319.808 537.638 335.09 537.987 341.346L516.934 343.887Z" fill="url(#paint12_linear_24_969)"/>
<path d="M504.924 279.333C505.042 279.79 507.986 291.185 508.216 291.422C508.446 291.658 514.672 292.049 517.603 289.711L512.631 277.559L504.924 279.333Z" fill="url(#paint13_linear_24_969)"/>
<path d="M509.76 255.399C509.76 255.399 504.445 258.019 500.832 266.986C497.218 275.953 499.916 280.093 503.306 280.662C506.696 281.23 511.765 281.144 517.127 275.351C522.489 269.559 516.669 252.293 509.76 255.399Z" fill="url(#paint14_linear_24_969)"/>
<path d="M496.441 344.718L503.831 336.4L514.056 341.443C514.056 341.443 524.233 343.284 530.058 341.443C535.882 339.602 535.882 339.602 535.882 339.602L549.045 334.817L551.112 341.639C551.637 343.371 551.11 345.294 549.827 346.358C548.688 347.303 547.353 348.341 546.503 348.776C544.769 349.661 503.772 348.163 503.772 348.163L496.441 344.718Z" fill="url(#paint15_linear_24_969)"/>
<path d="M524.41 348.639C524.377 348.641 524.344 348.642 524.311 348.641L481.438 348.587C480.378 348.586 479.52 347.582 479.521 346.344C479.522 345.106 480.386 344.083 481.443 344.106L524.316 344.161C525.375 344.162 526.234 345.166 526.233 346.403C526.231 347.602 525.424 348.58 524.41 348.639Z" fill="url(#paint16_linear_24_969)"/>
<path d="M442.897 303.189H478.602C481.236 303.189 483.633 304.964 484.757 307.745L501.263 348.612H456.892C455.194 348.612 453.669 347.401 453.045 345.558L440.245 307.742C439.506 305.557 440.885 303.189 442.897 303.189Z" fill="url(#paint17_linear_24_969)"/>
<path d="M468.052 324.143C468.825 326.949 468.254 329.675 466.775 330.231C465.296 330.787 463.47 328.962 462.696 326.155C461.923 323.348 462.494 320.623 463.973 320.067C465.452 319.511 467.278 321.336 468.052 324.143Z" fill="url(#paint18_linear_24_969)"/>
<path d="M413.715 447.262C413.508 447.262 413.298 447.212 413.095 447.108C412.299 446.699 411.931 445.596 412.274 444.644L445.202 353.2C445.544 352.249 446.467 351.809 447.264 352.218C448.061 352.628 448.428 353.731 448.086 354.683L415.158 446.127C414.903 446.836 414.324 447.262 413.715 447.262Z" fill="#7D97F4"/>
<path d="M450.81 447.262C450.201 447.262 449.622 446.837 449.367 446.126L416.439 354.682C416.096 353.731 416.464 352.628 417.261 352.218C418.057 351.809 418.98 352.248 419.324 353.2L452.251 444.644C452.594 445.596 452.226 446.699 451.43 447.108C451.227 447.212 451.017 447.262 450.81 447.262Z" fill="#7D97F4"/>
<path d="M543.381 447.262C543.174 447.262 542.964 447.212 542.762 447.108C541.965 446.699 541.597 445.596 541.94 444.644L574.868 353.2C575.211 352.249 576.133 351.809 576.931 352.218C577.727 352.628 578.095 353.731 577.752 354.682L544.825 446.126C544.569 446.836 543.99 447.262 543.381 447.262Z" fill="#7D97F4"/>
<path d="M580.476 447.262C579.867 447.262 579.288 446.837 579.033 446.126L546.105 354.682C545.762 353.731 546.13 352.628 546.926 352.218C547.722 351.809 548.646 352.248 548.989 353.2L581.917 444.644C582.26 445.596 581.892 446.699 581.095 447.108C580.893 447.212 580.683 447.262 580.476 447.262Z" fill="#7D97F4"/>
<path d="M584.333 350.468C584.433 349.9 584.297 349.313 583.96 348.867C583.624 348.422 583.124 348.163 582.596 348.163H403.688C402.993 348.163 402.347 348.551 401.973 349.191C401.598 349.832 401.548 350.636 401.84 351.327L403.778 355.919C404.222 356.971 405.184 357.645 406.242 357.645H581.368C582.353 357.645 583.199 356.88 583.386 355.822L584.333 350.468Z" fill="#91B3FA"/>
<path d="M523.659 263.107C520.206 259.476 519.172 250.749 522.163 247.302C529.916 238.372 540.355 254.475 531.744 262.564C530.404 263.823 528.757 264.74 527.038 264.73C525.75 264.723 524.612 264.11 523.659 263.107Z" fill="white"/>
<path d="M501.608 257.789C501.2 259.521 502.533 261.13 504.032 260.728C505.542 260.322 507.4 259.957 509.008 260.03C519.872 260.524 515.639 268.761 515.639 270.078C515.639 272.774 517.908 268.676 518.038 269.584C518.32 271.561 514.831 277.514 514.831 277.514C514.831 277.514 523.964 275.844 526.221 271.891C528.479 267.937 527.692 259.039 526.234 255.847C524.848 252.811 518.694 248.332 515.578 248.316C512.563 248.3 503.859 248.233 501.608 257.789Z" fill="white"/>
<path d="M514.64 272.025C514.64 272.025 516.667 265.267 519.372 267.958C522.076 270.65 517.174 274.201 515.254 275.351L514.64 272.025Z" fill="url(#paint19_linear_24_969)"/>
<g opacity="0.74">
<path d="M163.445 240.794C163.417 240.794 163.389 240.792 163.361 240.788L157.353 239.937C157.059 239.895 156.819 239.64 156.757 239.302L155.731 233.721C153.562 232.774 151.54 231.442 149.717 229.758L145.093 231.623C144.813 231.737 144.502 231.629 144.32 231.357L140.586 225.795C140.403 225.522 140.389 225.144 140.55 224.853L143.206 220.057C142.241 217.587 141.617 214.977 141.348 212.291L136.952 209.795C136.685 209.643 136.53 209.311 136.566 208.967L137.295 201.952C137.33 201.608 137.549 201.329 137.839 201.256L142.619 200.058C143.43 197.526 144.571 195.165 146.012 193.036L144.415 187.638C144.318 187.31 144.41 186.947 144.644 186.734L149.407 182.375C149.641 182.161 149.965 182.145 150.213 182.332L154.321 185.433C156.436 184.308 158.672 183.578 160.972 183.264L163.111 178.131C163.24 177.82 163.524 177.639 163.819 177.681L169.828 178.531C170.122 178.573 170.362 178.828 170.424 179.167L171.449 184.747C173.618 185.694 175.641 187.026 177.464 188.71L182.087 186.844C182.367 186.731 182.678 186.839 182.861 187.111L186.595 192.673C186.778 192.945 186.792 193.324 186.631 193.614L183.975 198.41C184.94 200.88 185.564 203.491 185.833 206.176L190.229 208.673C190.496 208.824 190.651 209.157 190.615 209.5L189.887 216.516C189.851 216.859 189.633 217.139 189.343 217.212L184.563 218.409C183.752 220.942 182.611 223.303 181.169 225.431L182.767 230.83C182.864 231.157 182.772 231.52 182.539 231.734L177.775 236.093C177.542 236.306 177.218 236.323 176.969 236.136L172.861 233.034C170.746 234.16 168.51 234.889 166.21 235.203L164.071 240.336C163.952 240.618 163.708 240.794 163.445 240.794ZM149.825 229.022L149.946 229.135C151.794 230.865 153.854 232.222 156.069 233.168L156.215 233.231L157.305 239.164C157.317 239.23 157.364 239.279 157.42 239.287L163.429 240.138C163.485 240.146 163.541 240.111 163.566 240.051L165.839 234.594L165.993 234.574C168.338 234.273 170.616 233.53 172.764 232.366L172.905 232.29L177.272 235.587C177.319 235.623 177.382 235.62 177.427 235.579L182.191 231.22C182.236 231.178 182.254 231.108 182.235 231.045L180.537 225.306L180.634 225.165C182.116 223.008 183.278 220.602 184.089 218.016L184.142 217.846L189.223 216.573C189.279 216.559 189.322 216.505 189.328 216.438L190.057 209.423C190.064 209.357 190.034 209.292 189.983 209.263L185.308 206.609L185.291 206.429C185.034 203.691 184.398 201.031 183.4 198.523L183.335 198.359L186.159 193.26C186.19 193.204 186.187 193.131 186.152 193.078L182.419 187.516C182.383 187.464 182.324 187.443 182.269 187.465L177.354 189.448L177.233 189.335C175.385 187.605 173.326 186.247 171.11 185.301L170.965 185.239L169.874 179.305C169.862 179.24 169.816 179.191 169.759 179.183L163.751 178.332C163.694 178.324 163.639 178.359 163.614 178.419L161.341 183.876L161.187 183.896C158.842 184.196 156.564 184.94 154.415 186.104L154.275 186.18L149.908 182.883C149.86 182.846 149.798 182.85 149.753 182.891L144.989 187.25C144.944 187.292 144.926 187.362 144.945 187.425L146.643 193.164L146.546 193.305C145.064 195.462 143.902 197.867 143.091 200.454L143.038 200.624L137.956 201.897C137.9 201.911 137.858 201.965 137.851 202.031L137.122 209.047C137.115 209.113 137.145 209.177 137.197 209.206L141.871 211.861L141.888 212.041C142.145 214.778 142.781 217.438 143.779 219.947L143.844 220.111L141.02 225.21C140.989 225.266 140.992 225.339 141.027 225.391L144.761 230.954C144.796 231.006 144.856 231.027 144.91 231.005L149.825 229.022ZM163.727 226.534C163.123 226.534 162.515 226.491 161.905 226.405C159.227 226.026 156.691 224.808 154.571 222.885C154.449 222.774 154.427 222.568 154.522 222.425C154.617 222.282 154.794 222.257 154.916 222.368C156.955 224.218 159.395 225.39 161.973 225.754C169.815 226.865 176.966 220.32 177.917 211.165C178.868 202.01 173.262 193.659 165.421 192.549C157.58 191.438 150.428 197.983 149.477 207.138C149.354 208.323 149.339 209.521 149.431 210.699C149.446 210.88 149.332 211.039 149.178 211.056C149.025 211.073 148.887 210.94 148.873 210.759C148.777 209.535 148.793 208.29 148.921 207.06C149.909 197.546 157.342 190.746 165.489 191.899C173.637 193.052 179.462 201.73 178.474 211.244C177.995 215.852 176.008 219.967 172.879 222.831C170.233 225.252 167.037 226.534 163.727 226.534Z" fill="white"/>
<path d="M163.592 215.841C162.904 215.841 162.216 215.692 161.556 215.395C158.647 214.085 157.192 210.256 158.313 206.86C159.435 203.463 162.714 201.765 165.624 203.074C168.533 204.384 169.988 208.213 168.866 211.609C168.323 213.255 167.263 214.555 165.882 215.27C165.149 215.65 164.371 215.841 163.592 215.841ZM158.837 207.095C157.827 210.155 159.137 213.604 161.757 214.784C163.027 215.355 164.411 215.316 165.655 214.671C166.899 214.027 167.853 212.856 168.343 211.374C169.353 208.314 168.043 204.865 165.422 203.685C162.801 202.505 159.847 204.035 158.837 207.095Z" fill="white"/>
<path d="M206.639 195.547C206.501 195.547 206.366 195.477 206.273 195.349L204.805 193.322C203.734 193.48 202.657 193.452 201.597 193.239L200.053 195.184C199.913 195.36 199.694 195.412 199.507 195.316L196.844 193.944C196.657 193.848 196.542 193.623 196.559 193.385L196.748 190.742C195.899 189.972 195.154 189.062 194.532 188.032L192.261 188.133C192.059 188.141 191.869 187.999 191.795 187.776L190.742 184.607C190.668 184.384 190.724 184.131 190.88 183.977L192.616 182.262C192.48 181.012 192.504 179.754 192.687 178.517L191.021 176.714C190.871 176.551 190.826 176.296 190.908 176.077L192.083 172.967C192.165 172.748 192.359 172.615 192.562 172.635L194.826 172.855C195.485 171.864 196.264 170.995 197.146 170.268L197.06 167.616C197.053 167.377 197.175 167.159 197.366 167.072L200.08 165.843C200.271 165.757 200.488 165.821 200.62 166.004L202.088 168.03C203.159 167.872 204.236 167.9 205.296 168.114L206.84 166.168C206.979 165.993 207.199 165.94 207.386 166.036L210.049 167.408C210.237 167.504 210.351 167.729 210.334 167.967L210.145 170.611C210.995 171.38 211.739 172.291 212.361 173.32L214.632 173.219C214.838 173.212 215.024 173.354 215.098 173.576L216.15 176.745C216.224 176.968 216.169 177.221 216.013 177.376L214.277 179.09C214.413 180.34 214.389 181.598 214.206 182.835L215.872 184.639C216.022 184.801 216.067 185.057 215.985 185.276L214.81 188.386C214.728 188.604 214.536 188.738 214.331 188.718L212.067 188.497C211.408 189.489 210.628 190.358 209.746 191.084L209.833 193.737C209.84 193.976 209.717 194.194 209.527 194.28L206.813 195.509C206.756 195.535 206.697 195.547 206.639 195.547ZM205.034 192.624L206.664 194.874L209.27 193.694L209.174 190.749L209.302 190.647C210.229 189.907 211.04 189.002 211.713 187.958L211.806 187.814L214.32 188.059L215.448 185.073L213.598 183.071L213.626 182.893C213.832 181.61 213.857 180.3 213.701 179.001L213.679 178.822L215.606 176.919L214.595 173.876L212.073 173.988L211.985 173.839C211.351 172.757 210.577 171.809 209.683 171.024L209.559 170.915L209.769 167.98L207.211 166.662L205.497 168.822L205.345 168.789C204.245 168.548 203.124 168.519 202.011 168.702L201.858 168.727L200.228 166.477L197.622 167.657L197.718 170.602L197.59 170.704C196.662 171.445 195.851 172.35 195.178 173.393L195.085 173.537L192.572 173.292L191.443 176.278L193.293 178.28L193.265 178.458C193.059 179.742 193.034 181.051 193.191 182.35L193.212 182.529L191.285 184.431L192.296 187.474L194.818 187.362L194.905 187.512C195.54 188.594 196.315 189.541 197.208 190.327L197.332 190.436L197.122 193.37L199.68 194.688L201.394 192.528L201.546 192.561C202.646 192.802 203.768 192.831 204.88 192.648L205.034 192.624ZM203.503 189.189C202.502 189.189 201.502 188.945 200.558 188.459C199.346 187.835 198.304 186.841 197.544 185.585C197.454 185.437 197.484 185.233 197.611 185.129C197.737 185.024 197.912 185.059 198.002 185.207C198.703 186.366 199.666 187.283 200.784 187.86C202.433 188.708 204.265 188.757 205.944 187.996C207.624 187.236 208.949 185.757 209.676 183.833C210.403 181.908 210.444 179.769 209.793 177.808C209.142 175.847 207.876 174.299 206.228 173.451C204.579 172.602 202.747 172.553 201.067 173.314C199.388 174.075 198.063 175.553 197.336 177.477C197.142 177.992 196.994 178.529 196.898 179.074C196.867 179.251 196.719 179.365 196.567 179.329C196.415 179.293 196.318 179.119 196.349 178.942C196.453 178.351 196.612 177.77 196.822 177.213C197.61 175.129 199.045 173.527 200.864 172.703C202.683 171.879 204.668 171.932 206.453 172.851C208.239 173.771 209.61 175.447 210.316 177.57C211.021 179.694 210.977 182.012 210.189 184.097C209.402 186.181 207.966 187.782 206.147 188.606C205.29 188.995 204.396 189.189 203.503 189.189Z" fill="white"/>
</g>
<path d="M166.843 115.597L171.777 136.355C172.446 139.173 172.04 142.192 170.654 144.628C167.175 150.746 158.669 161.793 140.634 167.429C122.318 173.152 111.948 167.264 107.486 163.384C105.87 161.979 104.696 159.996 104.141 157.735L98.7405 135.751L166.843 115.597Z" fill="url(#paint20_linear_24_969)"/>
<path d="M127.796 88.8779L179.096 105.657C181.738 106.521 182.487 110.475 180.402 112.556C170.233 122.711 147.122 146.364 138.368 160.101C137.432 161.57 135.759 162.104 134.31 161.403L82.4027 136.316C80.0547 135.181 79.5401 131.565 81.4499 129.607C91.5205 119.283 117.148 93.4368 125.479 89.0727C126.207 88.6913 127.027 88.6268 127.796 88.8779Z" fill="url(#paint21_linear_24_969)"/>
<path d="M128.905 119.821C128.905 119.821 101.556 139.964 99.4715 144.566C97.3874 149.168 101.583 170.087 101.583 170.087C97.2769 187.793 96.6394 207.019 103.912 217.078C103.912 217.078 112.879 193.795 108.873 183.981C104.868 174.168 103.324 170.145 103.324 170.145C103.324 170.145 99.8195 147.844 100.928 144.656C100.928 144.656 131.226 121.097 128.905 119.821Z" fill="url(#paint22_linear_24_969)"/>
<path d="M172.193 111.213L145.938 141.452L139.374 149.011L137.733 150.901L136.914 151.841C136.658 152.134 136.369 152.385 136.065 152.606C134.842 153.484 133.283 153.692 131.916 153.132L114.432 146.293C114.294 146.239 114.144 146.326 114.098 146.487C114.052 146.648 114.125 146.821 114.262 146.876L131.702 153.87C133.239 154.515 135.025 154.301 136.429 153.307C136.778 153.059 137.111 152.773 137.406 152.44L138.237 151.501L139.89 149.626L146.502 142.124L172.953 112.119C173.168 111.875 173.173 111.473 172.964 111.222C172.755 110.971 172.411 110.965 172.196 111.209L172.193 111.213Z" fill="#91B3FA"/>
<path d="M103.584 180.846L103.636 180.91L103.697 180.994L103.82 181.164L104.056 181.536C104.212 181.786 104.349 182.061 104.497 182.323L104.886 183.159C105.008 183.445 105.114 183.741 105.229 184.031C105.35 184.318 105.44 184.622 105.533 184.925C105.625 185.228 105.727 185.527 105.811 185.833L106.034 186.766C106.106 187.078 106.194 187.386 106.238 187.706L106.401 188.66C106.453 188.979 106.52 189.295 106.544 189.62C106.609 190.265 106.684 190.911 106.743 191.559L106.823 193.515C106.828 193.678 106.84 193.842 106.84 194.005L106.831 194.496L106.811 195.477C106.821 196.789 106.667 198.093 106.577 199.401C106.558 199.729 106.513 200.054 106.467 200.378L106.336 201.353C106.246 202.002 106.167 202.653 106.068 203.301C105.819 204.585 105.594 205.877 105.326 207.158L104.406 210.968L104.403 210.979C104.375 211.097 104.434 211.218 104.534 211.251C104.633 211.284 104.735 211.218 104.765 211.104L105.776 207.299C106.075 206.017 106.331 204.721 106.611 203.431C106.726 202.779 106.821 202.122 106.927 201.468L107.082 200.485C107.135 200.158 107.189 199.83 107.215 199.497C107.337 198.171 107.521 196.851 107.543 195.511L107.585 194.508L107.606 194.007C107.609 193.839 107.601 193.672 107.6 193.504L107.561 191.492C107.516 190.822 107.454 190.153 107.401 189.483C107.383 189.146 107.322 188.816 107.275 188.483L107.128 187.485C107.088 187.15 107.005 186.824 106.936 186.495L106.723 185.509C106.642 185.184 106.542 184.863 106.451 184.54C106.359 184.217 106.271 183.892 106.149 183.58C106.033 183.265 105.927 182.947 105.803 182.636L105.4 181.716C105.244 181.42 105.101 181.117 104.931 180.827L104.669 180.393L104.522 180.179L104.448 180.072L104.356 179.953C104.155 179.693 103.812 179.672 103.589 179.907C103.367 180.142 103.349 180.542 103.55 180.802C103.552 180.805 103.554 180.807 103.556 180.81L103.584 180.846Z" fill="#91B3FA"/>
<path d="M102.749 189.086L102.75 190.333L102.741 191.738L102.71 194.553L102.627 200.186L102.433 211.455C102.429 211.646 102.558 211.803 102.721 211.808C102.881 211.812 103.015 211.665 103.022 211.479L103.465 200.217L103.672 194.584L103.765 191.765L103.805 190.352L103.82 189.64L103.826 189.282C103.826 189.128 103.816 188.946 103.803 188.781C103.776 188.442 103.519 188.192 103.228 188.224C102.955 188.254 102.75 188.522 102.749 188.836V189.086Z" fill="#91B3FA"/>
<path opacity="0.69" d="M467.687 178.537L550.741 179.852C553.939 179.903 556.46 182.66 556.304 185.935L554.921 214.89C554.773 217.979 552.287 220.406 549.27 220.406H467.6C464.475 220.406 461.942 217.809 461.942 214.607V184.337C461.942 181.098 464.529 178.487 467.687 178.537Z" fill="white"/>
<path d="M547.552 133.736C554.755 131.728 559.201 123.282 557.481 114.871C555.761 106.461 548.528 101.27 541.324 103.278C534.121 105.286 529.675 113.731 531.395 122.142C533.114 130.553 540.348 135.744 547.552 133.736Z" fill="white"/>
<path d="M523.514 124.42C526.307 116.411 523.01 107.276 516.151 104.015C509.292 100.754 501.467 104.603 498.675 112.612C495.882 120.621 499.179 129.756 506.038 133.017C512.897 136.278 520.721 132.429 523.514 124.42Z" fill="white"/>
<path d="M487.246 130.123C492.482 124.009 492.482 114.096 487.246 107.981C482.009 101.867 473.519 101.867 468.282 107.981C463.046 114.096 463.046 124.009 468.282 130.123C473.519 136.237 482.009 136.237 487.246 130.123Z" fill="white"/>
<path d="M536.452 115.228C536.037 116.406 535.807 117.696 535.807 119.049C535.807 124.603 539.663 129.106 544.42 129.106C549.177 129.106 553.033 124.603 553.033 119.049C553.033 113.495 549.177 108.992 544.42 108.992C544.274 108.992 544.129 108.997 543.986 109.005V106.456C544.13 106.449 544.274 106.445 544.42 106.445C550.382 106.445 555.215 112.088 555.215 119.049C555.215 126.01 550.381 131.653 544.42 131.653C538.458 131.653 533.625 126.01 533.625 119.049C533.625 117.335 533.919 115.701 534.449 114.211L536.452 115.228Z" fill="url(#paint23_linear_24_969)"/>
<path d="M506.651 127.557C507.98 128.537 509.553 129.105 511.24 129.105C515.997 129.105 519.854 124.603 519.854 119.049C519.854 113.495 515.997 108.992 511.24 108.992C511.095 108.992 510.95 108.996 510.806 109.005V106.455C510.95 106.449 511.095 106.444 511.24 106.444C517.202 106.444 522.035 112.088 522.035 119.048C522.035 126.009 517.202 131.652 511.24 131.652C509.16 131.652 507.217 130.964 505.569 129.774L506.651 127.557Z" fill="url(#paint24_linear_24_969)"/>
<path d="M470.581 124.703C472.131 127.36 474.743 129.105 477.704 129.105C482.461 129.105 486.317 124.603 486.317 119.049C486.317 113.495 482.461 108.992 477.704 108.992C477.558 108.992 477.413 108.996 477.269 109.005V106.455C477.414 106.449 477.558 106.444 477.704 106.444C483.666 106.444 488.499 112.088 488.499 119.048C488.499 126.009 483.666 131.652 477.704 131.652C474.016 131.652 470.76 129.492 468.813 126.197L470.581 124.703Z" fill="url(#paint25_linear_24_969)"/>
<g opacity="0.69">
<path d="M533.494 140.825H555.346C556.717 140.825 557.829 142.123 557.829 143.724C557.829 145.326 556.717 146.624 555.346 146.624H533.494C532.123 146.624 531.011 145.326 531.011 143.724C531.011 142.123 532.123 140.825 533.494 140.825Z" fill="white"/>
<path d="M500.169 140.825H522.02C523.392 140.825 524.503 142.123 524.503 143.724C524.503 145.326 523.392 146.624 522.02 146.624H500.169C498.797 146.624 497.685 145.326 497.685 143.724C497.685 142.123 498.797 140.825 500.169 140.825Z" fill="white"/>
<path d="M488.694 146.624H466.843C465.471 146.624 464.359 145.326 464.359 143.724C464.359 142.123 465.471 140.825 466.843 140.825H488.694C490.066 140.825 491.178 142.123 491.178 143.724C491.178 145.326 490.066 146.624 488.694 146.624Z" fill="white"/>
<path d="M533.494 149.846H555.346C556.717 149.846 557.829 151.144 557.829 152.746V169.821C557.829 171.423 556.717 172.721 555.346 172.721H533.494C532.123 172.721 531.011 171.423 531.011 169.821V152.746C531.011 151.144 532.123 149.846 533.494 149.846Z" fill="white"/>
<path d="M500.169 149.846H522.02C523.392 149.846 524.503 151.144 524.503 152.746V169.821C524.503 171.423 523.392 172.721 522.02 172.721H500.169C498.797 172.721 497.685 171.423 497.685 169.821V152.746C497.685 151.144 498.797 149.846 500.169 149.846Z" fill="white"/>
<path d="M466.843 149.846H488.694C490.066 149.846 491.178 151.144 491.178 152.746V169.821C491.178 171.423 490.065 172.721 488.694 172.721H466.843C465.471 172.721 464.359 171.423 464.359 169.821V152.746C464.359 151.144 465.471 149.846 466.843 149.846Z" fill="white"/>
</g>
<path d="M435.592 41.6374L557.54 39.9432C559.932 39.9099 560.494 42.1342 560.489 43.3598L560.757 90.0368C560.752 91.2705 559.685 92.3055 557.279 92.2913C535.227 92.1594 439.036 91.6723 434.715 91.8052C430.445 91.9364 432.16 54.9315 432.733 45.4214C432.803 44.2454 433.297 41.6692 435.592 41.6374Z" fill="url(#paint26_linear_24_969)"/>
<path d="M557.399 90.7669L557.38 90.7666C539.848 90.6969 451.576 90.3508 435.387 90.4001L435.299 90.4004L435.261 90.3068C433.699 86.467 433.619 70.7775 435.057 50.3358C435.076 50.0717 435.406 49.9738 435.682 49.9702L557.631 48.3499C557.833 48.3477 557.959 48.3879 558.036 48.4219C558.232 48.5071 558.272 48.6371 558.272 48.731L558.022 90.3816C558.02 90.6438 557.708 90.7643 557.399 90.7669ZM439.476 90.0683C462.877 90.0683 541.002 90.3742 557.381 90.4393L557.399 90.4396C557.579 90.438 557.703 90.3855 557.742 90.3521L557.991 48.7579C557.982 48.7511 557.965 48.7408 557.938 48.7288C557.883 48.7048 557.791 48.6756 557.634 48.6779L435.686 50.2982C435.465 50.3011 435.346 50.3698 435.328 50.3947C433.914 70.5873 433.971 86.1235 435.477 90.0731C436.528 90.0696 437.875 90.0683 439.476 90.0683Z" fill="#91B3FA"/>
<path d="M495.508 60.8128C495.011 60.2116 494.326 59.8727 493.61 59.874L445.132 59.9735C444.422 59.9747 443.742 60.3114 443.247 60.9071C442.752 61.5024 442.485 62.306 442.505 63.1353L442.982 82.7708C443.023 84.4306 444.185 85.7531 445.607 85.7579L492.984 85.9206C494.404 85.9255 495.57 84.6153 495.622 82.9584L496.245 63.0607C496.271 62.2253 496.006 61.4139 495.508 60.8128Z" fill="#91B3FA"/>
<path d="M503.145 52.7969L442.149 53.4914C441.463 53.4992 440.995 54.3184 440.995 55.32V55.3524C440.995 56.3541 441.474 57.1675 442.159 57.1697L503.199 57.3804C504.27 57.3843 505.121 56.3635 505.117 55.1016L505.107 55.0608C505.103 53.7983 504.217 52.7846 503.145 52.7969Z" fill="#BDD0FB"/>
<path d="M552.394 61.0656C552.07 60.6715 551.549 60.445 551.081 60.4431L502.184 60.2421C501.704 60.2402 501.227 60.4709 500.899 60.8799C500.571 61.2892 500.394 61.8388 500.428 62.3981L500.491 63.5404C500.555 64.6023 501.312 65.4235 502.224 65.416L551.145 65.0229C552.07 65.0152 552.972 64.1652 553.006 63.0864L553.023 62.5426C553.04 61.9969 552.718 61.4596 552.394 61.0656Z" fill="#91B3FA"/>
<path d="M552.151 68.838C551.827 68.444 551.305 68.2175 550.837 68.2155L501.941 68.0146C501.461 68.0127 500.983 68.2434 500.655 68.6523C500.327 69.0616 500.151 69.6112 500.184 70.1705L500.248 71.3128C500.311 72.3748 501.069 73.1959 501.98 73.1885L550.901 72.7954C551.826 72.7876 552.728 71.9376 552.762 70.8588L552.779 70.3151C552.796 69.7694 552.475 69.2321 552.151 68.838Z" fill="#91B3FA"/>
<path d="M551.907 76.6108C551.583 76.2168 551.062 75.9903 550.594 75.9883L501.697 75.7874C501.217 75.7855 500.74 76.0162 500.412 76.4252C500.083 76.8344 499.907 77.384 499.94 77.9434L500.004 79.0857C500.068 80.1476 500.825 80.9688 501.737 80.9613L550.658 80.5682C551.582 80.5604 552.485 79.7104 552.518 78.6317L552.536 78.0879C552.553 77.5419 552.231 77.0049 551.907 76.6108Z" fill="#91B3FA"/>
<path d="M541.704 44.1369C541.692 45.6343 540.572 46.8414 539.289 46.834L537.546 46.8233C536.263 46.8158 535.105 45.5945 535.117 44.0967L535.117 44.0299C535.128 42.5325 536.247 41.325 537.53 41.3325L539.274 41.3432C540.556 41.3506 541.716 42.572 541.704 44.0698L541.704 44.1369Z" fill="#BDD0FB"/>
<path d="M549.023 44.1793C549.011 45.6768 547.954 46.8846 546.671 46.8771L545.079 46.868C543.797 46.8606 542.79 45.6405 542.801 44.143L542.802 44.0763C542.814 42.5788 543.812 41.3704 545.094 41.3779L546.716 41.3873C547.998 41.3947 549.035 42.6148 549.023 44.1126L549.023 44.1793Z" fill="#BDD0FB"/>
<path d="M556.342 44.2214C556.33 45.7189 555.336 46.9276 554.053 46.9199L552.43 46.9105C551.147 46.903 550.109 45.6829 550.12 44.1852L550.121 44.1184C550.132 42.6209 551.194 41.4132 552.476 41.4206L554.066 41.4297C555.349 41.4372 556.353 42.6572 556.342 44.1547L556.342 44.2214Z" fill="#BDD0FB"/>
<path d="M557.802 32.0761H434.954C433.278 32.0761 431.906 30.475 431.906 28.518V19.9182C431.906 17.9612 433.278 16.3601 434.954 16.3601H557.802C559.478 16.3601 560.849 17.9612 560.849 19.9182V28.518C560.849 30.4747 559.478 32.0761 557.802 32.0761Z" fill="url(#paint27_linear_24_969)"/>
<path d="M538.055 23.9378C538.041 25.8384 536.619 27.3705 534.991 27.3611L532.778 27.3475C531.151 27.3381 529.68 25.7878 529.695 23.8873L529.696 23.8027C529.71 21.9021 531.129 20.3699 532.757 20.3793L534.971 20.393C536.599 20.4024 538.07 21.9526 538.056 23.8532L538.055 23.9378Z" fill="#BDD0FB"/>
<path d="M547.344 23.9916C547.33 25.8922 545.987 27.4253 544.36 27.4156L542.34 27.4039C540.712 27.3945 539.434 25.8461 539.448 23.9456L539.449 23.8607C539.463 21.9601 540.73 20.4263 542.358 20.4357L544.416 20.4477C546.044 20.4571 547.359 22.0058 547.345 23.9063L547.344 23.9916Z" fill="#BDD0FB"/>
<path d="M556.633 24.0451C556.619 25.9457 555.356 27.4794 553.729 27.47L551.669 27.458C550.041 27.4486 548.723 25.9 548.738 23.9994L548.738 23.9145C548.753 22.0139 550.099 20.4811 551.727 20.4905L553.745 20.5022C555.373 20.5116 556.649 22.0599 556.634 23.9605L556.633 24.0451Z" fill="#BDD0FB"/>
<path d="M525.084 26.4878H488.397C487.334 26.4878 486.464 25.4725 486.464 24.2317V23.7612C486.464 22.5204 487.334 21.5051 488.397 21.5051H525.084C526.147 21.5051 527.017 22.5204 527.017 23.7612V24.2317C527.017 25.4725 526.147 26.4878 525.084 26.4878Z" fill="#BDD0FB"/>
<path d="M212.715 389.774L212.816 390.041L213.006 389.774H212.715Z" fill="url(#paint28_linear_24_969)"/>
<path d="M313.325 238.595C310.558 230.34 306.439 223.938 301.917 217.625C298.511 212.87 293.208 210.571 287.964 211.538C263.292 216.089 229.342 220.053 214.253 222.273C208.983 223.048 204.164 226.145 200.691 230.837C187.743 248.333 160.304 294.4 186.632 342.89C186.907 343.398 187.39 343.703 187.904 343.703H207.063C207.66 342.627 207.847 342.289 208.444 341.213C202.873 326.722 203.651 310.842 209.885 293.41C210.429 291.891 212.302 291.988 212.725 293.559C217.597 311.578 220.491 328.105 222.206 342.188C222.312 343.057 222.947 343.703 223.699 343.703H282.223C282.957 343.703 283.58 343.087 283.707 342.244C289.106 306.3 303.548 267.459 308.282 255.286C309.223 252.867 310.88 250.89 312.954 249.795C313.6 249.453 314.238 249.101 314.87 248.747C315.54 248.373 315.875 247.487 315.666 246.654C314.983 243.941 314.213 241.245 313.325 238.595Z" fill="url(#paint29_linear_24_969)"/>
<path d="M365.385 201.515C364.028 199.973 364.091 197.406 365.521 195.957L534.472 19.9474C534.946 19.4538 535.627 19.3407 536.201 19.6609C537.206 20.2225 537.407 21.7925 536.586 22.6733L369.828 201.589C368.565 202.944 366.615 202.912 365.385 201.515Z" fill="url(#paint30_linear_24_969)"/>
<path d="M209.039 284.632C204.042 267.839 205.085 248.371 205.421 243.793C205.462 243.245 205.881 242.846 206.349 242.909C206.799 242.969 207.126 243.434 207.087 243.96C206.761 248.382 205.721 267.525 210.615 283.977C210.766 284.484 210.546 285.037 210.115 285.221L210.114 285.221C209.678 285.408 209.191 285.144 209.039 284.632Z" fill="url(#paint31_linear_24_969)"/>
<path d="M368.971 221.029C345.492 231.049 292.803 211.557 292.803 211.557L292.015 257.627C332.082 272.418 358.154 268.111 375.108 255.698C376.163 241.59 372.531 229.311 368.971 221.029Z" fill="url(#paint32_linear_24_969)"/>
<path d="M406.354 171.769L396.528 169.497C396.528 169.497 393.848 206.001 371.963 219.496C371.025 220.074 370.023 220.58 368.971 221.029C372.531 229.311 376.163 241.59 375.108 255.698C409.561 230.475 406.354 171.769 406.354 171.769Z" fill="url(#paint33_linear_24_969)"/>
<path d="M397.027 172.679L396.528 169.497C396.528 169.497 394.478 161.725 399.9 154.074C407.736 143.014 413.264 146.219 413.264 146.219C413.264 146.219 413.065 149.447 413.093 151.544C413.115 153.237 414.283 153.893 415.351 152.747L428.715 138.409C428.715 138.409 432.292 161.019 404.863 175.999L397.027 172.679Z" fill="url(#paint34_linear_24_969)"/>
<path d="M239.268 183.663L237.507 219.542C237.455 220.6 238.046 221.554 238.926 221.814C242.825 222.962 253.604 225.248 262.985 219.015C264.2 218.207 264.763 216.505 264.381 214.935L256.536 182.697L239.268 183.663Z" fill="url(#paint35_linear_24_969)"/>
<path d="M263.694 147.122C263.694 147.122 272.288 170.171 272.865 182.268C273.442 194.366 275.675 202.216 263.694 204.652C251.714 207.088 241.622 200.12 236.154 188.069C236.154 188.069 227.588 169.501 229.509 161.896C231.431 154.291 263.694 147.122 263.694 147.122Z" fill="url(#paint36_linear_24_969)"/>
<path d="M240.248 179.405L240.93 179.054C241.798 178.607 242.169 177.4 241.733 176.417C240.044 172.605 236.751 163.872 241.005 161.834C246.488 159.209 268.208 154.037 272.894 145.039C277.397 136.391 273.407 125.227 267.41 122.052C267.008 121.839 266.535 122.008 266.329 122.463L265.829 123.567C265.487 124.323 264.531 124.209 264.328 123.387C264.132 122.599 263.234 122.446 262.862 123.142C261.421 125.834 257.532 130.198 247.133 132.44C232.353 135.624 222.581 142.608 222.338 154.533C222.322 155.29 221.632 155.712 221.078 155.317C219.987 154.541 218.24 154.176 215.906 156.468C211.847 160.453 213.508 170.79 222.406 179.293C222.829 179.697 222.825 180.468 222.368 180.816C220.755 182.041 218.35 184.959 224.581 188.848C231.026 192.87 235.838 192.541 237.692 192.183C238.153 192.095 238.45 191.574 238.349 191.041L236.371 180.56C236.259 179.967 236.646 179.405 237.166 179.405H240.248Z" fill="url(#paint37_linear_24_969)"/>
<path d="M240.62 181.616C240.62 181.616 237.342 166.893 231.688 171.021C226.034 175.149 234.622 187.518 239.167 188.069L240.62 181.616Z" fill="url(#paint38_linear_24_969)"/>
<path d="M299.09 283.762L299.536 284.594C299.58 284.675 299.56 284.782 299.49 284.834C299.42 284.885 299.328 284.861 299.284 284.78C299.283 284.779 299.282 284.777 299.282 284.776L298.851 283.931C298.811 283.854 298.833 283.753 298.899 283.707C298.965 283.662 299.05 283.686 299.09 283.762Z" fill="white"/>
<path d="M300.591 286.524L301.049 287.347C301.104 287.443 301.081 287.574 300.998 287.637C300.915 287.701 300.804 287.674 300.749 287.577C300.749 287.576 300.747 287.574 300.746 287.573L300.302 286.737C300.253 286.643 300.277 286.521 300.357 286.463C300.436 286.406 300.54 286.434 300.591 286.524Z" fill="white"/>
<path d="M302.133 289.254L302.604 290.067C302.668 290.177 302.644 290.326 302.551 290.401C302.457 290.476 302.329 290.448 302.265 290.339C302.264 290.338 302.263 290.335 302.262 290.334L301.801 289.51C301.741 289.403 301.767 289.259 301.859 289.189C301.95 289.119 302.072 289.149 302.133 289.254Z" fill="white"/>
<path d="M303.72 291.949L304.206 292.748L304.207 292.75C304.28 292.87 304.256 293.036 304.153 293.121C304.051 293.206 303.908 293.178 303.835 293.058C303.835 293.057 303.834 293.056 303.833 293.055L303.356 292.243C303.287 292.126 303.312 291.965 303.413 291.884C303.513 291.804 303.649 291.832 303.719 291.947L303.72 291.949Z" fill="white"/>
<path d="M305.362 294.594L305.867 295.376L305.869 295.378C305.952 295.507 305.93 295.691 305.819 295.788C305.709 295.885 305.552 295.859 305.468 295.73C305.468 295.73 305.466 295.727 305.466 295.726L304.969 294.931C304.89 294.804 304.913 294.625 305.022 294.533C305.13 294.441 305.28 294.468 305.361 294.591L305.362 294.594Z" fill="white"/>
<path d="M307.069 297.18L307.594 297.944L307.596 297.946C307.69 298.084 307.672 298.285 307.554 298.395C307.436 298.505 307.265 298.483 307.17 298.345C307.169 298.345 307.168 298.343 307.167 298.342L306.65 297.564C306.559 297.428 306.58 297.233 306.696 297.127C306.811 297.023 306.977 297.046 307.068 297.178L307.069 297.18Z" fill="white"/>
<path d="M308.844 299.703L309.389 300.446L309.391 300.448C309.497 300.593 309.483 300.811 309.359 300.935C309.235 301.059 309.049 301.042 308.942 300.898C308.942 300.897 308.94 300.895 308.939 300.894L308.4 300.135C308.298 299.992 308.315 299.779 308.438 299.66C308.559 299.542 308.739 299.56 308.841 299.7L308.844 299.703Z" fill="white"/>
<path d="M310.687 302.154L311.252 302.877L311.254 302.88C311.371 303.03 311.363 303.262 311.234 303.399C311.106 303.536 310.907 303.525 310.79 303.375L310.788 303.373L310.224 302.638C310.11 302.489 310.12 302.26 310.248 302.126C310.375 301.993 310.57 302.005 310.685 302.152L310.687 302.154Z" fill="white"/>
<path d="M312.597 304.534L313.185 305.231L313.187 305.234C313.314 305.385 313.313 305.628 313.184 305.776C313.054 305.925 312.847 305.923 312.719 305.772L312.717 305.77L312.13 305.06C312.006 304.909 312.009 304.669 312.138 304.524C312.266 304.379 312.47 304.383 312.594 304.531L312.597 304.534Z" fill="white"/>
<path d="M314.582 306.825L315.193 307.493L315.196 307.496C315.334 307.648 315.341 307.901 315.212 308.061C315.082 308.222 314.866 308.23 314.728 308.079L314.725 308.077L314.114 307.395C313.979 307.244 313.974 306.994 314.103 306.837C314.232 306.68 314.444 306.673 314.579 306.821L314.582 306.825Z" fill="white"/>
<path d="M316.646 309.016L317.281 309.653L317.284 309.656C317.433 309.806 317.45 310.069 317.322 310.243C317.194 310.417 316.969 310.437 316.82 310.287L316.818 310.284L316.181 309.633C316.035 309.484 316.02 309.224 316.148 309.054C316.276 308.884 316.496 308.866 316.642 309.012L316.646 309.016Z" fill="white"/>
<path d="M318.79 311.097L319.449 311.697L319.454 311.701C319.615 311.847 319.643 312.119 319.518 312.307C319.392 312.495 319.16 312.528 318.999 312.382L318.996 312.379L318.333 311.764C318.175 311.617 318.149 311.348 318.275 311.164C318.4 310.98 318.627 310.949 318.786 311.093L318.79 311.097Z" fill="white"/>
<path d="M321.017 313.051L321.701 313.61L321.706 313.614C321.879 313.756 321.922 314.035 321.8 314.238C321.679 314.44 321.439 314.49 321.266 314.348L321.263 314.345L320.573 313.77C320.403 313.628 320.363 313.351 320.485 313.152C320.606 312.955 320.841 312.908 321.011 313.047L321.017 313.051Z" fill="white"/>
<path d="M323.327 314.862L324.036 315.375L324.042 315.379C324.229 315.514 324.287 315.8 324.171 316.018C324.056 316.236 323.811 316.303 323.624 316.168L323.621 316.166L322.904 315.636C322.72 315.501 322.666 315.217 322.782 315.003C322.897 314.79 323.138 314.726 323.321 314.857L323.327 314.862Z" fill="white"/>
<path d="M325.721 316.512L326.455 316.973L326.462 316.977C326.662 317.102 326.737 317.393 326.63 317.627C326.522 317.861 326.273 317.948 326.073 317.823L326.07 317.821L325.325 317.343C325.129 317.216 325.057 316.927 325.165 316.697C325.273 316.469 325.518 316.385 325.714 316.508L325.721 316.512Z" fill="white"/>
<path d="M328.196 317.981L328.954 318.383L328.963 318.388C329.176 318.501 329.271 318.795 329.173 319.045C329.076 319.294 328.825 319.404 328.611 319.291L328.607 319.289L327.837 318.869C327.626 318.755 327.535 318.462 327.633 318.216C327.731 317.972 327.979 317.865 328.188 317.976L328.196 317.981Z" fill="white"/>
<path d="M330.747 319.255L331.527 319.595L331.536 319.599C331.759 319.697 331.871 319.986 331.788 320.245C331.705 320.505 331.457 320.637 331.235 320.539L331.234 320.539L330.437 320.187C330.215 320.09 330.104 319.801 330.187 319.542C330.271 319.284 330.518 319.153 330.74 319.251L330.747 319.255Z" fill="white"/>
<path d="M333.368 320.308L334.166 320.578L334.176 320.581C334.406 320.659 334.539 320.94 334.473 321.209C334.406 321.478 334.165 321.633 333.935 321.555L333.933 321.555L333.117 321.276C332.887 321.198 332.756 320.917 332.823 320.649C332.89 320.381 333.131 320.227 333.36 320.306L333.368 320.308Z" fill="white"/>
<path d="M336.048 321.119L336.861 321.312L336.872 321.315C337.109 321.371 337.263 321.642 337.214 321.919C337.166 322.196 336.934 322.376 336.697 322.319L336.695 322.319L335.861 322.118C335.625 322.061 335.473 321.79 335.521 321.514C335.57 321.237 335.802 321.06 336.039 321.117L336.048 321.119Z" fill="white"/>
<path d="M338.774 321.67L339.598 321.783L339.609 321.785C339.852 321.818 340.026 322.076 339.998 322.36C339.969 322.644 339.748 322.847 339.505 322.813H339.504L338.658 322.693C338.416 322.659 338.243 322.402 338.272 322.119C338.302 321.836 338.522 321.634 338.764 321.668L338.774 321.67Z" fill="white"/>
<path d="M341.53 321.957L342.36 321.993L342.37 321.993C342.618 322.004 342.811 322.247 342.801 322.535C342.792 322.824 342.584 323.05 342.337 323.039H342.336L341.485 322.998C341.239 322.987 341.047 322.744 341.057 322.456C341.067 322.168 341.275 321.945 341.521 321.956L341.53 321.957Z" fill="white"/>
<path d="M344.298 321.99L345.129 321.952L345.139 321.952C345.388 321.94 345.599 322.168 345.608 322.459C345.618 322.751 345.424 322.996 345.174 323.008H345.172L344.322 323.043C344.073 323.054 343.864 322.826 343.855 322.535C343.846 322.245 344.041 322 344.29 321.99L344.298 321.99Z" fill="white"/>
<path d="M347.062 321.782L347.889 321.676L347.898 321.675C348.149 321.642 348.375 321.854 348.403 322.147C348.43 322.44 348.249 322.703 347.998 322.736H347.997L347.152 322.841C346.901 322.872 346.677 322.661 346.65 322.368C346.623 322.076 346.805 321.814 347.055 321.783L347.062 321.782Z" fill="white"/>
<path d="M349.811 321.354L350.63 321.185L350.639 321.183C350.89 321.131 351.129 321.327 351.173 321.62C351.218 321.913 351.05 322.193 350.799 322.245L350.798 322.245L349.96 322.414C349.71 322.465 349.472 322.269 349.428 321.977C349.385 321.684 349.553 321.406 349.803 321.355L349.811 321.354Z" fill="white"/>
<path d="M352.533 320.723L353.343 320.497L353.351 320.495C353.601 320.426 353.853 320.606 353.913 320.899C353.972 321.191 353.818 321.485 353.567 321.555L353.566 321.555L352.739 321.782C352.489 321.851 352.239 321.669 352.18 321.377C352.121 321.085 352.276 320.793 352.526 320.725L352.533 320.723Z" fill="white"/>
<path d="M355.223 319.91L356.022 319.634L356.029 319.632C356.278 319.546 356.54 319.712 356.614 320.003C356.688 320.294 356.546 320.6 356.296 320.686L356.295 320.687L355.481 320.965C355.232 321.05 354.971 320.883 354.898 320.592C354.826 320.302 354.968 319.997 355.217 319.912L355.223 319.91Z" fill="white"/>
<path d="M357.875 318.935L358.663 318.614L358.669 318.611C358.917 318.51 359.188 318.663 359.274 318.952C359.361 319.241 359.23 319.558 358.982 319.659L358.981 319.66L358.18 319.983C357.932 320.083 357.662 319.93 357.577 319.641C357.491 319.352 357.622 319.037 357.87 318.937L357.875 318.935Z" fill="white"/>
<path d="M360.487 317.816L361.264 317.457L361.269 317.454C361.514 317.341 361.791 317.481 361.888 317.767C361.985 318.053 361.867 318.376 361.622 318.489L360.835 318.855C360.589 318.97 360.311 318.83 360.214 318.544C360.116 318.257 360.235 317.933 360.48 317.819L360.482 317.818L360.487 317.816Z" fill="white"/>
<path d="M363.062 316.576L363.826 316.182L363.83 316.18C364.069 316.056 364.349 316.182 364.454 316.461C364.56 316.74 364.453 317.066 364.214 317.189L363.442 317.591C363.203 317.715 362.923 317.59 362.816 317.311C362.709 317.031 362.817 316.704 363.056 316.579L363.057 316.579L363.062 316.576Z" fill="white"/>
<path d="M365.595 315.224L366.348 314.797L366.352 314.795C366.585 314.663 366.866 314.776 366.979 315.049C367.092 315.321 366.996 315.648 366.763 315.78L366.002 316.214C365.769 316.347 365.487 316.234 365.374 315.962C365.259 315.689 365.356 315.36 365.59 315.227L365.591 315.227L365.595 315.224Z" fill="white"/>
<path d="M368.092 313.768L368.833 313.313L368.837 313.311C369.065 313.172 369.346 313.274 369.465 313.539C369.584 313.805 369.498 314.133 369.271 314.272L368.523 314.734C368.295 314.875 368.013 314.773 367.892 314.507C367.772 314.241 367.859 313.912 368.087 313.771L368.088 313.771L368.092 313.768Z" fill="white"/>
<path d="M370.549 312.224L371.28 311.745L371.283 311.743C371.505 311.598 371.786 311.69 371.911 311.949C372.035 312.209 371.957 312.537 371.735 312.682L371 313.167C370.778 313.314 370.495 313.222 370.37 312.962C370.244 312.702 370.322 312.373 370.545 312.226L370.546 312.226L370.549 312.224Z" fill="white"/>
<path d="M372.975 310.605L373.697 310.107L373.699 310.106C373.917 309.956 374.197 310.04 374.325 310.294C374.454 310.548 374.383 310.875 374.165 311.025L373.439 311.528C373.221 311.679 372.94 311.596 372.811 311.341C372.681 311.087 372.753 310.758 372.971 310.607L372.972 310.607L372.975 310.605Z" fill="white"/>
<path d="M375.373 308.928L376.088 308.415L376.09 308.414C376.303 308.261 376.583 308.339 376.714 308.589C376.845 308.838 376.779 309.163 376.566 309.316L375.849 309.833C375.635 309.987 375.355 309.91 375.223 309.661C375.091 309.411 375.157 309.084 375.371 308.93L375.372 308.929L375.373 308.928Z" fill="white"/>
<path d="M377.75 307.205L378.461 306.68C378.67 306.524 378.948 306.596 379.082 306.841C379.215 307.085 379.153 307.41 378.944 307.566L378.232 308.095C378.022 308.251 377.743 308.179 377.61 307.933C377.476 307.688 377.538 307.362 377.748 307.206L377.749 307.205L377.75 307.205Z" fill="white"/>
<path d="M380.112 305.447L380.818 304.915C381.025 304.758 381.301 304.827 381.435 305.068C381.569 305.31 381.51 305.632 381.304 305.788L380.597 306.324C380.39 306.481 380.113 306.412 379.979 306.17C379.845 305.928 379.903 305.605 380.11 305.448L380.112 305.447Z" fill="white"/>
<path d="M382.463 303.667L383.168 303.131C383.372 302.975 383.646 303.042 383.779 303.281C383.913 303.519 383.856 303.839 383.652 303.994L382.948 304.534C382.743 304.691 382.469 304.624 382.334 304.385C382.2 304.146 382.257 303.825 382.462 303.668L382.463 303.667Z" fill="white"/>
<path d="M384.811 301.877L385.515 301.34C385.718 301.185 385.989 301.252 386.122 301.488C386.254 301.725 386.198 302.041 385.995 302.196L385.292 302.735C385.09 302.891 384.817 302.825 384.684 302.589C384.551 302.352 384.607 302.034 384.81 301.878L384.811 301.877Z" fill="white"/>
<path d="M387.16 300.087L387.867 299.552C388.068 299.4 388.337 299.466 388.467 299.701C388.598 299.936 388.541 300.25 388.34 300.402L387.636 300.939C387.435 301.093 387.165 301.027 387.033 300.792C386.901 300.557 386.958 300.242 387.159 300.089L387.16 300.087Z" fill="white"/>
<path d="M389.518 298.309L390.228 297.779C390.429 297.63 390.695 297.698 390.823 297.932C390.951 298.166 390.892 298.477 390.692 298.626L389.985 299.157C389.785 299.308 389.517 299.241 389.388 299.007C389.259 298.773 389.316 298.461 389.516 298.31L389.518 298.309Z" fill="white"/>
<path d="M391.891 296.553L392.607 296.033C392.807 295.888 393.07 295.959 393.194 296.192C393.319 296.426 393.258 296.733 393.058 296.878L393.057 296.879L392.346 297.399L392.345 297.4C392.144 297.547 391.881 297.476 391.755 297.242C391.63 297.009 391.69 296.701 391.89 296.554L391.891 296.553Z" fill="white"/>
<path d="M394.286 294.837L395.011 294.331C395.208 294.194 395.464 294.269 395.582 294.5C395.699 294.729 395.636 295.026 395.441 295.165L395.439 295.166L394.723 295.676L394.721 295.677C394.522 295.818 394.264 295.744 394.143 295.513C394.022 295.281 394.085 294.98 394.283 294.839L394.286 294.837Z" fill="white"/>
<path d="M396.71 293.171L397.444 292.682C397.639 292.552 397.886 292.631 397.997 292.858C398.107 293.084 398.041 293.371 397.849 293.501L397.847 293.503L397.121 293.996L397.119 293.998C396.923 294.13 396.673 294.053 396.56 293.825C396.446 293.598 396.512 293.305 396.708 293.173L396.71 293.171Z" fill="white"/>
<path d="M399.168 291.565L399.911 291.097C400.102 290.976 400.341 291.06 400.444 291.283C400.547 291.505 400.476 291.782 400.288 291.903L400.285 291.905L399.55 292.377L399.547 292.378C399.355 292.502 399.114 292.42 399.008 292.196C398.903 291.971 398.973 291.689 399.165 291.566L399.168 291.565Z" fill="white"/>
<path d="M401.661 290.034L402.42 289.596C402.609 289.486 402.838 289.577 402.931 289.797C403.024 290.017 402.948 290.282 402.762 290.393L402.757 290.395L402.011 290.836L402.006 290.839C401.816 290.951 401.584 290.862 401.488 290.64C401.392 290.419 401.468 290.148 401.658 290.036L401.661 290.034Z" fill="white"/>
<path d="M404.216 288.626L404.999 288.24C405.187 288.148 405.404 288.25 405.483 288.47C405.563 288.689 405.476 288.94 405.29 289.035L405.282 289.039L404.517 289.425L404.51 289.428C404.32 289.524 404.1 289.422 404.019 289.201C403.937 288.98 404.024 288.724 404.213 288.628L404.216 288.626Z" fill="white"/>
<path d="M406.859 287.428L407.672 287.124C407.86 287.054 408.061 287.175 408.122 287.395C408.182 287.614 408.079 287.848 407.893 287.92L407.881 287.924L407.093 288.227L407.082 288.231C406.892 288.304 406.688 288.184 406.626 287.962C406.563 287.741 406.667 287.502 406.856 287.429L406.859 287.428Z" fill="white"/>
<path d="M409.602 286.545L410.445 286.36C410.633 286.319 410.814 286.463 410.849 286.683C410.885 286.901 410.762 287.111 410.576 287.154L410.561 287.157L409.749 287.344L409.735 287.347C409.545 287.39 409.361 287.246 409.324 287.025C409.287 286.804 409.41 286.589 409.6 286.545L409.602 286.545Z" fill="white"/>
<path d="M412.434 286.104L413.292 286.077C413.477 286.071 413.631 286.241 413.636 286.457C413.641 286.671 413.497 286.85 413.313 286.858L413.296 286.858L412.473 286.892L412.455 286.893C412.269 286.901 412.112 286.73 412.105 286.512C412.098 286.295 412.244 286.111 412.431 286.104L412.434 286.104Z" fill="white"/>
<path d="M415.295 286.241L416.143 286.412C416.319 286.447 416.437 286.643 416.406 286.848C416.376 287.052 416.211 287.189 416.036 287.156L416.017 287.152L415.206 286.997L415.187 286.993C415.009 286.959 414.889 286.763 414.918 286.555C414.947 286.348 415.115 286.207 415.293 286.241L415.295 286.241Z" fill="white"/>
<path d="M418.076 287.028L418.879 287.38C419.04 287.45 419.121 287.659 419.061 287.847C419.001 288.034 418.823 288.13 418.663 288.061L418.647 288.054L417.873 287.724L417.857 287.717C417.694 287.648 417.61 287.437 417.669 287.246C417.729 287.056 417.91 286.958 418.073 287.027L418.076 287.028Z" fill="white"/>
<path d="M420.68 288.389L421.418 288.894C421.557 288.989 421.604 289.198 421.522 289.36C421.441 289.521 421.265 289.576 421.126 289.484L421.114 289.476L420.394 289L420.382 288.992C420.239 288.897 420.188 288.685 420.269 288.517C420.351 288.35 420.533 288.291 420.676 288.386C420.677 288.387 420.679 288.388 420.68 288.389Z" fill="white"/>
<path d="M423.053 290.223L423.716 290.851C423.832 290.961 423.849 291.161 423.755 291.296C423.662 291.431 423.493 291.452 423.377 291.346L423.368 291.337L422.716 290.737L422.707 290.729C422.587 290.618 422.566 290.414 422.661 290.274C422.756 290.133 422.93 290.109 423.05 290.22C423.051 290.22 423.053 290.222 423.053 290.223Z" fill="white"/>
<path d="M425.166 292.439L425.745 293.166C425.839 293.285 425.833 293.469 425.732 293.579C425.632 293.688 425.475 293.682 425.381 293.567L425.373 293.559L424.799 292.858L424.792 292.849C424.694 292.73 424.698 292.54 424.8 292.426C424.903 292.312 425.065 292.316 425.163 292.435C425.164 292.436 425.165 292.438 425.166 292.439Z" fill="white"/>
<path d="M426.995 294.965L427.487 295.775C427.56 295.895 427.536 296.063 427.432 296.148C427.33 296.233 427.188 296.206 427.115 296.088L427.109 296.079L426.618 295.295L426.613 295.286C426.536 295.164 426.559 294.992 426.664 294.902C426.769 294.812 426.916 294.839 426.993 294.961C426.994 294.962 426.995 294.964 426.995 294.965Z" fill="white"/>
<path d="M428.526 297.746L428.924 298.622C428.978 298.741 428.939 298.888 428.837 298.951C428.736 299.013 428.612 298.97 428.557 298.854L428.553 298.845L428.152 297.993L428.148 297.985C428.091 297.863 428.129 297.71 428.233 297.644C428.337 297.577 428.468 297.622 428.525 297.743C428.525 297.743 428.526 297.745 428.526 297.746Z" fill="white"/>
<path d="M429.737 300.731L430.035 301.659C430.071 301.772 430.022 301.899 429.925 301.941C429.829 301.983 429.722 301.927 429.684 301.816L429.681 301.808L429.378 300.902L429.375 300.894C429.336 300.777 429.385 300.646 429.485 300.6C429.585 300.554 429.697 300.612 429.736 300.728C429.736 300.728 429.737 300.73 429.737 300.731Z" fill="white"/>
<path d="M430.606 303.872L430.796 304.837C430.816 304.942 430.76 305.047 430.671 305.071C430.582 305.095 430.493 305.031 430.471 304.928L430.469 304.92L430.27 303.974L430.269 303.966C430.246 303.857 430.303 303.748 430.396 303.721C430.489 303.695 430.582 303.761 430.605 303.869C430.605 303.87 430.606 303.872 430.606 303.872Z" fill="white"/>
<path d="M431.107 307.118L431.183 308.104C431.19 308.198 431.131 308.281 431.051 308.289C430.971 308.298 430.901 308.23 430.892 308.137L430.892 308.13L430.805 307.16L430.804 307.153C430.796 307.055 430.856 306.968 430.94 306.957C431.024 306.947 431.099 307.018 431.107 307.116C431.107 307.116 431.107 307.118 431.107 307.118Z" fill="white"/>
<path d="M49.8805 403.376L169.093 403.377V376.54L49.8805 376.54C52.4319 376.54 52.4319 403.376 49.8805 403.376Z" fill="#91B3FA"/>
<path d="M169.093 396.661V384.379C169.093 380.05 166.737 376.54 163.831 376.54H50.3832C48.0979 376.54 46.2453 374.456 46.2453 371.886C46.2453 371.105 46.8082 370.472 47.5026 370.472H171.492C174.336 370.472 178.85 375.5 178.85 381.702V398.855C178.85 404.704 174.468 409.445 171.786 409.445H48.1548C47.1001 409.445 46.2453 408.483 46.2453 407.297C46.2453 405.131 47.8059 403.376 49.731 403.376H164.585C167.075 403.376 169.093 400.37 169.093 396.661Z" fill="url(#paint39_linear_24_969)"/>
<path d="M165.786 382.374H54.0087C53.8538 382.374 53.7283 382.227 53.7283 382.046C53.7283 381.865 53.8538 381.719 54.0087 381.719H165.786C165.941 381.719 166.067 381.865 166.067 382.046C166.067 382.227 165.941 382.374 165.786 382.374Z" fill="url(#paint40_linear_24_969)"/>
<path d="M165.786 386.357H54.0087C53.8538 386.357 53.7283 386.211 53.7283 386.03C53.7283 385.849 53.8538 385.703 54.0087 385.703H165.786C165.941 385.703 166.067 385.849 166.067 386.03C166.067 386.21 165.941 386.357 165.786 386.357Z" fill="url(#paint41_linear_24_969)"/>
<path d="M165.786 390.341H54.0087C53.8538 390.341 53.7283 390.194 53.7283 390.013C53.7283 389.832 53.8538 389.686 54.0087 389.686H165.786C165.941 389.686 166.067 389.832 166.067 390.013C166.067 390.194 165.941 390.341 165.786 390.341Z" fill="url(#paint42_linear_24_969)"/>
<path d="M165.786 394.324H54.0087C53.8538 394.324 53.7283 394.177 53.7283 393.996C53.7283 393.816 53.8538 393.669 54.0087 393.669H165.786C165.941 393.669 166.067 393.816 166.067 393.996C166.067 394.177 165.941 394.324 165.786 394.324Z" fill="url(#paint43_linear_24_969)"/>
<path d="M165.786 398.307H54.0087C53.8538 398.307 53.7283 398.161 53.7283 397.98C53.7283 397.799 53.8538 397.653 54.0087 397.653H165.786C165.941 397.653 166.067 397.799 166.067 397.98C166.067 398.161 165.941 398.307 165.786 398.307Z" fill="url(#paint44_linear_24_969)"/>
<path d="M167.452 454H19.2132C16.213 454 13.7809 451.16 13.7809 447.657V415.502C13.7809 411.998 16.213 409.159 19.2132 409.159H167.452C170.452 409.159 172.884 411.998 172.884 415.502V447.657C172.884 451.16 170.452 454 167.452 454Z" fill="url(#paint45_linear_24_969)"/>
<path d="M48.6139 448.846H33.6011C32.5852 448.846 31.7618 447.885 31.7618 446.699V416.459C31.7618 415.273 32.5852 414.312 33.6011 414.312H48.6139C49.6297 414.312 50.4531 415.273 50.4531 416.459V446.699C50.4531 447.885 49.6297 448.846 48.6139 448.846Z" fill="#7D97F4"/>
<path d="M58.7194 448.846H54.6981C53.8719 448.846 53.2025 448.064 53.2025 447.1V416.058C53.2025 415.094 53.8722 414.312 54.6981 414.312H58.7194C59.5457 414.312 60.2151 415.094 60.2151 416.058V447.1C60.2151 448.064 59.5454 448.846 58.7194 448.846Z" fill="#7D97F4"/>
<path d="M196.95 441.29C190.03 441.29 186.968 440.597 185.6 439.964C185.865 441.291 186.878 442.339 188.157 442.339H212.638C213.462 442.339 213.982 441.417 213.785 440.583C210.995 440.845 205.068 441.29 196.95 441.29Z" fill="url(#paint46_linear_24_969)"/>
<path d="M213.786 440.583C213.746 440.415 213.688 440.249 213.585 440.097C211.721 437.317 207.975 432.951 202.879 433.035C195.576 433.155 193.159 434.01 187.626 433.097C187.411 433.061 187.202 433.206 187.129 433.446L185.641 438.384C185.502 438.924 185.499 439.463 185.6 439.964C186.969 440.597 190.03 441.29 196.95 441.29C205.068 441.29 210.995 440.845 213.786 440.583Z" fill="url(#paint47_linear_24_969)"/>
<path d="M189.032 427.405L187.42 433.157C187.42 433.157 191.178 435.048 194.451 433.46L195.199 428.591L189.032 427.405Z" fill="url(#paint48_linear_24_969)"/>
<path d="M152.596 351.594C152.695 351.459 152.844 351.387 152.997 351.402C156.4 351.734 194.565 355.537 202.683 360C210.861 364.494 196.881 425.277 195.812 429.87C195.769 430.054 195.651 430.196 195.496 430.254C194.794 430.515 192.603 431.056 188.672 429.712C188.449 429.636 188.307 429.381 188.335 429.112C188.858 424.187 193.255 381.466 189.738 371.068C189.677 370.888 189.537 370.763 189.374 370.732L145.617 362.375C145.249 362.305 145.089 361.792 145.332 361.463L152.596 351.594Z" fill="url(#paint49_linear_24_969)"/>
<path d="M239.429 437.089C234.035 442.15 231.278 443.851 229.873 444.362C230.789 445.196 232.137 445.269 233.134 444.334L252.218 426.43C252.861 425.828 252.774 424.732 252.175 424.229C250.14 426.473 245.757 431.152 239.429 437.089Z" fill="url(#paint50_linear_24_969)"/>
<path d="M252.176 424.229C252.055 424.128 251.921 424.042 251.76 423.998C248.822 423.205 243.571 422.557 239.643 426.349C233.889 431.904 232.365 434.541 227.301 437.995L229.062 443.106C229.242 443.626 229.527 444.047 229.873 444.362C231.278 443.851 234.034 442.15 239.429 437.089C245.757 431.152 250.14 426.473 252.176 424.229Z" fill="url(#paint51_linear_24_969)"/>
<path d="M223.185 428.798C223.569 429.208 227.301 437.995 227.301 437.995C227.301 437.995 231.456 436.946 232.303 433.876L228.565 425.945L223.185 428.798Z" fill="url(#paint52_linear_24_969)"/>
<path d="M127.801 350.974C127.801 350.974 126.451 354.767 126.506 359.808C126.582 366.779 131.382 372.436 137.346 372.783L186.323 375.391C187.358 375.446 188.233 376.282 188.492 377.452C189.643 382.65 195.268 398.612 222.767 430.462C223.499 431.31 224.638 431.454 225.51 430.811L229.424 427.924C229.835 427.621 229.966 426.992 229.721 426.503L201.203 369.644C199.706 366.758 197.298 364.673 194.498 363.837L152.754 351.379L127.801 350.974Z" fill="url(#paint53_linear_24_969)"/>
<path d="M184.62 263.432C184.62 263.432 170.821 272.988 165.472 278.235L176.529 285.438C176.529 285.438 182.504 277.38 188.196 274.022L184.62 263.432Z" fill="url(#paint54_linear_24_969)"/>
<path d="M127.733 351.507C131.831 352.136 150.24 354.809 159.429 353.575C159.715 353.537 159.958 353.319 160.069 353.009C161.426 349.22 170.266 324.926 176.554 316.94C176.894 316.507 177.489 316.548 177.786 317.023C180.23 320.934 191.045 336.273 211.82 338.968C212.165 339.013 212.497 338.789 212.639 338.418L213.436 336.339C213.612 335.882 213.447 335.343 213.062 335.12C209.564 333.092 193.772 323.314 188.498 309.146C182.553 293.176 180.165 286.364 174.757 282.198C171.787 279.91 169.868 278.262 168.741 277.24C167.904 276.481 166.752 276.414 165.854 277.073C159.252 281.917 133.769 303.391 127.045 350.425C126.97 350.947 127.283 351.438 127.733 351.507Z" fill="url(#paint55_linear_24_969)"/>
<path d="M211.079 333.952L213.673 333.145L221.962 330.903C222.96 330.633 224.009 330.84 224.876 331.477L232.004 336.713L212.32 336.674C212.115 335.914 211.631 334.957 211.079 333.952Z" fill="url(#paint56_linear_24_969)"/>
<path d="M198.088 256.424C198.126 256.737 194.554 277.175 194.554 277.175L184.603 274.546L185.523 254.587C185.523 254.587 197.442 251.197 198.088 256.424Z" fill="url(#paint57_linear_24_969)"/>
<path d="M187.762 259.035L186.572 269.497C186.557 269.631 186.557 269.764 186.573 269.898C186.674 270.718 187.196 273.51 189.61 272.711C191.801 271.987 193.809 271.364 195.196 271.859C195.819 272.082 196.195 272.819 196.064 273.564C195.739 275.42 194.941 279.589 193.774 283.087C193.537 283.797 192.871 284.17 192.245 283.956C190.357 283.314 186.409 281.829 183.472 279.765C183.074 279.486 182.838 278.981 182.857 278.439C182.953 275.797 183.217 267.769 182.994 265.518C182.785 263.405 180.565 262.14 179.6 261.686C179.284 261.538 179.036 261.247 178.91 260.877C178.463 259.57 177.847 256.545 181.112 255.305C181.795 255.046 182.155 254.186 181.912 253.396C181.429 251.825 181.225 249.426 183.751 248.104C186.317 246.761 188.235 248.359 189.27 249.658C189.688 250.183 190.36 250.263 190.879 249.88C191.175 249.662 191.556 249.59 192.016 249.925C192.636 250.375 193.457 250.068 193.777 249.302C194.392 247.828 195.645 246.25 198.158 246.753C202.618 247.645 203.123 253.414 201.946 256.795C200.77 260.177 195.982 258.889 193.58 257.184C191.754 255.888 189.385 257.246 188.355 257.972C188.028 258.202 187.812 258.593 187.762 259.035Z" fill="white"/>
<path d="M183.08 269.102C183.08 269.102 184.427 263.338 182.543 261.87C180.66 260.402 177.87 261.164 178.484 265.507C179.248 270.908 183.08 269.102 183.08 269.102Z" fill="url(#paint58_linear_24_969)"/>
<path d="M203.337 340.894C203.37 340.896 203.402 340.897 203.434 340.897L245.486 340.848C246.525 340.847 247.367 339.864 247.366 338.652C247.365 337.44 246.518 336.439 245.481 336.461L203.43 336.51C202.39 336.511 201.549 337.494 201.55 338.705C201.551 339.879 202.343 340.837 203.337 340.894Z" fill="url(#paint59_linear_24_969)"/>
<path d="M261.771 292.811C261.756 292.844 261.742 292.877 261.728 292.912L244.035 337.454C243.597 338.554 244.006 339.86 244.947 340.37C245.889 340.879 247.023 340.405 247.444 339.299L265.138 294.757C265.575 293.656 265.167 292.35 264.225 291.841C263.313 291.347 262.235 291.782 261.771 292.811Z" fill="url(#paint60_linear_24_969)"/>
<path d="M222.062 343.359C221.878 344.247 204.332 421.083 199.883 440.562C199.37 442.807 200.802 445.012 202.77 445.012C204.142 445.012 205.338 443.908 205.67 442.335L225.148 350.128L222.062 343.359Z" fill="#7D97F4"/>
<path d="M231.67 343.359C231.854 344.247 249.4 421.083 253.849 440.562C254.361 442.807 252.929 445.012 250.962 445.012C249.59 445.012 248.394 443.908 248.061 442.335L228.584 350.128L231.67 343.359Z" fill="#7D97F4"/>
<path d="M232.401 340.846H221.473V351.093C221.473 352.565 222.483 353.759 223.73 353.759H225.229V376.775C225.229 377.89 225.993 378.794 226.937 378.794C227.88 378.794 228.645 377.89 228.645 376.775V353.759H229.406C231.06 353.759 232.401 352.175 232.401 350.22L232.401 340.846Z" fill="#7D97F4"/>
<path d="M194.603 338.385H255.622C256.475 338.385 257.22 339.067 257.433 340.042L258.285 343.943C258.591 345.347 257.69 346.713 256.463 346.705L193.852 346.279C192.638 346.271 191.753 344.92 192.049 343.53L192.79 340.054C193 339.073 193.747 338.385 194.603 338.385Z" fill="#91B3FA"/>
<defs>
<linearGradient id="paint0_linear_24_969" x1="530.647" y1="212.569" x2="-64.0032" y2="223.966" gradientUnits="userSpaceOnUse">
<stop stop-color="#DAE3FE"/>
<stop offset="1" stop-color="#E9EFFD"/>
</linearGradient>
<linearGradient id="paint1_linear_24_969" x1="472.188" y1="335.895" x2="592.751" y2="335.895" gradientUnits="userSpaceOnUse">
<stop stop-color="#DAE3FE"/>
<stop offset="1" stop-color="#E9EFFD"/>
</linearGradient>
<linearGradient id="paint2_linear_24_969" x1="74.6967" y1="207.68" x2="167.556" y2="207.68" gradientUnits="userSpaceOnUse">
<stop stop-color="#DAE3FE"/>
<stop offset="1" stop-color="#E9EFFD"/>
</linearGradient>
<linearGradient id="paint3_linear_24_969" x1="284.23" y1="450.12" x2="338.488" y2="20.28" gradientUnits="userSpaceOnUse">
<stop stop-color="#09005D"/>
<stop offset="1" stop-color="#1A0F91"/>
</linearGradient>
<linearGradient id="paint4_linear_24_969" x1="473.105" y1="138.729" x2="102.278" y2="342.9" gradientUnits="userSpaceOnUse">
<stop stop-color="#FE7062"/>
<stop offset="1" stop-color="#FF928E"/>
</linearGradient>
<linearGradient id="paint5_linear_24_969" x1="147.53" y1="246.898" x2="435.005" y2="246.898" gradientUnits="userSpaceOnUse">
<stop stop-color="#E1473D"/>
<stop offset="1" stop-color="#E9605A"/>
</linearGradient>
<linearGradient id="paint6_linear_24_969" x1="291.357" y1="138.369" x2="309.49" y2="372.615" gradientUnits="userSpaceOnUse">
<stop stop-color="#09005D"/>
<stop offset="1" stop-color="#1A0F91"/>
</linearGradient>
<linearGradient id="paint7_linear_24_969" x1="480.759" y1="395.434" x2="508.441" y2="395.434" gradientUnits="userSpaceOnUse">
<stop stop-color="#FF928E"/>
<stop offset="1" stop-color="#FEB3B1"/>
</linearGradient>
<linearGradient id="paint8_linear_24_969" x1="497.697" y1="416.495" x2="492.155" y2="489.276" gradientUnits="userSpaceOnUse">
<stop stop-color="#4042E2"/>
<stop offset="1" stop-color="#4F52FF"/>
</linearGradient>
<linearGradient id="paint9_linear_24_969" x1="448.832" y1="397.43" x2="506.671" y2="397.43" gradientUnits="userSpaceOnUse">
<stop stop-color="#FF928E"/>
<stop offset="1" stop-color="#FEB3B1"/>
</linearGradient>
<linearGradient id="paint10_linear_24_969" x1="504.201" y1="413.592" x2="533.284" y2="292.403" gradientUnits="userSpaceOnUse">
<stop stop-color="#4042E2"/>
<stop offset="1" stop-color="#4F52FF"/>
</linearGradient>
<linearGradient id="paint11_linear_24_969" x1="458.407" y1="413.503" x2="452.865" y2="486.285" gradientUnits="userSpaceOnUse">
<stop stop-color="#4042E2"/>
<stop offset="1" stop-color="#4F52FF"/>
</linearGradient>
<linearGradient id="paint12_linear_24_969" x1="667.298" y1="133.264" x2="524.387" y2="268.325" gradientUnits="userSpaceOnUse">
<stop stop-color="#E1473D"/>
<stop offset="1" stop-color="#E9605A"/>
</linearGradient>
<linearGradient id="paint13_linear_24_969" x1="510.085" y1="278.083" x2="521.631" y2="324.337" gradientUnits="userSpaceOnUse">
<stop stop-color="#FF928E"/>
<stop offset="1" stop-color="#FEB3B1"/>
</linearGradient>
<linearGradient id="paint14_linear_24_969" x1="500.607" y1="268.303" x2="523.651" y2="267.589" gradientUnits="userSpaceOnUse">
<stop stop-color="#FF928E"/>
<stop offset="1" stop-color="#FEB3B1"/>
</linearGradient>
<linearGradient id="paint15_linear_24_969" x1="503.753" y1="377.919" x2="525.37" y2="351.594" gradientUnits="userSpaceOnUse">
<stop stop-color="#FF928E"/>
<stop offset="1" stop-color="#FEB3B1"/>
</linearGradient>
<linearGradient id="paint16_linear_24_969" x1="375.723" y1="253.933" x2="487.363" y2="313.467" gradientUnits="userSpaceOnUse">
<stop stop-color="#09005D"/>
<stop offset="1" stop-color="#1A0F91"/>
</linearGradient>
<linearGradient id="paint17_linear_24_969" x1="432.01" y1="296.627" x2="541.508" y2="361.66" gradientUnits="userSpaceOnUse">
<stop stop-color="#09005D"/>
<stop offset="1" stop-color="#1A0F91"/>
</linearGradient>
<linearGradient id="paint18_linear_24_969" x1="471.22" y1="313.001" x2="432.889" y2="371.431" gradientUnits="userSpaceOnUse">
<stop stop-color="#4042E2"/>
<stop offset="1" stop-color="#4F52FF"/>
</linearGradient>
<linearGradient id="paint19_linear_24_969" x1="500.722" y1="272.011" x2="523.766" y2="271.297" gradientUnits="userSpaceOnUse">
<stop stop-color="#FF928E"/>
<stop offset="1" stop-color="#FEB3B1"/>
</linearGradient>
<linearGradient id="paint20_linear_24_969" x1="141.242" y1="154.008" x2="185.303" y2="251.134" gradientUnits="userSpaceOnUse">
<stop stop-color="#4042E2"/>
<stop offset="1" stop-color="#4F52FF"/>
</linearGradient>
<linearGradient id="paint21_linear_24_969" x1="111.012" y1="84.9118" x2="149.313" y2="135.874" gradientUnits="userSpaceOnUse">
<stop stop-color="#4042E2"/>
<stop offset="1" stop-color="#4F52FF"/>
</linearGradient>
<linearGradient id="paint22_linear_24_969" x1="120.619" y1="91.1259" x2="95.1888" y2="210.275" gradientUnits="userSpaceOnUse">
<stop stop-color="#09005D"/>
<stop offset="1" stop-color="#1A0F91"/>
</linearGradient>
<linearGradient id="paint23_linear_24_969" x1="608.82" y1="81.9518" x2="350.149" y2="193.104" gradientUnits="userSpaceOnUse">
<stop stop-color="#4042E2"/>
<stop offset="1" stop-color="#4F52FF"/>
</linearGradient>
<linearGradient id="paint24_linear_24_969" x1="602.148" y1="66.4237" x2="343.477" y2="177.575" gradientUnits="userSpaceOnUse">
<stop stop-color="#4042E2"/>
<stop offset="1" stop-color="#4F52FF"/>
</linearGradient>
<linearGradient id="paint25_linear_24_969" x1="595.404" y1="50.7287" x2="336.731" y2="161.881" gradientUnits="userSpaceOnUse">
<stop stop-color="#4042E2"/>
<stop offset="1" stop-color="#4F52FF"/>
</linearGradient>
<linearGradient id="paint26_linear_24_969" x1="516.776" y1="-3.86456" x2="476.755" y2="100.845" gradientUnits="userSpaceOnUse">
<stop stop-color="#4042E2"/>
<stop offset="1" stop-color="#4F52FF"/>
</linearGradient>
<linearGradient id="paint27_linear_24_969" x1="431.906" y1="24.2179" x2="560.849" y2="24.2179" gradientUnits="userSpaceOnUse">
<stop stop-color="#4042E2"/>
<stop offset="1" stop-color="#4F52FF"/>
</linearGradient>
<linearGradient id="paint28_linear_24_969" x1="213.043" y1="389.506" x2="212.445" y2="390.145" gradientUnits="userSpaceOnUse">
<stop stop-color="#CB236D"/>
<stop offset="1" stop-color="#4C246D"/>
</linearGradient>
<linearGradient id="paint29_linear_24_969" x1="360.447" y1="113.857" x2="46.8897" y2="449.92" gradientUnits="userSpaceOnUse">
<stop stop-color="#4042E2"/>
<stop offset="1" stop-color="#4F52FF"/>
</linearGradient>
<linearGradient id="paint30_linear_24_969" x1="470.586" y1="60.9841" x2="204.101" y2="542.519" gradientUnits="userSpaceOnUse">
<stop stop-color="#09005D"/>
<stop offset="1" stop-color="#1A0F91"/>
</linearGradient>
<linearGradient id="paint31_linear_24_969" x1="176.394" y1="310.342" x2="-18.5009" y2="519.277" gradientUnits="userSpaceOnUse">
<stop stop-color="#4042E2"/>
<stop offset="1" stop-color="#4F52FF"/>
</linearGradient>
<linearGradient id="paint32_linear_24_969" x1="396.364" y1="142.442" x2="75.5146" y2="486.32" gradientUnits="userSpaceOnUse">
<stop stop-color="#4042E2"/>
<stop offset="1" stop-color="#4F52FF"/>
</linearGradient>
<linearGradient id="paint33_linear_24_969" x1="345.806" y1="288.973" x2="419.441" y2="193.207" gradientUnits="userSpaceOnUse">
<stop stop-color="#FF928E"/>
<stop offset="1" stop-color="#FEB3B1"/>
</linearGradient>
<linearGradient id="paint34_linear_24_969" x1="339.668" y1="284.254" x2="413.304" y2="188.487" gradientUnits="userSpaceOnUse">
<stop stop-color="#FF928E"/>
<stop offset="1" stop-color="#FEB3B1"/>
</linearGradient>
<linearGradient id="paint35_linear_24_969" x1="257.064" y1="173.867" x2="223.384" y2="298.521" gradientUnits="userSpaceOnUse">
<stop stop-color="#FF928E"/>
<stop offset="1" stop-color="#FEB3B1"/>
</linearGradient>
<linearGradient id="paint36_linear_24_969" x1="233.637" y1="115.21" x2="267.076" y2="195.525" gradientUnits="userSpaceOnUse">
<stop stop-color="#FF928E"/>
<stop offset="1" stop-color="#FEB3B1"/>
</linearGradient>
<linearGradient id="paint37_linear_24_969" x1="240.357" y1="146.856" x2="295.231" y2="207.365" gradientUnits="userSpaceOnUse">
<stop stop-color="#09005D"/>
<stop offset="1" stop-color="#1A0F91"/>
</linearGradient>
<linearGradient id="paint38_linear_24_969" x1="217.807" y1="121.801" x2="251.246" y2="202.116" gradientUnits="userSpaceOnUse">
<stop stop-color="#FF928E"/>
<stop offset="1" stop-color="#FEB3B1"/>
</linearGradient>
<linearGradient id="paint39_linear_24_969" x1="115.982" y1="443.508" x2="132.969" y2="621.976" gradientUnits="userSpaceOnUse">
<stop stop-color="#4042E2"/>
<stop offset="1" stop-color="#4F52FF"/>
</linearGradient>
<linearGradient id="paint40_linear_24_969" x1="53.7283" y1="382.046" x2="166.067" y2="382.046" gradientUnits="userSpaceOnUse">
<stop stop-color="#DAE3FE"/>
<stop offset="1" stop-color="#E9EFFD"/>
</linearGradient>
<linearGradient id="paint41_linear_24_969" x1="53.7283" y1="386.03" x2="166.067" y2="386.03" gradientUnits="userSpaceOnUse">
<stop stop-color="#DAE3FE"/>
<stop offset="1" stop-color="#E9EFFD"/>
</linearGradient>
<linearGradient id="paint42_linear_24_969" x1="53.7283" y1="390.013" x2="166.067" y2="390.013" gradientUnits="userSpaceOnUse">
<stop stop-color="#DAE3FE"/>
<stop offset="1" stop-color="#E9EFFD"/>
</linearGradient>
<linearGradient id="paint43_linear_24_969" x1="53.7283" y1="393.997" x2="166.067" y2="393.997" gradientUnits="userSpaceOnUse">
<stop stop-color="#DAE3FE"/>
<stop offset="1" stop-color="#E9EFFD"/>
</linearGradient>
<linearGradient id="paint44_linear_24_969" x1="53.7283" y1="397.98" x2="166.067" y2="397.98" gradientUnits="userSpaceOnUse">
<stop stop-color="#DAE3FE"/>
<stop offset="1" stop-color="#E9EFFD"/>
</linearGradient>
<linearGradient id="paint45_linear_24_969" x1="201.732" y1="277.398" x2="129.113" y2="353.164" gradientUnits="userSpaceOnUse">
<stop stop-color="#4042E2"/>
<stop offset="1" stop-color="#4F52FF"/>
</linearGradient>
<linearGradient id="paint46_linear_24_969" x1="197.879" y1="390.868" x2="199.643" y2="425.843" gradientUnits="userSpaceOnUse">
<stop stop-color="#09005D"/>
<stop offset="1" stop-color="#1A0F91"/>
</linearGradient>
<linearGradient id="paint47_linear_24_969" x1="207.348" y1="377.776" x2="196.912" y2="439.533" gradientUnits="userSpaceOnUse">
<stop stop-color="#4042E2"/>
<stop offset="1" stop-color="#4F52FF"/>
</linearGradient>
<linearGradient id="paint48_linear_24_969" x1="187.42" y1="430.75" x2="195.199" y2="430.75" gradientUnits="userSpaceOnUse">
<stop stop-color="#FF928E"/>
<stop offset="1" stop-color="#FEB3B1"/>
</linearGradient>
<linearGradient id="paint49_linear_24_969" x1="200.927" y1="338.055" x2="129.194" y2="437.946" gradientUnits="userSpaceOnUse">
<stop stop-color="#09005D"/>
<stop offset="1" stop-color="#1A0F91"/>
</linearGradient>
<linearGradient id="paint50_linear_24_969" x1="239.563" y1="388.765" x2="241.328" y2="423.74" gradientUnits="userSpaceOnUse">
<stop stop-color="#09005D"/>
<stop offset="1" stop-color="#1A0F91"/>
</linearGradient>
<linearGradient id="paint51_linear_24_969" x1="245.55" y1="384.232" x2="235.113" y2="445.989" gradientUnits="userSpaceOnUse">
<stop stop-color="#4042E2"/>
<stop offset="1" stop-color="#4F52FF"/>
</linearGradient>
<linearGradient id="paint52_linear_24_969" x1="223.185" y1="431.97" x2="232.303" y2="431.97" gradientUnits="userSpaceOnUse">
<stop stop-color="#FF928E"/>
<stop offset="1" stop-color="#FEB3B1"/>
</linearGradient>
<linearGradient id="paint53_linear_24_969" x1="129.871" y1="341.338" x2="214.374" y2="388.898" gradientUnits="userSpaceOnUse">
<stop stop-color="#09005D"/>
<stop offset="1" stop-color="#1A0F91"/>
</linearGradient>
<linearGradient id="paint54_linear_24_969" x1="189.757" y1="277.08" x2="168.208" y2="272.527" gradientUnits="userSpaceOnUse">
<stop stop-color="#FF928E"/>
<stop offset="1" stop-color="#FEB3B1"/>
</linearGradient>
<linearGradient id="paint55_linear_24_969" x1="285.234" y1="11.4375" x2="223.383" y2="140.792" gradientUnits="userSpaceOnUse">
<stop stop-color="#09005D"/>
<stop offset="1" stop-color="#1A0F91"/>
</linearGradient>
<linearGradient id="paint56_linear_24_969" x1="211.079" y1="333.75" x2="232.004" y2="333.75" gradientUnits="userSpaceOnUse">
<stop stop-color="#FF928E"/>
<stop offset="1" stop-color="#FEB3B1"/>
</linearGradient>
<linearGradient id="paint57_linear_24_969" x1="196.605" y1="262.713" x2="173.068" y2="271.043" gradientUnits="userSpaceOnUse">
<stop stop-color="#FF928E"/>
<stop offset="1" stop-color="#FEB3B1"/>
</linearGradient>
<linearGradient id="paint58_linear_24_969" x1="189.242" y1="257.431" x2="177.404" y2="266.038" gradientUnits="userSpaceOnUse">
<stop stop-color="#FF928E"/>
<stop offset="1" stop-color="#FEB3B1"/>
</linearGradient>
<linearGradient id="paint59_linear_24_969" x1="-4302.51" y1="-5292.21" x2="-4215.89" y2="-5212.89" gradientUnits="userSpaceOnUse">
<stop stop-color="#09005D"/>
<stop offset="1" stop-color="#1A0F91"/>
</linearGradient>
<linearGradient id="paint60_linear_24_969" x1="6534.7" y1="-2101.98" x2="6428.59" y2="-2072.2" gradientUnits="userSpaceOnUse">
<stop stop-color="#09005D"/>
<stop offset="1" stop-color="#1A0F91"/>
</linearGradient>
</defs>
</svg>
