<svg width="118" height="125" viewBox="0 0 118 125" fill="none" xmlns="http://www.w3.org/2000/svg">
<path d="M68.8334 114.583H88.5C91.108 114.583 93.6091 113.486 95.4532 111.532C97.2973 109.579 98.3334 106.929 98.3334 104.167V41.6668C98.3372 40.0163 98.0324 38.3814 97.4366 36.8563C96.8409 35.3313 95.9659 33.9463 94.8622 32.7814L77.2212 14.0939C76.1215 12.9247 74.8141 11.9978 73.3744 11.3667C71.9348 10.7356 70.3914 10.4127 68.8334 10.4168H29.5C26.8921 10.4168 24.3909 11.5143 22.5468 13.4678C20.7027 15.4213 19.6667 18.0708 19.6667 20.8335V52.0835" stroke="#4269A7" stroke-width="2" stroke-linecap="round" stroke-linejoin="round"/>
<path d="M68.8333 10.4167V36.4584C68.8333 37.8398 69.3513 39.1645 70.2734 40.1413C71.1954 41.118 72.446 41.6667 73.75 41.6667H98.3333" stroke="#4269A7" stroke-width="2" stroke-linecap="round" stroke-linejoin="round"/>
<path d="M24.5833 72.9167C23.2794 72.9167 22.0288 73.4655 21.1067 74.4422C20.1847 75.419 19.6667 76.7437 19.6667 78.1251V88.5417C19.6667 89.9231 19.1487 91.2478 18.2266 92.2246C17.3046 93.2014 16.054 93.7501 14.75 93.7501C16.054 93.7501 17.3046 94.2988 18.2266 95.2756C19.1487 96.2523 19.6667 97.5771 19.6667 98.9584V109.375C19.6667 110.756 20.1847 112.081 21.1067 113.058C22.0288 114.035 23.2794 114.583 24.5833 114.583" stroke="#4269A7" stroke-width="2" stroke-linecap="round" stroke-linejoin="round"/>
<path d="M44.25 114.583C45.554 114.583 46.8046 114.035 47.7266 113.058C48.6487 112.081 49.1667 110.756 49.1667 109.375V98.9584C49.1667 97.5771 49.6847 96.2523 50.6067 95.2756C51.5288 94.2988 52.7794 93.7501 54.0833 93.7501C52.7794 93.7501 51.5288 93.2014 50.6067 92.2246C49.6847 91.2478 49.1667 89.9231 49.1667 88.5417V78.1251C49.1667 76.7437 48.6487 75.419 47.7266 74.4422C46.8046 73.4655 45.554 72.9167 44.25 72.9167" stroke="#4269A7" stroke-width="2" stroke-linecap="round" stroke-linejoin="round"/>
</svg>
